<svg xmlns="http://www.w3.org/2000/svg" width="254.14" height="59.99" viewBox="0 0 254.14 59.99"><g id="Слой_2" data-name="Слой 2"><g id="Слой_1-2" data-name="Слой 1"><path d="M48.16,7.54a.8.8,0,0,0-.59-.21c-7.16.25-17.42-3.16-23.16-7.2L24.21,0,24,.13A41.19,41.19,0,0,1,1,7.2a.92.92,0,0,0-.67.25A.91.91,0,0,0,0,8.11V29.89H0V44.33a8.76,8.76,0,0,0,5.35,8.3C15.27,56.4,23.93,60,24,60h.38c.09,0,8.74-3.59,18.67-7.36a8.76,8.76,0,0,0,5.35-8.3V8.13A.8.8,0,0,0,48.16,7.54ZM19.61,3.69c.17,0,.27.2.15.4-1,1.66-5.45,6.78-6.33,7.85L8.77,17.59l-1.95.27V8.18A.35.35,0,0,1,7,7.87l.44-.22a2.48,2.48,0,0,1,.64-.24,58.11,58.11,0,0,0,9.46-3A8.63,8.63,0,0,1,19.61,3.69ZM6.82,29.39V18.72l1.88-.24,7.57,10.9ZM1,8h.28c.47,0,1.17,0,2.12,0V29.39H1ZM23.7,58.77c-2.26-.92-9.68-3.93-18-7.09A7.74,7.74,0,0,1,1,44.33V30.4H23.7V58.77Zm0-54.67V29.39H20.47l-9.06-13c1.13-1.36,3.31-4.12,4-5,.88-1.07,4.78-6.28,6.13-7.86.18-.22,1.85-1.19,2.13.36v0A1.1,1.1,0,0,1,23.7,4.1ZM34.62,47.19H33.51c-4.2,0-5.6-2.49-5.6-6.35,0-3.64,1.4-6.47,6.07-6.47h.65Zm-1-13.63c-4.84,0-8.09,1.86-8.91,5.46V30.4h9.91v3.16Zm4.23.81h1c4.3,0,5.63,2.58,5.63,6.44,0,3.58-1.43,6.38-6,6.38h-.66Zm1.4-.81h-1.4V30.39H47.4v7.32A6.15,6.15,0,0,0,45,34.89a10.64,10.64,0,0,0-5.72-1.33ZM24.71,1.37c11.35,7,19.81,6.85,22.69,7v21H24.71Zm0,41.41a6.27,6.27,0,0,0,2.75,3.88A10.93,10.93,0,0,0,33.12,48h1.5v6.81c-4.72,1.85-8.43,3.35-9.91,4v-16Zm18,8.9-4.85,1.87V48h1c4.26,0,7.32-1.46,8.52-4.32v.65a7.72,7.72,0,0,1-4.69,7.35Z"/><path d="M68.29,26.21v-.5H69.6L65.9,20l-.81.1v5.61h1.3v.5H61.45v-.5h1.34V14.38H61.45v-.49h4.94v.49h-1.3v5.23l.85-.12,2.51-3a7.91,7.91,0,0,0,1.21-2.06H68.33v-.49h3.83v.49H71c-.48.51-1,1.14-1.53,1.74-.29.35-1.39,1.66-1.92,2.31l4.84,7.28h.93v.49Z"/><path d="M73.2,20c0-3.57,2-6.37,5.62-6.37s5.63,2.8,5.63,6.37-1.94,6.42-5.63,6.42S73.2,23.62,73.2,20Zm8.78.19c0-3.15-.41-6.07-3.13-6.07s-3.17,2.71-3.17,5.72S76.1,26,78.85,26,82,23.25,82,20.22Z"/><path d="M95.15,26.21v-.5h1.66V14.77l-4,11.52H91.72l-4-11.55v5.31a32.53,32.53,0,0,0,.43,5.66h1.33v.5H85.78v-.5H87a31.28,31.28,0,0,0,.15-3.53v-7.8H85.78v-.49h4l3.36,9.48,3.34-9.48h4v.49H99.09V25.71h1.36v.5Z"/><path d="M108.75,26.21v-.5h1.46v-11l-5.52,11.61h-1.61V14.38h-1.33v-.49h5.06v.49h-1.42v8.54l4.38-9h4.08v.5h-1.34V25.72h1.34v.49Z"/><path d="M117.19,26.21v-.5h1.5V14.38h-1.2c-1.12,0-1.58,1.27-2,3.58h-.58l.1-4.07h9.59l.1,4.07h-.6c-.37-2.31-.84-3.58-1.95-3.58H121V25.71h1.49v.5Z"/><path d="M125.81,26.21v-.5h1.34V14.38h-1.34v-.49h9.3l0,3.91h-.59a15.88,15.88,0,0,0-.65-2.35c-.31-.93-.68-1.07-1.65-1.07h-2.81v5.21h1.19c.78,0,1.06-.27,1.23-1.16a10.76,10.76,0,0,0,.24-1.38h.62v5.58h-.62a12.76,12.76,0,0,0-.21-1.37c-.2-.92-.47-1.18-1.25-1.18h-1.2V25.7h3.29c.94,0,1.34-.23,1.67-1.24a15.36,15.36,0,0,0,.65-2.57h.62l-.11,4.31Z"/><path d="M139.34,26.21v-.5h1.49V14.38h-1.19c-1.13,0-1.59,1.27-2,3.58h-.59l.11-4.07h9.58l.11,4.07h-.6c-.37-2.31-.84-3.58-1.95-3.58h-1.2V25.71h1.5v.5Z"/><path d="M157.44,26.21v-.5h1.33V24H158a6.19,6.19,0,0,1-3.29-.78,3.6,3.6,0,0,1-1.68-3.25c0-2.85,2.12-4.15,5.24-4.15h.47v-1.4h-1.34v-.49h5v.49h-1.34v1.39h.65a6.6,6.6,0,0,1,3.36.76,3.69,3.69,0,0,1,1.71,3.29c0,2.85-2.13,4.13-5.18,4.13h-.54v1.76h1.34v.49Zm1.33-9.92h-.31c-2.4,0-3,1.74-3,3.62,0,2.2.67,3.53,2.77,3.53h.52Zm2.66,7.15c2.34,0,2.95-1.72,2.95-3.53,0-2.2-.63-3.62-2.79-3.62h-.5v7.15Z"/><path d="M175.11,26.21v-.5h1.46v-11l-5.52,11.61h-1.6V14.38h-1.34v-.49h5.07v.49h-1.43v8.54l4.38-9h4.08v.5h-1.33V25.72h1.33v.49Z"/><path d="M188.67,26.21v-.5H190V20.17h-4.82v5.54h1.3v.5h-4.94v-.5h1.33V14.38h-1.33v-.49h4.94v.49h-1.3v5.16H190V14.38h-1.31v-.49h5v.49h-1.34V25.71h1.34v.5Z"/><path d="M201,26.21v-.5h1.6l-1.46-4h-4.11l-.3.83a12.57,12.57,0,0,0-.63,3.16h1.35v.49h-3.61v-.49h.94c.25-.53.67-1.53,1.07-2.64l3.42-9.29h1.41l4.37,11.93h1v.49Zm-1.9-10.1h-.07c-.24.7-1.16,3.25-1.81,5.06H201Z"/><path d="M213.49,26.21v-.5h1.3V20.17H210v5.54h1.3v.5h-4.95v-.5h1.34V14.38h-1.34v-.49h4.95v.49H210v5.16h4.81V14.38h-1.3v-.49h4.95v.49H217.1V25.71h1.34v.5Z"/><path d="M229.55,25.47a8.81,8.81,0,0,1-4.06,1c-3.91,0-5.75-2.85-5.75-6.4s2-6.39,5.93-6.39a9.14,9.14,0,0,1,3.71.81l0,3.49h-.61a8.24,8.24,0,0,0-.64-2.36,2.56,2.56,0,0,0-2.32-1.44c-3.11,0-3.62,2.86-3.62,5.82s.42,6,3.59,6a2.55,2.55,0,0,0,2.55-1.64,10.46,10.46,0,0,0,.63-2.45h.62Z"/><path d="M231.22,20c0-3.57,2-6.37,5.63-6.37s5.62,2.8,5.62,6.37-1.93,6.42-5.62,6.42S231.22,23.62,231.22,20Zm8.78.19c0-3.15-.4-6.07-3.13-6.07s-3.16,2.71-3.16,5.72.42,6.08,3.16,6.08S240,23.25,240,20.22Z"/><path d="M243.8,26.21v-.5h1.34V14.38H243.8v-.49h5.14a6.8,6.8,0,0,1,3.27.55,2.62,2.62,0,0,1,1.49,2.48c0,1.79-1.26,2.64-3,2.85,2,.21,3.48,1,3.48,3.11a2.93,2.93,0,0,1-1.57,2.7,6.8,6.8,0,0,1-3.51.63Zm4.78-6.62c1.64,0,2.8-.7,2.8-2.6s-.77-2.61-2.6-2.61h-1.34v5.21Zm.34,6.12c2,0,2.81-.79,2.81-2.9s-1.3-2.73-3-2.73h-1.26v5.63Z"/><path d="M71.27,46.57a8.86,8.86,0,0,1-4.07,1c-3.9,0-5.75-2.85-5.75-6.4s2-6.39,5.93-6.39a9.14,9.14,0,0,1,3.71.81l0,3.48h-.61a8.15,8.15,0,0,0-.63-2.35,2.58,2.58,0,0,0-2.33-1.45c-3.11,0-3.62,2.87-3.62,5.83s.42,6,3.59,6a2.54,2.54,0,0,0,2.55-1.64A9.91,9.91,0,0,0,70.7,43h.62Z"/><path d="M79.2,47.31v-.49h1.6l-1.46-4H75.22l-.3.82a13.2,13.2,0,0,0-.63,3.17h1.35v.49H72v-.49H73c.24-.53.66-1.53,1.07-2.64l3.41-9.29h1.43l4.36,11.93h1v.49ZM77.3,37.22h-.07c-.24.7-1.16,3.25-1.81,5.06h3.72Z"/><path d="M91.67,47.31v-.49H93V41.28H88.15v5.54h1.3v.49H84.51v-.49h1.34V35.49H84.51V35h4.94v.49h-1.3v5.16H93V35.49h-1.3V35h4.94v.49H95.27V46.82h1.34v.49Z"/><path d="M104.75,47.31v-.49h1.31l-3.7-5.72-.81.11v5.61h1.31v.49h-5v-.49h1.34V35.49H97.91V35h5v.49h-1.31v5.23l.85-.13,2.51-3a8,8,0,0,0,1.22-2.06h-1.34V35h3.83v.49h-1.19c-.47.51-1,1.14-1.53,1.74-.28.35-1.39,1.65-1.92,2.3l4.84,7.29h.94v.49Z"/><path d="M111.86,47.31v-.49h1.5V35.49h-1.2c-1.13,0-1.58,1.27-2,3.57h-.59l.11-4.06h9.59l.1,4.06h-.59c-.38-2.3-.85-3.57-2-3.57h-1.19V46.82h1.5v.49Z"/><path d="M119.9,43.94V42.18h5.21v1.76Z"/><path d="M133.81,47.31v-.49h1.3V35.56H130.3V46.82h1.3v.49h-4.94v-.49H128V35.49h-1.33V35h12.1v.49h-1.34V46.82h1.34v.49Z"/><path d="M140.06,47.31v-.49h1.33V35.49h-1.33V35h9.3l0,3.9h-.58a17.44,17.44,0,0,0-.65-2.34c-.32-.93-.69-1.07-1.66-1.07H143.7v5.2h1.2c.77,0,1-.26,1.23-1.16a12.63,12.63,0,0,0,.23-1.37H147v5.58h-.62a12.76,12.76,0,0,0-.21-1.37c-.19-.92-.47-1.18-1.25-1.18h-1.19v5.62H147c.93,0,1.33-.23,1.67-1.25a17,17,0,0,0,.65-2.57h.61l-.1,4.31Z"/><path d="M153.58,47.31v-.49h1.5V35.49h-1.2c-1.12,0-1.58,1.27-2,3.57h-.58l.1-4.06H161l.1,4.06h-.59c-.37-2.3-.85-3.57-2-3.57h-1.19V46.82h1.5v.49Z"/><path d="M162.2,47.31v-.49h1.34V35.49H162.2V35h9.31l0,3.9H171a16.05,16.05,0,0,0-.65-2.34c-.32-.93-.68-1.07-1.65-1.07h-2.81v5.2H167c.78,0,1.06-.26,1.23-1.16a12.66,12.66,0,0,0,.24-1.37h.61v5.58h-.61a12.76,12.76,0,0,0-.21-1.37c-.2-.92-.47-1.18-1.25-1.18h-1.2v5.62h3.29c.94,0,1.34-.23,1.67-1.25a15.86,15.86,0,0,0,.65-2.57h.62L172,47.3Z"/><path d="M173.69,47.31v-.49H175V35.49h-1.34V35h5.24a7.61,7.61,0,0,1,3.18.49,2.83,2.83,0,0,1,1.71,2.75c0,2.62-2.2,3.37-5,3.37h-1.48v5.21h1.49v.49Zm4.84-6.19c2.05,0,2.88-.86,2.88-2.83s-.7-2.79-2.67-2.79h-1.41v5.62Z"/><path d="M185.1,47.31v-.49h1.34V35.49H185.1V35h9.36l0,3.9h-.58a19.35,19.35,0,0,0-.65-2.34c-.34-.93-.69-1.07-1.65-1.07h-2.89v5.2h1.86a7.42,7.42,0,0,1,3.14.48,2.83,2.83,0,0,1,1.7,2.76c0,2.62-2.2,3.38-5,3.38Zm5.05-.49c2.06,0,2.89-.86,2.89-2.83s-.69-2.8-2.68-2.8h-1.62v5.63Z"/><path d="M202.27,44h-.74l-4.18-8.48h-1V35h5v.49h-1.37L203.1,42h.07l1.93-4.23a7.74,7.74,0,0,0,.55-2.24h-1.23V35h3.44v.49h-1c-.34.57-.66,1.16-.95,1.76l-3.3,7.32c-.62,1.39-1.41,3-3.43,3a2.74,2.74,0,0,1-1.92-.72V44.5h1.27a5.55,5.55,0,0,0,.1,1.35c.12.55.39,1,1,1,1.16,0,1.87-1.37,2.18-2Z"/><path d="M208.11,47.31v-.49h1.34V35.49h-1.34V35h5.25a7.61,7.61,0,0,1,3.18.49,2.83,2.83,0,0,1,1.71,2.75c0,2.62-2.2,3.37-5,3.37h-1.48v5.21h1.5v.49ZM213,41.12c2.06,0,2.88-.86,2.88-2.83s-.7-2.79-2.67-2.79h-1.41v5.62Z"/><path d="M219.53,47.31v-.49h1.33V35.49h-1.33V35h9.14l.06,3.9h-.59a19.35,19.35,0,0,0-.65-2.34c-.34-.93-.69-1.07-1.65-1.07h-2.68V46.82h1.48v.49Z"/><path d="M235.11,47.31v-.49h1.6l-1.46-4h-4.11l-.3.82a12.75,12.75,0,0,0-.64,3.17h1.36v.49H228v-.49h.94c.24-.53.67-1.53,1.07-2.64l3.41-9.29h1.43l4.36,11.93h1v.49Zm-1.9-10.09h-.07l-1.81,5.06h3.73Z"/></g></g></svg>