<svg xmlns="http://www.w3.org/2000/svg" width="258.98" height="44.83" viewBox="0 0 258.98 44.83"><defs><style>.cls-1{fill:#009ee2;}.cls-2{fill:#123274;}</style></defs><g id="Слой_2" data-name="Слой 2"><g id="Слой_1-2" data-name="Слой 1"><path class="cls-1" d="M36.67,6H6.52L8.7,0H38.85ZM35.59,9H5.43l-2.17,6H33.41Zm-3.26,9H2.18L0,23.91H30.15Z"/><path class="cls-2" d="M108.51,38.81h5.4c2,0,3.29-.5,4.16-1.62a5.2,5.2,0,0,0,1.05-3.41,4.72,4.72,0,0,0-1.86-4.09,5.37,5.37,0,0,0-3.41-.87h-5.34Zm-7.13,6V9H124.7l-2,6H108.51v7.94h5.77c4.65,0,7.07,1.12,8.75,2.55,1.3,1.12,3.54,3.6,3.54,8.5s-2.3,7.51-4.22,8.87c-2.24,1.55-4.59,2-9.37,2Zm-20.66,0V15H70.35V9H99.14l-2,6H87.91V44.83ZM52,23.3h4a8.47,8.47,0,0,0,2.48-.19,3.91,3.91,0,0,0,2.73-4c0-2.42-1.11-3.48-2.73-4a9.65,9.65,0,0,0-2.73-.25H52Zm.06,6.2v9.43h5a5.33,5.33,0,0,0,3.84-1,4.69,4.69,0,0,0,1.43-3.66,5.14,5.14,0,0,0-.93-3.11C60.3,29.81,59,29.5,56.77,29.5Zm11.48-3.78v.12a12.94,12.94,0,0,1,3.35,1.92,8.48,8.48,0,0,1,3,7c0,4.9-2.61,8.43-6.89,9.55a18.26,18.26,0,0,1-5.21.5h-13V9H56.33a21.41,21.41,0,0,1,5.4.49c4.16,1.12,6.89,4,6.89,8.5a7.92,7.92,0,0,1-2.3,5.83A8.76,8.76,0,0,1,63.53,25.72ZM136.87,15c0-3.71,2.72-6.09,6.33-6.09a8.18,8.18,0,0,1,2.89.43l-.17,2.07a5.61,5.61,0,0,0-2.53-.55,3.7,3.7,0,0,0-4,4.07,3.85,3.85,0,0,0,4,4.16,7,7,0,0,0,2.63-.46l.09,2.07a9.25,9.25,0,0,1-2.79.39C139.5,21,136.87,18.78,136.87,15Zm13.4-4H147V9H156v2h-3.31v9.94h-2.44Zm7.49-2h3c2.65,0,5,.7,5,3.66s-2.3,3.73-5,3.73h-.6v4.55h-2.42Zm2.84,5.56c1.63,0,2.74-.36,2.74-1.88s-.94-1.87-2.74-1.87h-.42v3.75ZM170.12,9h2.72l4.76,11.94H175l-1-2.75h-5l-1.05,2.75h-2.48Zm3.17,7.37-1-2.79c-.25-.72-.66-2.08-.82-2.7h0c-.17.62-.62,2-.87,2.7l-1,2.79Zm8.78-1.57L178.23,9h2.88l1.28,2.19c.46.8.92,1.62,1.28,2.29.35-.67.84-1.62,1.22-2.27L186.15,9h2.57L185,14.78l4,6.14h-2.86l-1.21-2.05c-.44-.74-1.18-2.09-1.42-2.6-.27.51-1.08,1.84-1.54,2.6l-1.25,2.05H178Zm7.51.19c0-4,2.19-6.2,5.94-6.2,3.5,0,5.73,2.35,5.73,6.13s-2.31,6.23-5.87,6.23S189.58,18.75,189.58,15Zm9.1,0c0-2.67-1.3-4.31-3.3-4.31s-3.22,1.71-3.22,4.33,1.3,4.29,3.29,4.29S198.68,17.52,198.68,15Zm4.88-6h3.66c2.67,0,4.44.85,4.44,3.06a2.73,2.73,0,0,1-2.49,2.74v0A2.81,2.81,0,0,1,212,17.65c0,2.48-2.32,3.27-4.68,3.27h-3.72Zm3,5c1.65,0,2.77-.28,2.77-1.64s-1.14-1.61-2.53-1.61h-.87V14Zm.16,5.11c1.95,0,2.87-.49,2.87-1.74s-1-1.7-3-1.7h-.67v3.44ZM217.42,9h2.72l4.76,11.94h-2.62l-1-2.75h-5l-1,2.75h-2.48Zm3.17,7.37-1-2.79c-.26-.72-.67-2.08-.82-2.7h0c-.17.62-.61,2-.87,2.7l-1,2.79ZM226.51,9h2.43v4.75h4.78V9h2.43V20.92h-2.43V15.75h-4.78v5.17h-2.43ZM239,9h2.37v4.38c0,1.25-.07,3.44-.14,4.62h0l5.05-9H249V20.92h-2.36V16.54c0-1.25.07-3.44.14-4.62h0l-5.09,9H239Zm12.84,0h7.07v2h-4.69v2.88h4.31v1.93h-4.31v3.15H259v2h-7.12Z"/></g></g></svg>