<svg xmlns="http://www.w3.org/2000/svg" xmlns:xlink="http://www.w3.org/1999/xlink" width="309.03" height="323.31" viewBox="0 0 309.03 323.31"><defs><style>.cls-1{isolation:isolate;}.cls-2,.cls-3,.cls-4{mix-blend-mode:color-dodge;opacity:0.35;}.cls-2{fill:url(#linear-gradient);}.cls-3{fill:url(#linear-gradient-2);}.cls-4{fill:url(#linear-gradient-3);}.cls-5{fill:url(#linear-gradient-4);}.cls-6{fill:url(#linear-gradient-5);}.cls-7{fill:url(#linear-gradient-6);}.cls-8{fill:#adb4ce;}.cls-9{fill:url(#linear-gradient-7);}.cls-10{fill:url(#linear-gradient-8);}.cls-11{fill:#1b2a69;}.cls-12{mix-blend-mode:screen;opacity:0.3;fill:url(#linear-gradient-9);}</style><linearGradient id="linear-gradient" x1="129.9" y1="203.93" x2="318.14" y2="203.93" gradientUnits="userSpaceOnUse"><stop offset="0" stop-color="#5894b4"/><stop offset="1"/></linearGradient><linearGradient id="linear-gradient-2" x1="108.7" y1="105.71" x2="134.85" y2="-21.33" gradientUnits="userSpaceOnUse"><stop offset="0.1" stop-color="#5894b4"/><stop offset="0.85"/></linearGradient><linearGradient id="linear-gradient-3" x1="116.67" y1="139.02" x2="272.1" y2="49.29" xlink:href="#linear-gradient"/><linearGradient id="linear-gradient-4" x1="0.03" y1="93.43" x2="87.46" y2="93.43" gradientUnits="userSpaceOnUse"><stop offset="0" stop-color="#f1f3fb"/><stop offset="0.16" stop-color="#edf0fa"/><stop offset="0.31" stop-color="#e2e8f5"/><stop offset="0.46" stop-color="#cfd9ee"/><stop offset="0.61" stop-color="#b4c5e4"/><stop offset="0.75" stop-color="#91abd7"/><stop offset="0.89" stop-color="#678cc7"/><stop offset="1" stop-color="#4270b9"/></linearGradient><linearGradient id="linear-gradient-5" x1="145.98" y1="316.4" x2="145.98" y2="166.07" gradientUnits="userSpaceOnUse"><stop offset="0" stop-color="#4270b9"/><stop offset="0.11" stop-color="#678cc7"/><stop offset="0.25" stop-color="#91abd7"/><stop offset="0.39" stop-color="#b4c5e4"/><stop offset="0.54" stop-color="#cfd9ee"/><stop offset="0.69" stop-color="#e2e8f5"/><stop offset="0.84" stop-color="#edf0fa"/><stop offset="1" stop-color="#f1f3fb"/></linearGradient><linearGradient id="linear-gradient-6" x1="78.51" y1="135.86" x2="167.95" y2="135.86" xlink:href="#linear-gradient-4"/><linearGradient id="linear-gradient-7" x1="19.49" y1="104.37" x2="128.35" y2="293.48" gradientUnits="userSpaceOnUse"><stop offset="0" stop-color="#7db9d3"/><stop offset="0.21" stop-color="#6495b8"/><stop offset="0.58" stop-color="#3d5b8e"/><stop offset="0.85" stop-color="#243873"/><stop offset="1" stop-color="#1b2a69"/></linearGradient><linearGradient id="linear-gradient-8" x1="84.19" y1="119.18" x2="117.81" y2="303.41" gradientUnits="userSpaceOnUse"><stop offset="0" stop-color="#5894b4"/><stop offset="0.46" stop-color="#375b8c"/><stop offset="0.81" stop-color="#233873"/><stop offset="1" stop-color="#1b2a69"/></linearGradient><linearGradient id="linear-gradient-9" x1="46.98" y1="276.83" x2="154.21" y2="206.96" gradientUnits="userSpaceOnUse"><stop offset="0"/><stop offset="1" stop-color="#fff"/></linearGradient></defs><g class="cls-1"><g id="Слой_2" data-name="Слой 2"><g id="Слой_1-2" data-name="Слой 1"><path class="cls-2" d="M283.19,226.31C226,263.11,124,317.38,124,317.38L168,173.15,309,90.49S308.36,210.11,283.19,226.31Z"/><path class="cls-3" d="M89.68,92.07s-7.29,9.87-30.4,7.78C24.84,96.73,11.21,82.66,11.21,82.66L152.28,0l78.48,9.42Z"/><path class="cls-4" d="M309,90.49,168,173.15s-17.24-4.44-50-36.15C92.72,112.66,89.68,92.07,89.68,92.07L230.76,9.42A196.32,196.32,0,0,0,262.16,60C281.84,82.66,309,90.49,309,90.49Z"/><path class="cls-5" d="M87.46,93.66,86.9,94l-6.15,3.57-.56.32-3.91,2.28C70,103.81,49.44,110.77,0,89.15l11.18-6.49C60.62,104.27,81.17,97.31,87.46,93.66Z"/><path class="cls-6" d="M135.18,310.88,124,317.38l.83-.51c30.74-19.52,31.68-50.23,31.93-137.22l11.18-6.5c-.25,87-1.19,117.7-31.93,137.22Q135.62,310.64,135.18,310.88Z"/><path class="cls-7" d="M78.51,98.57l11.17-6.5c.91,1.9,18.14,38,78.27,81.08l-11.18,6.5C96.63,136.51,79.41,100.47,78.51,98.57Z"/><path class="cls-8" d="M78.51,98.57c.9,1.9,18.12,37.94,78.26,81.08-.25,87-1.19,117.7-31.93,137.22-15,9.5-45.37,5.75-47,5.55-1.6-1.65-31.92-32.95-46.8-59.69C.55,207.84-.22,176.15,0,89.15,60.21,115.48,77.59,99.42,78.51,98.57Z"/><path class="cls-9" d="M74.71,118.56c-.79.72-15.6,14.42-66.92-8-.21,74.18.44,101.2,26.48,148C47,281.34,72.8,308,74.16,309.44c1.37.17,27.29,3.37,40.06-4.74,26.21-16.64,27-42.81,27.22-117C90.17,150.92,75.48,120.18,74.71,118.56Z"/><path class="cls-10" d="M74.71,118.56c.77,1.62,15.46,32.36,66.73,69.14-.2,74.19-1,100.36-27.22,117-12.77,8.11-38.69,4.91-40.06,4.74C74.71,212.35,74.52,178.84,74.71,118.56Z"/><path class="cls-11" d="M74.52,118.92l-1.71,1c-5.36,3.11-22.89,9-65-9.38l1.72-1C51.64,128,69.16,122,74.52,118.92Z"/><path class="cls-11" d="M115.22,304.14l-1.72,1c.25-.14.48-.29.72-.44,26.21-16.64,27-42.81,27.22-117l1.72-1c-.21,74.19-1,100.37-27.22,117Z"/><path class="cls-11" d="M74.71,118.56l1.71-1c.77,1.62,15.47,32.36,66.74,69.14l-1.72,1C90.17,150.92,75.48,120.18,74.71,118.56Z"/><path class="cls-12" d="M114.48,166.17a319.34,319.34,0,0,0,27,21.53c-.2,74.19-1,100.36-27.22,117-12.77,8.11-38.69,4.91-40.06,4.74C72.8,308,47,281.34,34.27,258.54c1.89-39.08,40.32-71.38,40.32-71.38S99.58,170.52,114.48,166.17Z"/></g></g></g></svg>