<svg xmlns="http://www.w3.org/2000/svg" width="40" height="18.25" viewBox="0 0 40 18.25"><defs><style>.cls-1{fill:#3855cb;}</style></defs><g id="Слой_2" data-name="Слой 2"><g id="Слой_1-2" data-name="Слой 1"><path class="cls-1" d="M25.4,2.39A1.2,1.2,0,1,0,25.4,0H16.27a1.2,1.2,0,0,0,0,2.39h3.37V15.85H16.27a1.2,1.2,0,0,0,0,2.39H25.4a1.2,1.2,0,1,0,0-2.39H22V2.39Z"/><path class="cls-1" d="M31.1,3a.39.39,0,0,1,0-.42.38.38,0,0,1,.35-.22h5.1a.42.42,0,0,1,.32.16l1,1.4a1.2,1.2,0,1,0,1.93-1.41l-1-1.39A2.78,2.78,0,0,0,36.51,0h-5.1a2.78,2.78,0,0,0-2.2,4.48l8.24,10.74a.39.39,0,0,1,0,.42.38.38,0,0,1-.35.22H32a.42.42,0,0,1-.32-.16l-1-1.19A1.19,1.19,0,1,0,28.91,16l.9,1.1A2.81,2.81,0,0,0,32,18.25h5.1a2.79,2.79,0,0,0,2.21-4.48Z"/><path class="cls-1" d="M7.47,2.4h4.19a1.2,1.2,0,0,0,0-2.39H7.37A2.21,2.21,0,0,0,5.54,1l-5,6.45a2.78,2.78,0,0,0,0,3.39l5,6.45a2.21,2.21,0,0,0,1.83,1h4.29a1.2,1.2,0,0,0,0-2.39H7.47l-5-6.49a.4.4,0,0,1,0-.49Z"/></g></g></svg>