<svg xmlns="http://www.w3.org/2000/svg" width="295.83" height="92.45" viewBox="0 0 295.83 92.45"><defs><style>.cls-1{fill:#35d8bc;}.cls-2{fill:#3855cb;}.cls-3,.cls-4,.cls-5{fill:#adb4ce;}.cls-3{opacity:0.3;}.cls-4{opacity:0.4;}.cls-5{opacity:0.5;}.cls-6{fill:#b0fff2;}</style></defs><g id="Слой_2" data-name="Слой 2"><g id="Слой_1-2" data-name="Слой 1"><path class="cls-1" d="M215.77,70.14h5.47v1.5H214V57.7h1.76Z"/><path class="cls-1" d="M228.43,71.64a3.35,3.35,0,0,1-.22-1.13,2.69,2.69,0,0,1-2.3,1.33,2.74,2.74,0,0,1-3-3A3.13,3.13,0,0,1,224,66.31a4.41,4.41,0,0,1,2.94-1h1.25v-1.1a1.74,1.74,0,0,0-.42-1.32,2,2,0,0,0-2.5.06,1.51,1.51,0,0,0-.47,1.15h-1.7a2.8,2.8,0,0,1,.47-1.52,3.21,3.21,0,0,1,1.26-1.13,3.74,3.74,0,0,1,1.78-.41,3.38,3.38,0,0,1,2.42.79,3.07,3.07,0,0,1,.84,2.3v5.23a6.43,6.43,0,0,0,.33,2.08v.15Zm-2.27-1.35a2.34,2.34,0,0,0,2-1.2V66.61h-1a3.26,3.26,0,0,0-1.91.55,1.72,1.72,0,0,0-.7,1.46A1.88,1.88,0,0,0,225,69.9,1.53,1.53,0,0,0,226.16,70.29Z"/><path class="cls-1" d="M240,67a6.3,6.3,0,0,1-.87,3.65,2.91,2.91,0,0,1-2.53,1.23,2.69,2.69,0,0,1-2.47-1.42L234,71.64H232.5V56.93h1.68v5.49a2.67,2.67,0,0,1,2.4-1.33,2.93,2.93,0,0,1,2.56,1.2,6.41,6.41,0,0,1,.86,3.64Zm-1.69-1a5,5,0,0,0-.51-2.62,1.84,1.84,0,0,0-1.66-.78,2.08,2.08,0,0,0-2,1.42v4.93a2.09,2.09,0,0,0,2,1.4,1.82,1.82,0,0,0,1.65-.8,4.91,4.91,0,0,0,.5-2.5Z"/><path class="cls-1" d="M241.81,66a5.45,5.45,0,0,1,1.1-3.58,3.88,3.88,0,0,1,5.79,0,5.34,5.34,0,0,1,1.13,3.5V67a5.43,5.43,0,0,1-1.09,3.56,3.88,3.88,0,0,1-5.8,0,5.29,5.29,0,0,1-1.13-3.45Zm1.7,1a4.36,4.36,0,0,0,.62,2.51,2,2,0,0,0,1.69.92q2.25,0,2.31-3.24V66a4.38,4.38,0,0,0-.63-2.51,2,2,0,0,0-3.37,0,4.37,4.37,0,0,0-.62,2.5Z"/><path class="cls-1" d="M256.3,62.87a3.8,3.8,0,0,0-.77-.07,1.86,1.86,0,0,0-1.82,1.43v7.41H252V61.28h1.65l0,1a2.11,2.11,0,0,1,1.93-1.24,1.51,1.51,0,0,1,.67.13Z"/><path class="cls-1" d="M263,71.64a4,4,0,0,1-.22-1.13,2.69,2.69,0,0,1-2.3,1.33,3,3,0,0,1-2.2-.79,3,3,0,0,1-.79-2.23,3.13,3.13,0,0,1,1.08-2.51,4.38,4.38,0,0,1,2.94-1h1.24v-1.1a1.78,1.78,0,0,0-.41-1.32,2,2,0,0,0-2.5.06,1.52,1.52,0,0,0-.48,1.15h-1.69a2.78,2.78,0,0,1,.46-1.52,3.3,3.3,0,0,1,1.27-1.13,3.72,3.72,0,0,1,1.77-.41,3.36,3.36,0,0,1,2.42.79,3.07,3.07,0,0,1,.85,2.3v5.23a6.19,6.19,0,0,0,.32,2.08v.15Zm-2.26-1.35A2.24,2.24,0,0,0,262,70a2.1,2.1,0,0,0,.82-.86V66.61h-1a3.22,3.22,0,0,0-1.9.55,1.69,1.69,0,0,0-.7,1.46,1.94,1.94,0,0,0,.35,1.28A1.57,1.57,0,0,0,260.76,70.29Z"/><path class="cls-1" d="M269.31,58.77v2.51h1.56v1.37h-1.56v6.43a1.69,1.69,0,0,0,.2.93.74.74,0,0,0,.69.31,2.35,2.35,0,0,0,.68-.11l0,1.43a3.66,3.66,0,0,1-1.18.2,1.78,1.78,0,0,1-1.53-.72,3.4,3.4,0,0,1-.53-2V62.65H266V61.28h1.58V58.77Z"/><path class="cls-1" d="M272.25,66a5.45,5.45,0,0,1,1.09-3.58,3.89,3.89,0,0,1,5.8,0,5.34,5.34,0,0,1,1.13,3.5V67a5.37,5.37,0,0,1-1.1,3.56,3.58,3.58,0,0,1-2.91,1.32,3.62,3.62,0,0,1-2.89-1.28,5.29,5.29,0,0,1-1.12-3.45Zm1.69,1a4.35,4.35,0,0,0,.63,2.51,2,2,0,0,0,1.69.92q2.25,0,2.31-3.24V66a4.38,4.38,0,0,0-.63-2.51,2,2,0,0,0-1.7-.93,1.93,1.93,0,0,0-1.67.93,4.36,4.36,0,0,0-.63,2.5Z"/><path class="cls-1" d="M286.73,62.87a3.64,3.64,0,0,0-.76-.07,1.86,1.86,0,0,0-1.82,1.43v7.41h-1.7V61.28h1.65l0,1a2.09,2.09,0,0,1,1.92-1.24,1.45,1.45,0,0,1,.67.13Z"/><path class="cls-1" d="M291.43,68.83l1.89-7.55h1.8l-3.4,11.83a4.54,4.54,0,0,1-1.08,2,2.18,2.18,0,0,1-1.59.69,3.43,3.43,0,0,1-.88-.15V74.24l.37,0a1.76,1.76,0,0,0,1.16-.35,2.45,2.45,0,0,0,.67-1.21l.34-1.16-3-10.28h1.85Z"/><path class="cls-2" d="M146.52,29.28a3.7,3.7,0,0,0-3-1.52h-6.77a3.69,3.69,0,0,0-3,1.52l-1.68,2.32a3.65,3.65,0,0,0-.71,2.16v9a3.7,3.7,0,0,0,.71,2.17l1.68,2.32a3.69,3.69,0,0,0,3,1.52h6.77a3.7,3.7,0,0,0,3-1.52l1.68-2.32a3.69,3.69,0,0,0,.7-2.17v-9a3.66,3.66,0,0,0-.7-2.16Zm-1.63,13.35-1.52,2.09h-6.43l-1.52-2.09V33.87l1.52-2.09h6.43l1.52,2.09Z"/><path class="cls-2" d="M197.43,29.28a3.7,3.7,0,0,0-3-1.52h-6.77a3.7,3.7,0,0,0-3,1.52L183,31.6a3.64,3.64,0,0,0-.7,2.16V58.47a2,2,0,1,0,4,0V48.74h8.12a3.7,3.7,0,0,0,3-1.52l1.68-2.32a3.69,3.69,0,0,0,.7-2.17v-9a3.64,3.64,0,0,0-.7-2.16ZM195.8,42.63l-1.52,2.09h-7.95V33.87l1.52-2.09h6.43l1.52,2.09Z"/><path class="cls-2" d="M239.23,29.28a3.69,3.69,0,0,0-3-1.52h-6.76a3.69,3.69,0,0,0-3,1.52l-1.69,2.32a3.66,3.66,0,0,0-.7,2.16v9a3.69,3.69,0,0,0,.7,2.17l1.69,2.32a3.69,3.69,0,0,0,3,1.52h10.12a2,2,0,0,0,0-4h-10l-1.52-2.09V40.26h9.8a3.68,3.68,0,0,0,3.68-3.68V33.76a3.64,3.64,0,0,0-.7-2.16Zm-1.63,7h-9.46V33.87l1.52-2.09h6.42l1.52,2.09Z"/><path class="cls-2" d="M219.44,44.7h-5.67v-23A3.68,3.68,0,0,0,210.09,18h-4a2,2,0,1,0,0,4h3.66V44.7h-5.67a2,2,0,0,0,0,4h15.36a2,2,0,0,0,0-4Z"/><path class="cls-2" d="M270.89,27.76a2,2,0,0,0-2,2V46.71a2,2,0,1,0,4,0V29.77A2,2,0,0,0,270.89,27.76Z"/><path class="cls-2" d="M174.37,29.28a3.7,3.7,0,0,0-3-1.52h-2.53a3.69,3.69,0,0,0-3,1.52l-.38.52-.38-.52a3.69,3.69,0,0,0-3-1.52h-2.53a3.69,3.69,0,0,0-3,1.52L155,31.6a3.65,3.65,0,0,0-.71,2.16V47.12a2,2,0,1,0,4,0V33.87l1.52-2.09H162l1.52,2.09V47.12a2,2,0,1,0,4,0V33.87L169,31.78h2.19l1.52,2.09V47.12a2,2,0,1,0,4,0V33.76a3.64,3.64,0,0,0-.7-2.16Z"/><path class="cls-2" d="M263.13,28.23a2,2,0,0,0-2.83.25l-5.52,6.62-5.52-6.62a2,2,0,0,0-3.09,2.58l6,7.18-6,7.18a2,2,0,0,0,.26,2.83,2,2,0,0,0,1.28.47,2,2,0,0,0,1.55-.72l5.52-6.62L260.3,48a2,2,0,0,0,1.54.72,2,2,0,0,0,1.29-.47,2,2,0,0,0,.25-2.83l-6-7.18,6-7.18A2,2,0,0,0,263.13,28.23Z"/><path class="cls-2" d="M283,31.78H290a.67.67,0,0,1,.54.27l1.7,2.35A2,2,0,1,0,295.44,32l-1.7-2.34A4.69,4.69,0,0,0,290,27.76H283a4.3,4.3,0,0,0-2.74,7.62l10.66,8.83a.25.25,0,0,1,.08.32.25.25,0,0,1-.27.19h-7a.67.67,0,0,1-.54-.27l-1.63-2A2,2,0,1,0,278.5,45L280,46.86a4.69,4.69,0,0,0,3.75,1.88h7a4.31,4.31,0,0,0,2.75-7.62l-10.66-8.83a.25.25,0,0,1-.09-.32A.26.26,0,0,1,283,31.78Z"/><path class="cls-2" d="M125.82,31.78a2,2,0,1,0,0-4h-4.59a3.11,3.11,0,0,0-2.54,1.35L113.4,36a3.69,3.69,0,0,0,0,4.52l5.29,6.88a3.11,3.11,0,0,0,2.54,1.35h4.59a2,2,0,1,0,0-4h-4.11l-5-6.47,5-6.47Z"/><path class="cls-2" d="M270.89,18.05a2.9,2.9,0,1,0,2.89,2.89A2.9,2.9,0,0,0,270.89,18.05Z"/><polygon class="cls-3" points="53.68 82.04 13.93 59.09 13.93 0 53.68 22.95 53.68 82.04"/><polygon class="cls-4" points="46.71 87.24 6.97 64.3 6.97 5.21 46.71 28.15 46.71 87.24"/><polygon class="cls-5" points="39.74 92.45 0 69.5 0 10.41 39.74 33.36 39.74 92.45"/><path class="cls-6" d="M35.86,60.71h0a.19.19,0,0,1-.19-.19v-.41a.21.21,0,0,1,.19-.21c.11,0,.19.06.19.16v.47A.19.19,0,0,1,35.86,60.71Z"/><polygon class="cls-6" points="36.05 60.3 35.67 60.3 35.67 60.08 35.86 60.08 35.67 60.07 35.67 60.07 35.67 60.07 36.05 60.06 36.05 60.06 36.05 60.06 35.86 60.08 36.05 60.08 36.05 60.3"/><polygon class="cls-6" points="36.05 60.52 35.67 60.52 35.67 60.3 36.05 60.3 36.05 60.52"/><path class="cls-6" d="M31.79,72.62l-.08,0a.19.19,0,0,1-.09-.25c.26-.55.5-1.13.72-1.73s.43-1.23.61-1.87a.19.19,0,1,1,.36.1c-.18.65-.39,1.29-.62,1.9S32.22,72,32,72.51A.18.18,0,0,1,31.79,72.62Z"/><path class="cls-6" d="M35.86,60.25a.19.19,0,0,1-.19-.18,25.42,25.42,0,0,0-.74-5.64,33.44,33.44,0,0,0-2-5.72.2.2,0,0,1,.09-.25.19.19,0,0,1,.25.1,33.28,33.28,0,0,1,2,5.78,25.66,25.66,0,0,1,.76,5.72.18.18,0,0,1-.19.19Z"/><path class="cls-6" d="M33.13,69h-.05a.19.19,0,0,1-.13-.23,30.43,30.43,0,0,0,.89-4.39,39.3,39.3,0,0,0,.3-5,.19.19,0,1,1,.38,0,40.19,40.19,0,0,1-.31,5,30.06,30.06,0,0,1-.9,4.44A.18.18,0,0,1,33.13,69Z"/><path class="cls-6" d="M35.86,60.71h0a.19.19,0,0,1-.19-.19v-.45a25.42,25.42,0,0,0-.74-5.64,33.44,33.44,0,0,0-2-5.72.2.2,0,0,1,.09-.25.19.19,0,0,1,.25.1,33.28,33.28,0,0,1,2,5.78,25.66,25.66,0,0,1,.76,5.72v.47A.19.19,0,0,1,35.86,60.71Z"/><path class="cls-6" d="M33.13,48.82a.18.18,0,0,1-.17-.11c-.37-.82-.78-1.65-1.21-2.46s-.9-1.6-1.39-2.37a.18.18,0,1,1,.31-.2c.5.78,1,1.58,1.41,2.39s.85,1.65,1.22,2.49a.2.2,0,0,1-.09.25Z"/><path class="cls-6" d="M29.17,73.34a.17.17,0,0,1-.1,0,.18.18,0,0,1-.06-.26c.24-.38.48-.79.7-1.2s.44-.85.63-1.29a.18.18,0,0,1,.25-.09.18.18,0,0,1,.09.24A14.44,14.44,0,0,1,30,72c-.23.43-.47.84-.71,1.23A.19.19,0,0,1,29.17,73.34Z"/><path class="cls-6" d="M31.79,72.62l-.08,0a.19.19,0,0,1-.09-.25c.26-.55.5-1.13.72-1.73s.43-1.23.61-1.87a.19.19,0,1,1,.36.1c-.18.65-.39,1.29-.62,1.9S32.22,72,32,72.51A.18.18,0,0,1,31.79,72.62Z"/><path class="cls-6" d="M33.64,54.22a.18.18,0,0,1-.18-.14,30.17,30.17,0,0,0-1.91-5.41.19.19,0,0,1,.1-.25.18.18,0,0,1,.24.09A30.42,30.42,0,0,1,33.82,54a.19.19,0,0,1-.13.23Z"/><path class="cls-6" d="M33.13,48.82a.18.18,0,0,1-.17-.11c-.37-.82-.78-1.65-1.21-2.46s-.9-1.6-1.39-2.37a.18.18,0,1,1,.31-.2c.5.78,1,1.58,1.41,2.39s.85,1.65,1.22,2.49a.2.2,0,0,1-.09.25Z"/><path class="cls-6" d="M33.13,69h-.05a.19.19,0,0,1-.13-.23,30.43,30.43,0,0,0,.89-4.39,39.3,39.3,0,0,0,.3-5,.19.19,0,1,1,.38,0,40.19,40.19,0,0,1-.31,5,30.06,30.06,0,0,1-.9,4.44A.18.18,0,0,1,33.13,69Z"/><path class="cls-6" d="M30.51,70.82h-.07a.19.19,0,0,1-.1-.25c.24-.52.46-1.07.66-1.64s.38-1.15.54-1.75a.19.19,0,0,1,.23-.13.2.2,0,0,1,.14.23c-.17.61-.36,1.21-.56,1.78s-.43,1.13-.67,1.66A.18.18,0,0,1,30.51,70.82Z"/><path class="cls-6" d="M32.51,63.39h0a.18.18,0,0,1-.16-.21,37.76,37.76,0,0,0,.28-4.47v-.37a.18.18,0,0,1,.19-.18.18.18,0,0,1,.18.18v.37a36.57,36.57,0,0,1-.28,4.52A.19.19,0,0,1,32.51,63.39Z"/><path class="cls-6" d="M33.64,54.22a.18.18,0,0,1-.18-.14,30.17,30.17,0,0,0-1.91-5.41.19.19,0,0,1,.1-.25.18.18,0,0,1,.24.09A30.42,30.42,0,0,1,33.82,54a.19.19,0,0,1-.13.23Z"/><polygon class="cls-6" points="32.98 58.71 32.61 58.71 32.61 58.53 32.99 58.53 32.98 58.71"/><polygon class="cls-6" points="32.99 58.53 32.61 58.53 32.61 58.34 32.98 58.34 32.99 58.53"/><path class="cls-6" d="M26.67,73.31a.21.21,0,0,1-.12,0,.18.18,0,0,1,0-.26c.24-.29.47-.6.69-.91s.43-.64.64-1a.19.19,0,0,1,.26-.06.2.2,0,0,1,.06.26c-.21.34-.43.68-.66,1s-.46.63-.7.93A.21.21,0,0,1,26.67,73.31Z"/><path class="cls-6" d="M29.17,73.34a.17.17,0,0,1-.1,0,.18.18,0,0,1-.06-.26c.24-.38.48-.79.7-1.2s.44-.85.63-1.29a.18.18,0,0,1,.25-.09.18.18,0,0,1,.09.24A14.44,14.44,0,0,1,30,72c-.23.43-.47.84-.71,1.23A.19.19,0,0,1,29.17,73.34Z"/><path class="cls-6" d="M30.53,41.73a.21.21,0,0,1-.16-.08c-.43-.62-.89-1.23-1.35-1.82a.19.19,0,0,1,0-.26.18.18,0,0,1,.26,0c.47.59.93,1.21,1.37,1.83a.2.2,0,0,1,0,.27A.23.23,0,0,1,30.53,41.73Z"/><path class="cls-6" d="M34.53,48.87a.18.18,0,0,1-.17-.11c-.38-.88-.81-1.77-1.27-2.64a.2.2,0,0,1,.08-.26.2.2,0,0,1,.26.08c.46.88.89,1.78,1.28,2.67a.2.2,0,0,1-.1.25Z"/><path class="cls-6" d="M29.17,39.9a.18.18,0,0,1-.15-.07c-.39-.5-.8-1-1.21-1.46S27,37.44,26.54,37a.19.19,0,0,1,0-.26.2.2,0,0,1,.27,0c.44.45.87.92,1.28,1.39s.83,1,1.22,1.48a.18.18,0,0,1,0,.26A.15.15,0,0,1,29.17,39.9Z"/><path class="cls-6" d="M30.51,44a.16.16,0,0,1-.15-.09c-.39-.6-.79-1.2-1.2-1.76s-.84-1.13-1.29-1.68a.19.19,0,0,1,0-.26.18.18,0,0,1,.26,0c.45.54.89,1.11,1.3,1.69s.82,1.17,1.21,1.78a.18.18,0,0,1-.06.26A.17.17,0,0,1,30.51,44Z"/><path class="cls-6" d="M30.57,46.5a.21.21,0,0,1-.17-.1c-.41-.74-.85-1.48-1.32-2.18a.19.19,0,0,1,.05-.26.18.18,0,0,1,.26,0c.47.72.92,1.46,1.34,2.21a.18.18,0,0,1-.07.25A.16.16,0,0,1,30.57,46.5Z"/><path class="cls-6" d="M30.51,44a.16.16,0,0,1-.15-.09c-.39-.6-.79-1.2-1.2-1.76s-.84-1.13-1.29-1.68a.19.19,0,0,1,0-.26.18.18,0,0,1,.26,0c.45.54.89,1.11,1.3,1.69s.82,1.17,1.21,1.78a.18.18,0,0,1-.06.26A.17.17,0,0,1,30.51,44Z"/><path class="cls-6" d="M30.51,70.82h-.07a.19.19,0,0,1-.1-.25c.24-.52.46-1.07.66-1.64s.38-1.15.54-1.75a.19.19,0,0,1,.23-.13.2.2,0,0,1,.14.23c-.17.61-.36,1.21-.56,1.78s-.43,1.13-.67,1.66A.18.18,0,0,1,30.51,70.82Z"/><path class="cls-6" d="M28,71.4a.17.17,0,0,1-.1,0,.18.18,0,0,1-.06-.26c.22-.36.43-.75.63-1.14s.39-.8.57-1.22a.19.19,0,0,1,.35.15c-.18.43-.38.85-.58,1.24s-.43.79-.65,1.17A.22.22,0,0,1,28,71.4Z"/><path class="cls-6" d="M32.8,58.53a.18.18,0,0,1-.19-.18,20.47,20.47,0,0,0-.67-4.83.19.19,0,0,1,.13-.23.2.2,0,0,1,.23.14A20.2,20.2,0,0,1,33,58.34a.18.18,0,0,1-.18.19Z"/><path class="cls-6" d="M30.57,46.5a.21.21,0,0,1-.17-.1c-.41-.74-.85-1.48-1.32-2.18a.19.19,0,0,1,.05-.26.18.18,0,0,1,.26,0c.47.72.92,1.46,1.34,2.21a.18.18,0,0,1-.07.25A.16.16,0,0,1,30.57,46.5Z"/><path class="cls-6" d="M32.51,63.39h0a.18.18,0,0,1-.16-.21,37.76,37.76,0,0,0,.28-4.47.19.19,0,0,1,.19-.19h0a.18.18,0,0,1,.18.19,36.57,36.57,0,0,1-.28,4.52A.19.19,0,0,1,32.51,63.39Z"/><path class="cls-6" d="M29.24,69h-.08a.2.2,0,0,1-.1-.25c.21-.49.41-1,.59-1.53s.34-1.08.49-1.64a.19.19,0,0,1,.36.1c-.15.56-.31,1.12-.5,1.66s-.38,1.06-.59,1.56A.18.18,0,0,1,29.24,69Z"/><path class="cls-6" d="M30.32,65.82h-.05a.19.19,0,0,1-.13-.23,28.34,28.34,0,0,0,.7-3.75,35.26,35.26,0,0,0,.24-4.19.19.19,0,1,1,.37,0,36.24,36.24,0,0,1-.24,4.24,29.41,29.41,0,0,1-.71,3.8A.19.19,0,0,1,30.32,65.82Z"/><path class="cls-6" d="M32.8,58.9a.19.19,0,0,1-.19-.19v-.37a20.46,20.46,0,0,0-.67-4.82.19.19,0,0,1,.13-.23.2.2,0,0,1,.23.14A20.2,20.2,0,0,1,33,58.34v.37A.19.19,0,0,1,32.8,58.9Z"/><path class="cls-6" d="M24.31,72.78a.2.2,0,0,1-.14-.06.18.18,0,0,1,0-.26c.23-.23.46-.47.68-.72s.44-.51.64-.77a.19.19,0,0,1,.27,0,.19.19,0,0,1,0,.26c-.21.27-.43.54-.66.8s-.46.5-.7.74A.21.21,0,0,1,24.31,72.78Z"/><path class="cls-6" d="M26.67,73.31a.21.21,0,0,1-.12,0,.18.18,0,0,1,0-.26c.24-.29.47-.6.69-.91s.43-.64.64-1a.19.19,0,0,1,.26-.06.2.2,0,0,1,.06.26c-.21.34-.43.68-.66,1s-.46.63-.7.93A.21.21,0,0,1,26.67,73.31Z"/><path class="cls-6" d="M26.67,37.05a.18.18,0,0,1-.13-.06c-.38-.39-.77-.77-1.16-1.13s-.8-.73-1.19-1.06a.19.19,0,0,1,0-.26.2.2,0,0,1,.27,0c.4.34.8.7,1.21,1.07s.78.76,1.17,1.15a.19.19,0,0,1-.14.32Z"/><path class="cls-6" d="M28,40.51a.18.18,0,0,1-.15-.07c-.37-.46-.76-.91-1.15-1.33a.19.19,0,0,1,0-.27.18.18,0,0,1,.26,0c.39.43.78.88,1.16,1.35a.18.18,0,0,1,0,.26A.19.19,0,0,1,28,40.51Z"/><path class="cls-6" d="M29.24,44.3a.19.19,0,0,1-.16-.08q-.54-.82-1.14-1.62a.19.19,0,0,1,0-.26.2.2,0,0,1,.27,0c.39.53.78,1.08,1.14,1.63a.18.18,0,0,1-.05.26A.19.19,0,0,1,29.24,44.3Z"/><path class="cls-6" d="M28,40.51a.18.18,0,0,1-.15-.07c-.37-.46-.76-.91-1.15-1.33a.19.19,0,0,1,0-.27.18.18,0,0,1,.26,0c.39.43.78.88,1.16,1.35a.18.18,0,0,1,0,.26A.19.19,0,0,1,28,40.51Z"/><path class="cls-6" d="M25.65,71.27a.15.15,0,0,1-.11,0,.18.18,0,0,1,0-.26c.22-.29.43-.58.63-.88s.4-.62.58-.93a.18.18,0,1,1,.32.18c-.18.33-.38.65-.59,1s-.42.61-.64.9A.21.21,0,0,1,25.65,71.27Z"/><path class="cls-6" d="M28,71.4a.17.17,0,0,1-.1,0,.18.18,0,0,1-.06-.26c.22-.36.43-.75.63-1.14s.39-.8.57-1.22a.19.19,0,0,1,.35.15c-.18.43-.38.85-.58,1.24s-.43.79-.65,1.17A.22.22,0,0,1,28,71.4Z"/><path class="cls-6" d="M29.24,69h-.08a.2.2,0,0,1-.1-.25c.21-.49.41-1,.59-1.53s.34-1.08.49-1.64a.19.19,0,0,1,.36.1c-.15.56-.31,1.12-.5,1.66s-.38,1.06-.59,1.56A.18.18,0,0,1,29.24,69Z"/><path class="cls-6" d="M26.87,69.44a.16.16,0,0,1-.09,0,.17.17,0,0,1-.07-.25c.19-.35.38-.71.56-1.08s.36-.76.51-1.15a.2.2,0,0,1,.25-.11.2.2,0,0,1,.1.25c-.16.39-.33.79-.52,1.17s-.38.75-.58,1.1A.17.17,0,0,1,26.87,69.44Z"/><path class="cls-6" d="M29.22,46.66a.18.18,0,0,1-.16-.1c-.39-.67-.82-1.34-1.26-2a.19.19,0,0,1,.05-.26.18.18,0,0,1,.26,0c.45.65.88,1.33,1.27,2a.19.19,0,0,1-.07.26Z"/><path class="cls-6" d="M31.27,57.83a.18.18,0,0,1-.19-.19,17.74,17.74,0,0,0-.62-4.48,24.09,24.09,0,0,0-1.71-4.53.19.19,0,0,1,.33-.17,24.42,24.42,0,0,1,1.74,4.6,18,18,0,0,1,.63,4.58A.18.18,0,0,1,31.27,57.83Z"/><path class="cls-6" d="M30.32,65.82h-.05a.19.19,0,0,1-.13-.23,28.34,28.34,0,0,0,.7-3.75,35.26,35.26,0,0,0,.24-4.19.19.19,0,1,1,.37,0,36.24,36.24,0,0,1-.24,4.24,29.41,29.41,0,0,1-.71,3.8A.19.19,0,0,1,30.32,65.82Z"/><path class="cls-6" d="M28,67.19l-.07,0a.19.19,0,0,1-.11-.24c.19-.46.36-.94.52-1.43s.3-1,.43-1.52a.19.19,0,1,1,.37.09c-.14.53-.28,1.05-.44,1.55s-.34,1-.53,1.45A.19.19,0,0,1,28,67.19Z"/><path class="cls-6" d="M28.91,64.21h0a.2.2,0,0,1-.14-.23,27.33,27.33,0,0,0,.61-3.42,33.24,33.24,0,0,0,.21-3.8.18.18,0,0,1,.18-.19.18.18,0,0,1,.19.19,34.09,34.09,0,0,1-.21,3.84,28.49,28.49,0,0,1-.61,3.47A.2.2,0,0,1,28.91,64.21Z"/><path class="cls-6" d="M31.27,57.83a.18.18,0,0,1-.19-.19,17.74,17.74,0,0,0-.62-4.48,24.09,24.09,0,0,0-1.71-4.53.19.19,0,0,1,.33-.17,24.42,24.42,0,0,1,1.74,4.6,18,18,0,0,1,.63,4.58A.18.18,0,0,1,31.27,57.83Z"/><path class="cls-6" d="M22.08,71.9a.19.19,0,0,1-.12-.33c.23-.19.46-.38.68-.58s.44-.42.64-.63a.19.19,0,0,1,.27,0,.2.2,0,0,1,0,.27c-.21.22-.43.43-.66.65s-.46.4-.7.59A.15.15,0,0,1,22.08,71.9Z"/><path class="cls-6" d="M24.31,72.78a.2.2,0,0,1-.14-.06.18.18,0,0,1,0-.26c.23-.23.46-.47.68-.72s.44-.51.64-.77a.19.19,0,0,1,.27,0,.19.19,0,0,1,0,.26c-.21.27-.43.54-.66.8s-.46.5-.7.74A.21.21,0,0,1,24.31,72.78Z"/><path class="cls-6" d="M24.31,34.84a.17.17,0,0,1-.12,0c-.36-.3-.73-.6-1.1-.88s-.75-.55-1.12-.81a.18.18,0,0,1,0-.26.2.2,0,0,1,.26-.05c.38.26.76.54,1.14.82s.75.59,1.11.89a.19.19,0,0,1,0,.27A.2.2,0,0,1,24.31,34.84Z"/><path class="cls-6" d="M25.65,37.91a.18.18,0,0,1-.13-.06c-.35-.34-.72-.69-1.09-1s-.76-.65-1.13-.95a.19.19,0,0,1,0-.26.18.18,0,0,1,.26,0c.38.3.77.62,1.15,1s.74.68,1.1,1a.17.17,0,0,1,0,.26A.16.16,0,0,1,25.65,37.91Z"/><path class="cls-6" d="M25.77,39.93a.19.19,0,0,1-.13-.06c-.37-.39-.75-.77-1.14-1.13a.19.19,0,0,1,0-.26.19.19,0,0,1,.27,0c.39.36.77.74,1.15,1.14a.19.19,0,0,1-.14.32Z"/><path class="cls-6" d="M25.65,37.91a.18.18,0,0,1-.13-.06c-.35-.34-.72-.69-1.09-1s-.76-.65-1.13-.95a.19.19,0,0,1,0-.26.18.18,0,0,1,.26,0c.38.3.77.62,1.15,1s.74.68,1.1,1a.17.17,0,0,1,0,.26A.16.16,0,0,1,25.65,37.91Z"/><path class="cls-6" d="M23.42,70.67a.15.15,0,0,1-.13,0,.18.18,0,0,1,0-.26c.22-.23.42-.46.62-.7s.39-.49.58-.75a.19.19,0,0,1,.26,0,.18.18,0,0,1,0,.26c-.19.26-.39.52-.59.77s-.42.48-.64.72A.15.15,0,0,1,23.42,70.67Z"/><path class="cls-6" d="M25.65,71.27a.15.15,0,0,1-.11,0,.18.18,0,0,1,0-.26c.22-.29.43-.58.63-.88s.4-.62.58-.93a.18.18,0,1,1,.32.18c-.18.33-.38.65-.59,1s-.42.61-.64.9A.21.21,0,0,1,25.65,71.27Z"/><path class="cls-6" d="M24.63,69.21a.21.21,0,0,1-.11,0,.19.19,0,0,1,0-.26c.2-.28.38-.56.56-.84s.35-.58.51-.89a.21.21,0,0,1,.26-.08.19.19,0,0,1,.07.26c-.17.32-.35.63-.52.91s-.37.58-.58.86A.18.18,0,0,1,24.63,69.21Z"/><path class="cls-6" d="M26.87,69.44a.16.16,0,0,1-.09,0,.17.17,0,0,1-.07-.25c.19-.35.38-.71.56-1.08s.36-.76.51-1.15a.2.2,0,0,1,.25-.11.2.2,0,0,1,.1.25c-.16.39-.33.79-.52,1.17s-.38.75-.58,1.1A.17.17,0,0,1,26.87,69.44Z"/><path class="cls-6" d="M28,44.65a.21.21,0,0,1-.16-.08c-.34-.5-.7-1-1.07-1.46s-.76-.93-1.15-1.37a.2.2,0,0,1,0-.27.19.19,0,0,1,.27,0c.4.44.79.91,1.17,1.39s.73,1,1.08,1.48a.18.18,0,0,1-.05.26A.19.19,0,0,1,28,44.65Z"/><path class="cls-6" d="M25.77,39.93a.19.19,0,0,1-.13-.06c-.37-.39-.75-.77-1.14-1.13a.19.19,0,0,1,0-.26.19.19,0,0,1,.27,0c.39.36.77.74,1.15,1.14a.19.19,0,0,1-.14.32Z"/><path class="cls-6" d="M28,44.65a.21.21,0,0,1-.16-.08c-.34-.5-.7-1-1.07-1.46s-.76-.93-1.15-1.37a.2.2,0,0,1,0-.27.19.19,0,0,1,.27,0c.4.44.79.91,1.17,1.39s.73,1,1.08,1.48a.18.18,0,0,1-.05.26A.19.19,0,0,1,28,44.65Z"/><path class="cls-6" d="M28.91,48.73a.18.18,0,0,1-.16-.1c-.33-.65-.67-1.28-1-1.89s-.77-1.21-1.18-1.79a.19.19,0,1,1,.3-.22c.42.58.83,1.2,1.2,1.82s.73,1.26,1,1.91a.18.18,0,0,1-.08.25A.15.15,0,0,1,28.91,48.73Z"/><path class="cls-6" d="M28,67.19l-.07,0a.19.19,0,0,1-.11-.24c.19-.46.36-.94.52-1.43s.3-1,.43-1.52a.19.19,0,1,1,.37.09c-.14.53-.28,1.05-.44,1.55s-.34,1-.53,1.45A.19.19,0,0,1,28,67.19Z"/><path class="cls-6" d="M25.72,67.46a.16.16,0,0,1-.09,0,.19.19,0,0,1-.08-.25q.27-.48.51-1c.15-.35.3-.71.44-1.08a.19.19,0,1,1,.36.14c-.15.37-.3.74-.46,1.1s-.34.71-.52,1A.18.18,0,0,1,25.72,67.46Z"/><path class="cls-6" d="M28.91,64.21h0a.2.2,0,0,1-.14-.23,27.33,27.33,0,0,0,.61-3.42,33.24,33.24,0,0,0,.21-3.8.18.18,0,0,1,.18-.19.18.18,0,0,1,.19.19,34.09,34.09,0,0,1-.21,3.84,28.49,28.49,0,0,1-.61,3.47A.2.2,0,0,1,28.91,64.21Z"/><path class="cls-6" d="M26.68,65.34l-.07,0a.19.19,0,0,1-.11-.24c.17-.43.32-.88.45-1.32s.27-.93.38-1.4a.18.18,0,0,1,.22-.15.19.19,0,0,1,.14.23c-.11.48-.24,1-.38,1.43s-.29.9-.45,1.35A.2.2,0,0,1,26.68,65.34Z"/><path class="cls-6" d="M29.14,52.85a.19.19,0,0,1-.18-.14,20.55,20.55,0,0,0-1.62-4.07.19.19,0,0,1,.08-.26.2.2,0,0,1,.26.08,20.93,20.93,0,0,1,1.64,4.15.19.19,0,0,1-.13.23Z"/><path class="cls-6" d="M28.91,48.73a.18.18,0,0,1-.16-.1c-.33-.65-.67-1.28-1-1.89s-.77-1.21-1.18-1.79a.19.19,0,1,1,.3-.22c.42.58.83,1.2,1.2,1.82s.73,1.26,1,1.91a.18.18,0,0,1-.08.25A.15.15,0,0,1,28.91,48.73Z"/><path class="cls-6" d="M29.14,52.85a.19.19,0,0,1-.18-.14,20.55,20.55,0,0,0-1.62-4.07.19.19,0,0,1,.08-.26.2.2,0,0,1,.26.08,20.93,20.93,0,0,1,1.64,4.15.19.19,0,0,1-.13.23Z"/><path class="cls-6" d="M28,59.48h0a.19.19,0,0,1-.17-.21,31.08,31.08,0,0,0,.17-3.4.19.19,0,0,1,.19-.18.18.18,0,0,1,.19.18,31.77,31.77,0,0,1-.18,3.44A.18.18,0,0,1,28,59.48Z"/><path class="cls-6" d="M20,70.75a.21.21,0,0,1-.16-.08.19.19,0,0,1,.06-.26c.23-.15.45-.31.67-.47l.65-.52a.18.18,0,0,1,.24.28q-.33.28-.66.54c-.23.17-.46.33-.7.48A.19.19,0,0,1,20,70.75Z"/><path class="cls-6" d="M22.08,71.9a.19.19,0,0,1-.12-.33c.23-.19.46-.38.68-.58s.44-.42.64-.63a.19.19,0,0,1,.27,0,.2.2,0,0,1,0,.27c-.21.22-.43.43-.66.65s-.46.4-.7.59A.15.15,0,0,1,22.08,71.9Z"/><path class="cls-6" d="M22.07,33.15a.14.14,0,0,1-.1,0l-.76-.49a.19.19,0,0,1-.05-.26.18.18,0,0,1,.25-.06l.77.5a.19.19,0,0,1,.05.27A.21.21,0,0,1,22.07,33.15Z"/><path class="cls-6" d="M23.42,35.92a.17.17,0,0,1-.12,0c-.35-.27-.69-.54-1-.78s-.7-.49-1.06-.71a.19.19,0,0,1,.2-.32c.36.23.72.48,1.07.72s.7.52,1.05.8a.18.18,0,0,1,0,.26A.16.16,0,0,1,23.42,35.92Z"/><path class="cls-6" d="M24.63,38.79a.18.18,0,0,1-.13,0c-.33-.31-.68-.62-1-.91s-.7-.58-1.06-.84a.19.19,0,0,1,0-.26.2.2,0,0,1,.27,0c.36.27.72.55,1.07.85s.71.61,1.05.93a.18.18,0,0,1,0,.26A.2.2,0,0,1,24.63,38.79Z"/><path class="cls-6" d="M23.42,35.92a.17.17,0,0,1-.12,0c-.35-.27-.69-.54-1-.78s-.7-.49-1.06-.71a.19.19,0,0,1,.2-.32c.36.23.72.48,1.07.72s.7.52,1.05.8a.18.18,0,0,1,0,.26A.16.16,0,0,1,23.42,35.92Z"/><path class="cls-6" d="M21.31,69.75a.17.17,0,0,1-.14-.07.18.18,0,0,1,0-.26c.2-.18.41-.37.61-.57s.39-.41.58-.62a.19.19,0,0,1,.27,0,.19.19,0,0,1,0,.26c-.2.23-.4.44-.6.64s-.42.41-.64.59A.18.18,0,0,1,21.31,69.75Z"/><path class="cls-6" d="M23.42,70.67a.15.15,0,0,1-.13,0,.18.18,0,0,1,0-.26c.22-.23.42-.46.62-.7s.39-.49.58-.75a.19.19,0,0,1,.26,0,.18.18,0,0,1,0,.26c-.19.26-.39.52-.59.77s-.42.48-.64.72A.15.15,0,0,1,23.42,70.67Z"/><path class="cls-6" d="M22.52,68.54a.21.21,0,0,1-.12-.05.18.18,0,0,1,0-.26c.19-.22.38-.45.56-.68s.35-.47.52-.73a.18.18,0,0,1,.26,0,.2.2,0,0,1,.05.26q-.27.39-.54.75c-.18.24-.37.47-.56.69A.18.18,0,0,1,22.52,68.54Z"/><path class="cls-6" d="M24.63,69.21a.21.21,0,0,1-.11,0,.19.19,0,0,1,0-.26c.2-.28.38-.56.56-.84s.35-.58.51-.89a.21.21,0,0,1,.26-.08.19.19,0,0,1,.07.26c-.17.32-.35.63-.52.91s-.37.58-.58.86A.18.18,0,0,1,24.63,69.21Z"/><path class="cls-6" d="M24.63,38.79a.18.18,0,0,1-.13,0c-.33-.31-.68-.62-1-.91s-.7-.58-1.06-.84a.19.19,0,0,1,0-.26.2.2,0,0,1,.27,0c.36.27.72.55,1.07.85s.71.61,1.05.93a.18.18,0,0,1,0,.26A.2.2,0,0,1,24.63,38.79Z"/><path class="cls-6" d="M25.72,41.8a.2.2,0,0,1-.14-.06q-.51-.57-1-1.08c-.35-.35-.71-.68-1.07-1a.18.18,0,0,1,0-.26.19.19,0,0,1,.27,0c.36.32.73.66,1.08,1s.7.72,1,1.1a.18.18,0,0,1,0,.26A.18.18,0,0,1,25.72,41.8Z"/><path class="cls-6" d="M25.72,41.8a.2.2,0,0,1-.14-.06q-.51-.57-1-1.08c-.35-.35-.71-.68-1.07-1a.18.18,0,0,1,0-.26.19.19,0,0,1,.27,0c.36.32.73.66,1.08,1s.7.72,1,1.1a.18.18,0,0,1,0,.26A.18.18,0,0,1,25.72,41.8Z"/><path class="cls-6" d="M26.68,45a.18.18,0,0,1-.15-.08c-.33-.45-.67-.89-1-1.31s-.72-.83-1.09-1.21a.2.2,0,0,1,0-.27.19.19,0,0,1,.27,0c.37.39.74.81,1.1,1.23s.69.88,1,1.33a.19.19,0,0,1,0,.26A.15.15,0,0,1,26.68,45Z"/><path class="cls-6" d="M23.61,67.11a.19.19,0,0,1-.1,0,.18.18,0,0,1-.05-.26c.17-.26.33-.53.49-.8A.18.18,0,0,1,24.2,66a.19.19,0,0,1,.07.26c-.15.27-.32.55-.5.82A.21.21,0,0,1,23.61,67.11Z"/><path class="cls-6" d="M25.72,67.46a.16.16,0,0,1-.09,0,.19.19,0,0,1-.08-.25q.27-.48.51-1c.15-.35.3-.71.44-1.08a.19.19,0,1,1,.36.14c-.15.37-.3.74-.46,1.1s-.34.71-.52,1A.18.18,0,0,1,25.72,67.46Z"/><path class="cls-6" d="M27.51,48.74a.21.21,0,0,1-.17-.1c-.3-.58-.62-1.15-1-1.69s-.73-1.08-1.12-1.59a.19.19,0,0,1,.3-.23,18.69,18.69,0,0,1,1.13,1.62c.36.55.69,1.13,1,1.71a.21.21,0,0,1-.08.26Z"/><path class="cls-6" d="M26.68,45a.18.18,0,0,1-.15-.08c-.33-.45-.67-.89-1-1.31s-.72-.83-1.09-1.21a.2.2,0,0,1,0-.27.19.19,0,0,1,.27,0c.37.39.74.81,1.1,1.23s.69.88,1,1.33a.19.19,0,0,1,0,.26A.15.15,0,0,1,26.68,45Z"/><path class="cls-6" d="M26.68,65.34l-.07,0a.19.19,0,0,1-.11-.24c.17-.43.32-.88.45-1.32s.27-.93.38-1.4a.18.18,0,0,1,.22-.15.19.19,0,0,1,.14.23c-.11.48-.24,1-.38,1.43s-.29.9-.45,1.35A.2.2,0,0,1,26.68,65.34Z"/><path class="cls-6" d="M25,64.48l-.07,0a.18.18,0,0,1-.1-.24c.14-.33.27-.67.38-1a.2.2,0,0,1,.24-.11.19.19,0,0,1,.12.24c-.12.35-.26.7-.4,1A.19.19,0,0,1,25,64.48Z"/><path class="cls-6" d="M27.51,48.74a.21.21,0,0,1-.17-.1c-.3-.58-.62-1.15-1-1.69s-.73-1.08-1.12-1.59a.19.19,0,0,1,.3-.23,18.69,18.69,0,0,1,1.13,1.62c.36.55.69,1.13,1,1.71a.21.21,0,0,1-.08.26Z"/><path class="cls-6" d="M28.2,56.06a.19.19,0,0,1-.19-.19,12.82,12.82,0,0,0-.55-3.6,17.72,17.72,0,0,0-1.52-3.6.18.18,0,0,1,.07-.25.19.19,0,0,1,.26.07,17.47,17.47,0,0,1,1.55,3.68,13.13,13.13,0,0,1,.57,3.7A.18.18,0,0,1,28.2,56.06Z"/><path class="cls-6" d="M28,59.48h0a.19.19,0,0,1-.17-.21,31.08,31.08,0,0,0,.17-3.4.19.19,0,0,1,.19-.18.18.18,0,0,1,.19.18,31.77,31.77,0,0,1-.18,3.44A.18.18,0,0,1,28,59.48Z"/><path class="cls-6" d="M25.4,63.45h-.06a.18.18,0,0,1-.11-.24c.13-.38.26-.79.38-1.21s.22-.85.31-1.28a.18.18,0,0,1,.22-.15.19.19,0,0,1,.15.22c-.1.44-.2.88-.32,1.31s-.25.85-.39,1.24A.18.18,0,0,1,25.4,63.45Z"/><path class="cls-6" d="M26.53,58.18h0a.18.18,0,0,1-.17-.2,29,29,0,0,0,.14-3,.19.19,0,0,1,.38,0,29.36,29.36,0,0,1-.15,3A.18.18,0,0,1,26.53,58.18Z"/><path class="cls-6" d="M28.2,56.06a.19.19,0,0,1-.19-.19,12.82,12.82,0,0,0-.55-3.6,17.72,17.72,0,0,0-1.52-3.6.18.18,0,0,1,.07-.25.19.19,0,0,1,.26.07,17.47,17.47,0,0,1,1.55,3.68,13.13,13.13,0,0,1,.57,3.7A.18.18,0,0,1,28.2,56.06Z"/><path class="cls-6" d="M20,70.75a.21.21,0,0,1-.16-.08.19.19,0,0,1,.06-.26c.23-.15.45-.31.67-.47l.65-.52a.18.18,0,0,1,.24.28q-.33.28-.66.54c-.23.17-.46.33-.7.48A.19.19,0,0,1,20,70.75Z"/><path class="cls-6" d="M18,69.4a.21.21,0,0,1-.17-.1A.19.19,0,0,1,17.9,69c.23-.12.46-.24.68-.38s.43-.28.64-.43a.19.19,0,0,1,.26,0,.2.2,0,0,1,0,.27c-.22.15-.44.3-.67.44s-.46.27-.69.4Z"/><path class="cls-6" d="M19,31.36l-.08,0c-.32-.15-.65-.29-1-.42a.2.2,0,0,1-.11-.25.2.2,0,0,1,.25-.1c.33.13.66.28,1,.43a.2.2,0,0,1,.09.25A.18.18,0,0,1,19,31.36Z"/><path class="cls-6" d="M21.31,34.42a.19.19,0,0,1-.1,0l-.38-.24-.38-.22-.6-.34-.6-.3a.19.19,0,1,1,.16-.34l.61.31.62.34.39.23.38.24a.19.19,0,0,1-.1.35Z"/><path class="cls-6" d="M22.52,37a.19.19,0,0,1-.11,0c-.31-.23-.64-.46-1-.68s-.65-.42-1-.61a.2.2,0,0,1-.07-.26.19.19,0,0,1,.26-.07c.34.2.68.41,1,.63l1,.69a.18.18,0,0,1,0,.26A.18.18,0,0,1,22.52,37Z"/><path class="cls-6" d="M21.31,34.42a.19.19,0,0,1-.1,0l-.38-.24-.38-.22-.6-.34-.6-.3a.19.19,0,1,1,.16-.34l.61.31.62.34.39.23.38.24a.19.19,0,0,1-.1.35Z"/><path class="cls-6" d="M19.33,68.57a.18.18,0,0,1-.15-.08.19.19,0,0,1,0-.26c.21-.15.41-.31.61-.47s.4-.34.59-.52a.18.18,0,0,1,.26,0,.19.19,0,0,1,0,.27,7.7,7.7,0,0,1-.6.54c-.2.17-.42.33-.63.49A.2.2,0,0,1,19.33,68.57Z"/><path class="cls-6" d="M21.31,69.75a.17.17,0,0,1-.14-.07.18.18,0,0,1,0-.26c.2-.18.41-.37.61-.57s.39-.41.58-.62a.19.19,0,0,1,.27,0,.19.19,0,0,1,0,.26c-.2.23-.4.44-.6.64s-.42.41-.64.59A.18.18,0,0,1,21.31,69.75Z"/><path class="cls-6" d="M20.54,67.56a.19.19,0,0,1-.13-.06.18.18,0,0,1,0-.26c.18-.19.37-.38.54-.57s.35-.4.52-.61a.19.19,0,0,1,.27,0,.19.19,0,0,1,0,.26q-.27.33-.54.63c-.18.2-.37.4-.57.59A.19.19,0,0,1,20.54,67.56Z"/><path class="cls-6" d="M22.52,68.54a.21.21,0,0,1-.12-.05.18.18,0,0,1,0-.26c.19-.22.38-.45.56-.68s.35-.47.52-.73a.18.18,0,0,1,.26,0,.2.2,0,0,1,.05.26q-.27.39-.54.75c-.18.24-.37.47-.56.69A.18.18,0,0,1,22.52,68.54Z"/><path class="cls-6" d="M23.61,39.71a.18.18,0,0,1-.12-.05c-.33-.28-.65-.55-1-.8s-.66-.5-1-.72a.19.19,0,0,1,.21-.31c.33.23.67.48,1,.74s.65.52,1,.81a.18.18,0,0,1,0,.26A.16.16,0,0,1,23.61,39.71Z"/><path class="cls-6" d="M22.52,37a.19.19,0,0,1-.11,0c-.31-.23-.64-.46-1-.68s-.65-.42-1-.61a.2.2,0,0,1-.07-.26.19.19,0,0,1,.26-.07c.34.2.68.41,1,.63l1,.69a.18.18,0,0,1,0,.26A.18.18,0,0,1,22.52,37Z"/><path class="cls-6" d="M21.63,66.36a.19.19,0,0,1-.12,0,.19.19,0,0,1,0-.26c.17-.22.34-.44.49-.66s.31-.47.46-.71a.19.19,0,1,1,.32.2c-.15.25-.31.49-.47.72s-.33.46-.5.68A.18.18,0,0,1,21.63,66.36Z"/><path class="cls-6" d="M23.61,67.11a.19.19,0,0,1-.1,0,.18.18,0,0,1-.05-.26c.17-.26.33-.53.49-.8A.18.18,0,0,1,24.2,66a.19.19,0,0,1,.07.26c-.15.27-.32.55-.5.82A.21.21,0,0,1,23.61,67.11Z"/><path class="cls-6" d="M23.61,39.71a.18.18,0,0,1-.12-.05c-.33-.28-.65-.55-1-.8s-.66-.5-1-.72a.19.19,0,0,1,.21-.31c.33.23.67.48,1,.74s.65.52,1,.81a.18.18,0,0,1,0,.26A.16.16,0,0,1,23.61,39.71Z"/><path class="cls-6" d="M24.57,42.49a.2.2,0,0,1-.14-.06c-.31-.33-.64-.65-1-1s-.66-.59-1-.86a.19.19,0,0,1,0-.26.2.2,0,0,1,.27,0c.34.28.68.57,1,.88s.65.62,1,1a.18.18,0,0,1,0,.26A.18.18,0,0,1,24.57,42.49Z"/><path class="cls-6" d="M22.59,65a.19.19,0,0,1-.1,0,.19.19,0,0,1-.06-.26c.15-.24.29-.5.43-.76s.27-.54.39-.81a.19.19,0,0,1,.25-.1.19.19,0,0,1,.09.25c-.12.29-.26.56-.4.83s-.29.54-.44.79A.2.2,0,0,1,22.59,65Z"/><path class="cls-6" d="M25,64.48l-.07,0a.18.18,0,0,1-.1-.24c.14-.33.27-.67.38-1a.2.2,0,0,1,.24-.11.19.19,0,0,1,.12.24c-.12.35-.26.7-.4,1A.19.19,0,0,1,25,64.48Z"/><path class="cls-6" d="M25.4,45.44a.21.21,0,0,1-.15-.08c-.3-.4-.62-.78-.95-1.14a14.35,14.35,0,0,0-1-1,.19.19,0,0,1,0-.27.19.19,0,0,1,.26,0c.35.34.7.7,1,1.07s.66.76,1,1.16a.2.2,0,0,1,0,.27A.28.28,0,0,1,25.4,45.44Z"/><path class="cls-6" d="M24.57,42.49a.2.2,0,0,1-.14-.06c-.31-.33-.64-.65-1-1s-.66-.59-1-.86a.19.19,0,0,1,0-.26.2.2,0,0,1,.27,0c.34.28.68.57,1,.88s.65.62,1,1a.18.18,0,0,1,0,.26A.18.18,0,0,1,24.57,42.49Z"/><path class="cls-6" d="M25.4,63.45h-.06a.18.18,0,0,1-.11-.24c.13-.38.26-.79.38-1.21s.22-.85.31-1.28a.18.18,0,0,1,.22-.15.19.19,0,0,1,.15.22c-.1.44-.2.88-.32,1.31s-.25.85-.39,1.24A.18.18,0,0,1,25.4,63.45Z"/><path class="cls-6" d="M23.42,63.38h-.07a.19.19,0,0,1-.1-.25c.13-.29.25-.59.37-.9s.22-.62.33-.94a.18.18,0,0,1,.23-.12.18.18,0,0,1,.12.23c-.1.33-.21.66-.33,1s-.24.62-.38.91A.18.18,0,0,1,23.42,63.38Z"/><path class="cls-6" d="M25.4,45.44a.21.21,0,0,1-.15-.08c-.3-.4-.62-.78-.95-1.14a14.35,14.35,0,0,0-1-1,.19.19,0,0,1,0-.27.19.19,0,0,1,.26,0c.35.34.7.7,1,1.07s.66.76,1,1.16a.2.2,0,0,1,0,.27A.28.28,0,0,1,25.4,45.44Z"/><path class="cls-6" d="M26.1,48.77a.19.19,0,0,1-.16-.1c-.28-.5-.59-1-.92-1.48s-.68-.94-1-1.37a.18.18,0,0,1,0-.26.19.19,0,0,1,.27,0A16.57,16.57,0,0,1,25.33,47c.34.49.65,1,.94,1.51a.18.18,0,0,1-.08.25A.14.14,0,0,1,26.1,48.77Z"/><path class="cls-6" d="M24.12,61.53h-.05a.18.18,0,0,1-.12-.24c.11-.37.22-.74.31-1.1s.18-.77.25-1.16a.18.18,0,0,1,.22-.15.19.19,0,0,1,.15.22c-.07.39-.16.79-.26,1.18s-.2.75-.32,1.12A.19.19,0,0,1,24.12,61.53Z"/><path class="cls-6" d="M26.1,48.77a.19.19,0,0,1-.16-.1c-.28-.5-.59-1-.92-1.48s-.68-.94-1-1.37a.18.18,0,0,1,0-.26.19.19,0,0,1,.27,0A16.57,16.57,0,0,1,25.33,47c.34.49.65,1,.94,1.51a.18.18,0,0,1-.08.25A.14.14,0,0,1,26.1,48.77Z"/><path class="cls-6" d="M26.67,55.18a.2.2,0,0,1-.19-.19A10.36,10.36,0,0,0,26,51.85a14.38,14.38,0,0,0-1.42-3.1.18.18,0,0,1,.06-.26.19.19,0,0,1,.26.06,15.22,15.22,0,0,1,1.46,3.19A10.73,10.73,0,0,1,26.86,55,.2.2,0,0,1,26.67,55.18Z"/><path class="cls-6" d="M26.67,55.18a.2.2,0,0,1-.19-.19A10.36,10.36,0,0,0,26,51.85a14.38,14.38,0,0,0-1.42-3.1.18.18,0,0,1,.06-.26.19.19,0,0,1,.26.06,15.22,15.22,0,0,1,1.46,3.19A10.73,10.73,0,0,1,26.86,55,.2.2,0,0,1,26.67,55.18Z"/><path class="cls-6" d="M24.7,59.24h0a.19.19,0,0,1-.15-.22,22,22,0,0,0,.33-2.36c.07-.82.11-1.68.11-2.56a.19.19,0,0,1,.38,0c0,.89,0,1.76-.12,2.59a22.39,22.39,0,0,1-.33,2.4A.18.18,0,0,1,24.7,59.24Z"/><path class="cls-6" d="M18,30.93h-.07c-.31-.12-.62-.24-.93-.34l-.9-.28a.18.18,0,0,1-.14-.22.2.2,0,0,1,.23-.14l.93.28c.32.11.64.22.95.35a.19.19,0,0,1,.1.24A.18.18,0,0,1,18,30.93Z"/><path class="cls-6" d="M19.33,33.31l-.08,0-.93-.42c-.3-.12-.6-.24-.9-.34a.19.19,0,0,1-.12-.24.19.19,0,0,1,.24-.12l.93.35c.31.13.63.28.94.43a.19.19,0,0,1,.09.25A.18.18,0,0,1,19.33,33.31Z"/><path class="cls-6" d="M20.54,35.72h-.05l0,0c-.31-.18-.62-.35-.92-.5l-.91-.42a.19.19,0,0,1,.14-.35c.31.13.62.28.93.43s.6.31.9.49h0l.06,0-.14.13Z"/><path class="cls-6" d="M19.33,33.31l-.08,0-.93-.42c-.3-.12-.6-.24-.9-.34a.19.19,0,0,1-.12-.24.19.19,0,0,1,.24-.12l.93.35c.31.13.63.28.94.43a.19.19,0,0,1,.09.25A.18.18,0,0,1,19.33,33.31Z"/><path class="cls-6" d="M17.48,67.2a.17.17,0,0,1-.16-.09.18.18,0,0,1,.06-.26c.2-.12.41-.25.61-.39s.39-.29.58-.45a.2.2,0,0,1,.27,0,.19.19,0,0,1,0,.26c-.2.16-.4.32-.6.46s-.43.29-.64.42Z"/><path class="cls-6" d="M19.33,68.57a.18.18,0,0,1-.15-.08.19.19,0,0,1,0-.26c.21-.15.41-.31.61-.47s.38-.33.57-.51a.19.19,0,0,1,.28,0l.13.13-.14.14-.6.54c-.2.17-.42.33-.63.49A.2.2,0,0,1,19.33,68.57Z"/><path class="cls-6" d="M20.54,35.72h-.05l0,0c-.31-.18-.62-.35-.92-.5l-.91-.42a.19.19,0,0,1,.14-.35c.31.13.62.28.93.43s.6.31.9.49h0l.06,0a.18.18,0,0,1,0,.23A.17.17,0,0,1,20.54,35.72Z"/><path class="cls-6" d="M21.63,38.17a.17.17,0,0,1-.1,0L21,37.79l-.54-.33-.38-.21-.37-.19a.2.2,0,0,1-.09-.26.19.19,0,0,1,.25-.08l.39.2.39.22.55.33.55.36a.2.2,0,0,1,.05.26A.21.21,0,0,1,21.63,38.17Z"/><path class="cls-6" d="M18.69,66.35a.19.19,0,0,1-.12-.34c.19-.15.37-.31.55-.48s.35-.34.52-.52a.19.19,0,0,1,.27,0,.19.19,0,0,1,0,.26q-.27.28-.54.54c-.19.18-.38.35-.57.5A.18.18,0,0,1,18.69,66.35Z"/><path class="cls-6" d="M20.54,67.63l-.12-.12a.17.17,0,0,1-.06-.14.18.18,0,0,1,.07-.15c.18-.17.36-.36.53-.55s.35-.4.52-.61a.19.19,0,0,1,.27,0,.19.19,0,0,1,0,.26q-.27.33-.54.63c-.18.2-.37.4-.57.59Z"/><path class="cls-6" d="M19.78,65.32a.21.21,0,0,1-.13,0,.19.19,0,0,1,0-.26c.17-.19.33-.37.49-.57s.31-.4.46-.6a.18.18,0,0,1,.26-.05.19.19,0,0,1,0,.26c-.14.21-.3.42-.47.63s-.33.4-.5.58A.2.2,0,0,1,19.78,65.32Z"/><path class="cls-6" d="M21.63,66.36a.19.19,0,0,1-.12,0,.19.19,0,0,1,0-.26c.17-.22.34-.44.49-.66s.31-.47.46-.71a.19.19,0,1,1,.32.2c-.15.25-.31.49-.47.72s-.33.46-.5.68A.18.18,0,0,1,21.63,66.36Z"/><path class="cls-6" d="M21.63,38.17a.17.17,0,0,1-.1,0L21,37.79l-.54-.33-.38-.21-.37-.19a.2.2,0,0,1-.09-.26.19.19,0,0,1,.25-.08l.39.2.39.22.55.33.55.36a.2.2,0,0,1,.05.26A.21.21,0,0,1,21.63,38.17Z"/><path class="cls-6" d="M22.59,40.67a.21.21,0,0,1-.12-.05c-.3-.23-.6-.46-.9-.67s-.61-.41-.93-.6a.19.19,0,0,1,.2-.33c.32.2.64.41.94.62s.62.45.93.69a.2.2,0,0,1,0,.27A.21.21,0,0,1,22.59,40.67Z"/><path class="cls-6" d="M23.42,43.22a.24.24,0,0,1-.13,0c-.29-.28-.59-.55-.9-.8a.19.19,0,0,1,0-.27.18.18,0,0,1,.26,0c.31.25.62.53.92.82a.18.18,0,0,1,0,.26A.2.2,0,0,1,23.42,43.22Z"/><path class="cls-6" d="M22.59,40.67a.21.21,0,0,1-.12-.05c-.3-.23-.6-.46-.9-.67s-.61-.41-.93-.6a.19.19,0,0,1,.2-.33c.32.2.64.41.94.62s.62.45.93.69a.2.2,0,0,1,0,.27A.21.21,0,0,1,22.59,40.67Z"/><path class="cls-6" d="M20.74,64.13a.2.2,0,0,1-.11,0,.19.19,0,0,1,0-.26l.42-.65a7.69,7.69,0,0,0,.39-.69.19.19,0,0,1,.26-.07.19.19,0,0,1,.08.25c-.13.24-.27.48-.41.71s-.29.45-.44.66A.18.18,0,0,1,20.74,64.13Z"/><path class="cls-6" d="M22.59,65a.19.19,0,0,1-.1,0,.19.19,0,0,1-.06-.26c.15-.24.29-.5.43-.76s.27-.54.39-.81a.19.19,0,0,1,.25-.1.19.19,0,0,1,.09.25c-.12.29-.26.56-.4.83s-.29.54-.44.79A.2.2,0,0,1,22.59,65Z"/><path class="cls-6" d="M23.42,43.22a.24.24,0,0,1-.13,0c-.29-.28-.59-.55-.9-.8a.19.19,0,0,1,0-.27.18.18,0,0,1,.26,0c.31.25.62.53.92.82a.18.18,0,0,1,0,.26A.2.2,0,0,1,23.42,43.22Z"/><path class="cls-6" d="M24.12,45.89a.17.17,0,0,1-.14-.07c-.28-.33-.58-.66-.89-1a.19.19,0,0,1,0-.27.19.19,0,0,1,.26,0c.31.32.62.66.91,1a.2.2,0,0,1,0,.26A.21.21,0,0,1,24.12,45.89Z"/><path class="cls-6" d="M21.57,62.78l-.09,0a.21.21,0,0,1-.08-.26c.13-.23.25-.48.37-.73L22.1,61a.18.18,0,0,1,.24-.11.19.19,0,0,1,.11.25c-.11.27-.22.53-.34.79s-.24.51-.37.75A.21.21,0,0,1,21.57,62.78Z"/><path class="cls-6" d="M23.42,63.38h-.07a.19.19,0,0,1-.1-.25c.13-.29.25-.59.37-.9s.22-.62.33-.94a.18.18,0,0,1,.23-.12.18.18,0,0,1,.12.23c-.1.33-.21.66-.33,1s-.24.62-.38.91A.18.18,0,0,1,23.42,63.38Z"/><path class="cls-6" d="M24.12,45.89a.17.17,0,0,1-.14-.07c-.28-.33-.58-.66-.89-1a.19.19,0,0,1,0-.27.19.19,0,0,1,.26,0c.31.32.62.66.91,1a.2.2,0,0,1,0,.26A.21.21,0,0,1,24.12,45.89Z"/><path class="cls-6" d="M24.7,48.84a.17.17,0,0,1-.16-.09c-.27-.44-.56-.86-.86-1.26s-.63-.78-1-1.14a.18.18,0,0,1,0-.26.19.19,0,0,1,.26,0c.35.37.68.76,1,1.17s.6.84.88,1.29a.19.19,0,0,1-.07.26Z"/><path class="cls-6" d="M22.27,61.26l-.07,0a.18.18,0,0,1-.1-.24c.1-.27.21-.55.3-.84s.18-.57.27-.87a.18.18,0,0,1,.23-.13.19.19,0,0,1,.13.23c-.08.3-.18.6-.27.89s-.2.58-.31.86A.2.2,0,0,1,22.27,61.26Z"/><path class="cls-6" d="M24.12,61.53h-.05a.18.18,0,0,1-.12-.24c.11-.37.22-.74.31-1.1s.18-.77.25-1.16a.18.18,0,0,1,.22-.15.19.19,0,0,1,.15.22c-.07.39-.16.79-.26,1.18s-.2.75-.32,1.12A.19.19,0,0,1,24.12,61.53Z"/><path class="cls-6" d="M24.7,48.84a.17.17,0,0,1-.16-.09c-.27-.44-.56-.86-.86-1.26s-.63-.78-1-1.14a.18.18,0,0,1,0-.26.19.19,0,0,1,.26,0c.35.37.68.76,1,1.17s.6.84.88,1.29a.19.19,0,0,1-.07.26Z"/><path class="cls-6" d="M25.14,54.29A.19.19,0,0,1,25,54.1a8.15,8.15,0,0,0-.49-2.64.19.19,0,1,1,.35-.12,8.33,8.33,0,0,1,.52,2.76A.19.19,0,0,1,25.14,54.29Z"/><path class="cls-6" d="M24.7,59.24h0a.19.19,0,0,1-.15-.22,22,22,0,0,0,.33-2.36c.07-.82.11-1.68.11-2.56a.19.19,0,0,1,.38,0c0,.89,0,1.76-.12,2.59a22.39,22.39,0,0,1-.33,2.4A.18.18,0,0,1,24.7,59.24Z"/><path class="cls-6" d="M23.29,57.48h0a.19.19,0,0,1-.15-.22c.1-.63.18-1.28.23-1.95s.08-1.38.08-2.09a.19.19,0,0,1,.19-.19h0a.19.19,0,0,1,.18.19,21.12,21.12,0,0,1-.08,2.12c-.05.68-.13,1.34-.23,2A.2.2,0,0,1,23.29,57.48Z"/><path class="cls-6" d="M25.14,54.29A.19.19,0,0,1,25,54.1a8.15,8.15,0,0,0-.49-2.64.19.19,0,1,1,.35-.12,8.33,8.33,0,0,1,.52,2.76A.19.19,0,0,1,25.14,54.29Z"/><path class="cls-6" d="M16.14,30.31h-.05c-.29-.07-.58-.14-.86-.19s-.57-.1-.84-.14a.19.19,0,1,1,0-.37c.28,0,.57.08.86.14s.59.12.88.2a.2.2,0,0,1,.14.23A.19.19,0,0,1,16.14,30.31Z"/><path class="cls-6" d="M17.48,32.54h-.06l-.86-.27c-.29-.07-.57-.14-.84-.19a.19.19,0,0,1-.15-.22.18.18,0,0,1,.22-.15c.28.05.57.12.86.2s.59.17.89.27a.19.19,0,0,1,.12.24A.19.19,0,0,1,17.48,32.54Z"/><path class="cls-6" d="M14.41,66.23a.19.19,0,0,1-.18-.13.2.2,0,0,1,.13-.24l.67-.24c.21-.09.43-.19.64-.3a.19.19,0,0,1,.25.09.19.19,0,0,1-.08.25c-.22.11-.45.21-.67.3s-.46.18-.7.26Z"/><path class="cls-6" d="M16.14,67.88a.18.18,0,0,1-.18-.12.19.19,0,0,1,.1-.24l.68-.31a6.6,6.6,0,0,0,.64-.36.2.2,0,0,1,.26.07.18.18,0,0,1-.07.25,7,7,0,0,1-.66.37,7.45,7.45,0,0,1-.7.32Z"/><path class="cls-6" d="M17.48,32.54h-.06l-.86-.27c-.29-.07-.57-.14-.84-.19a.19.19,0,0,1-.15-.22.18.18,0,0,1,.22-.15c.28.05.57.12.86.2s.59.17.89.27a.19.19,0,0,1,.12.24A.19.19,0,0,1,17.48,32.54Z"/><path class="cls-6" d="M15.75,65.68a.18.18,0,0,1-.16-.1.19.19,0,0,1,.08-.26c.21-.1.41-.21.61-.33l.58-.38a.18.18,0,0,1,.26,0,.19.19,0,0,1,0,.26c-.2.14-.41.27-.61.39s-.41.24-.63.35Z"/><path class="cls-6" d="M17.48,67.2a.17.17,0,0,1-.16-.09.18.18,0,0,1,.06-.26c.2-.12.41-.25.61-.39s.39-.29.58-.45a.2.2,0,0,1,.27,0,.19.19,0,0,1,0,.26c-.2.16-.4.32-.6.46s-.43.29-.64.42Z"/><path class="cls-6" d="M19.78,37.08l-.09,0a7.53,7.53,0,0,0-.86-.4,6.8,6.8,0,0,0-.84-.32.19.19,0,0,1-.11-.24.18.18,0,0,1,.23-.12q.42.14.87.33l.88.41A.19.19,0,0,1,20,37,.2.2,0,0,1,19.78,37.08Z"/><path class="cls-6" d="M17,65a.21.21,0,0,1-.16-.08.18.18,0,0,1,.05-.26c.19-.13.37-.27.54-.41l.52-.46a.19.19,0,1,1,.26.27c-.17.16-.35.32-.54.47l-.56.44Z"/><path class="cls-6" d="M18.69,66.35a.19.19,0,0,1-.12-.34c.19-.15.37-.31.55-.48s.35-.34.52-.52a.19.19,0,0,1,.27,0,.19.19,0,0,1,0,.26q-.27.28-.54.54c-.19.18-.38.35-.57.5A.18.18,0,0,1,18.69,66.35Z"/><path class="cls-6" d="M19.78,37.08l-.09,0a7.53,7.53,0,0,0-.86-.4,6.8,6.8,0,0,0-.84-.32.19.19,0,0,1-.11-.24.18.18,0,0,1,.23-.12q.42.14.87.33l.88.41A.19.19,0,0,1,20,37,.2.2,0,0,1,19.78,37.08Z"/><path class="cls-6" d="M20.74,39.37a.18.18,0,0,1-.1,0l-.19-.12-.76-.41c-.26-.12-.51-.24-.75-.33a.2.2,0,0,1-.1-.25.19.19,0,0,1,.24-.1c.25.1.51.22.77.35l.79.42.2.11a.2.2,0,0,1,.06.26A.18.18,0,0,1,20.74,39.37Z"/><path class="cls-6" d="M18.55,63.56a.21.21,0,0,1-.13-.05.19.19,0,0,1,0-.27c.16-.17.31-.35.46-.53a.18.18,0,0,1,.26,0,.19.19,0,0,1,0,.26c-.15.19-.31.38-.47.56A.2.2,0,0,1,18.55,63.56Z"/><path class="cls-6" d="M19.78,65.32a.21.21,0,0,1-.13,0,.19.19,0,0,1,0-.26c.17-.19.33-.37.49-.57s.31-.4.46-.6a.18.18,0,0,1,.26-.05.19.19,0,0,1,0,.26c-.14.21-.3.42-.47.63s-.33.4-.5.58A.2.2,0,0,1,19.78,65.32Z"/><path class="cls-6" d="M20.54,41a.16.16,0,0,1-.09,0l-.35-.19a3.59,3.59,0,0,0-.34-.17.19.19,0,0,1-.08-.26.18.18,0,0,1,.25-.08l.35.18.36.2a.18.18,0,0,1,.07.25A.21.21,0,0,1,20.54,41Z"/><path class="cls-6" d="M20.74,39.37a.18.18,0,0,1-.1,0l-.19-.12-.76-.41c-.26-.12-.51-.24-.75-.33a.2.2,0,0,1-.1-.25.19.19,0,0,1,.24-.1c.25.1.51.22.77.35l.79.42.2.11a.2.2,0,0,1,.06.26A.18.18,0,0,1,20.74,39.37Z"/><path class="cls-6" d="M19,63a.15.15,0,0,1-.11,0,.18.18,0,0,1,0-.26l.42-.57c.14-.2.27-.4.39-.61a.2.2,0,0,1,.26-.06.19.19,0,0,1,.07.26c-.13.21-.27.42-.41.62s-.29.4-.44.59A.18.18,0,0,1,19,63Z"/><path class="cls-6" d="M20.74,64.13a.2.2,0,0,1-.11,0,.19.19,0,0,1,0-.26l.42-.65a7.69,7.69,0,0,0,.39-.69.19.19,0,0,1,.26-.07.19.19,0,0,1,.08.25c-.13.24-.27.48-.41.71s-.29.45-.44.66A.18.18,0,0,1,20.74,64.13Z"/><path class="cls-6" d="M19.85,61.82a.17.17,0,0,1-.1,0,.19.19,0,0,1-.07-.26c.13-.2.25-.42.37-.63l.33-.68a.19.19,0,0,1,.34.16c-.11.23-.22.47-.34.69s-.24.45-.37.66A.19.19,0,0,1,19.85,61.82Z"/><path class="cls-6" d="M21.57,62.78l-.09,0a.21.21,0,0,1-.08-.26c.13-.23.25-.48.37-.73L22.1,61a.18.18,0,0,1,.24-.11.19.19,0,0,1,.11.25c-.11.27-.22.53-.34.79s-.24.51-.37.75A.21.21,0,0,1,21.57,62.78Z"/><path class="cls-6" d="M20.54,41a.16.16,0,0,1-.09,0l-.35-.19a3.59,3.59,0,0,0-.34-.17.19.19,0,0,1-.08-.26.18.18,0,0,1,.25-.08l.35.18.36.2a.18.18,0,0,1,.07.25A.21.21,0,0,1,20.54,41Z"/><path class="cls-6" d="M21.43,43.36a.2.2,0,0,1-.11,0c-.29-.2-.58-.39-.87-.56a.18.18,0,0,1-.06-.25.18.18,0,0,1,.25-.07,9.53,9.53,0,0,1,.89.57.18.18,0,0,1,0,.26A.18.18,0,0,1,21.43,43.36Z"/><path class="cls-6" d="M21.43,43.36a.2.2,0,0,1-.11,0c-.29-.2-.58-.39-.87-.56a.18.18,0,0,1-.06-.25.18.18,0,0,1,.25-.07,9.53,9.53,0,0,1,.89.57.18.18,0,0,1,0,.26A.18.18,0,0,1,21.43,43.36Z"/><path class="cls-6" d="M22.85,46.41a.2.2,0,0,1-.14-.06c-.27-.28-.54-.54-.82-.78s-.58-.47-.87-.67a.19.19,0,0,1,.21-.31,9.51,9.51,0,0,1,.9.7,10.61,10.61,0,0,1,.85.8.2.2,0,0,1,0,.27A.24.24,0,0,1,22.85,46.41Z"/><path class="cls-6" d="M22.85,46.41a.2.2,0,0,1-.14-.06c-.27-.28-.54-.54-.82-.78s-.58-.47-.87-.67a.19.19,0,0,1,.21-.31,9.51,9.51,0,0,1,.9.7,10.61,10.61,0,0,1,.85.8.2.2,0,0,1,0,.27A.24.24,0,0,1,22.85,46.41Z"/><path class="cls-6" d="M23.29,49a.18.18,0,0,1-.15-.08,10.15,10.15,0,0,0-.8-1,8.09,8.09,0,0,0-.89-.87.18.18,0,0,1,.24-.28,9.8,9.8,0,0,1,.93.9,11.29,11.29,0,0,1,.83,1,.18.18,0,0,1-.16.29Z"/><path class="cls-6" d="M23.61,53.41h0a.19.19,0,0,1-.19-.19,5.58,5.58,0,0,0-.46-2.1,7.51,7.51,0,0,0-1.21-1.95.18.18,0,0,1,0-.26.2.2,0,0,1,.27,0,7.73,7.73,0,0,1,1.27,2,5.79,5.79,0,0,1,.49,2.25A.19.19,0,0,1,23.61,53.41Z"/><path class="cls-6" d="M23.29,49a.18.18,0,0,1-.15-.08,10.15,10.15,0,0,0-.8-1,8.09,8.09,0,0,0-.89-.87.18.18,0,0,1,.24-.28,9.8,9.8,0,0,1,.93.9,11.29,11.29,0,0,1,.83,1,.18.18,0,0,1-.16.29Z"/><path class="cls-6" d="M14.41,30h0c-.27,0-.54-.06-.79-.07a.19.19,0,0,1,0-.38c.26,0,.54,0,.82.08a.19.19,0,0,1,.16.21A.19.19,0,0,1,14.41,30Z"/><path class="cls-6" d="M15.75,32.07h0a7.4,7.4,0,0,0-.8-.13.19.19,0,0,1-.16-.21.18.18,0,0,1,.21-.16,7.76,7.76,0,0,1,.82.13.19.19,0,0,1,0,.37Z"/><path class="cls-6" d="M14.41,66.23a.19.19,0,0,1-.18-.13.2.2,0,0,1,.13-.24l.67-.24c.21-.09.43-.19.64-.3a.19.19,0,0,1,.25.09.19.19,0,0,1-.08.25c-.22.11-.45.21-.67.3s-.46.18-.7.26Z"/><path class="cls-6" d="M12.82,64.47a.17.17,0,0,1-.18-.14.19.19,0,0,1,.13-.23,6.55,6.55,0,0,0,.67-.19c.22-.07.44-.15.65-.24a.19.19,0,0,1,.14.35c-.22.09-.44.18-.67.25l-.7.2Z"/><path class="cls-6" d="M17,34.2h0c-.27-.07-.53-.13-.8-.18s-.51-.09-.77-.12a.19.19,0,0,1-.17-.2.2.2,0,0,1,.21-.17c.27,0,.54.07.8.12a8.27,8.27,0,0,1,.83.19.19.19,0,0,1,.13.23A.19.19,0,0,1,17,34.2Z"/><path class="cls-6" d="M15.75,32.07h0a7.4,7.4,0,0,0-.8-.13.19.19,0,0,1-.16-.21.18.18,0,0,1,.21-.16,7.76,7.76,0,0,1,.82.13.19.19,0,0,1,0,.37Z"/><path class="cls-6" d="M15.75,65.68a.18.18,0,0,1-.16-.1.19.19,0,0,1,.08-.26c.21-.1.41-.21.61-.33l.58-.38a.18.18,0,0,1,.26,0,.19.19,0,0,1,0,.26c-.2.14-.41.27-.61.39s-.41.24-.63.35Z"/><path class="cls-6" d="M14.16,64a.18.18,0,0,1-.17-.11.19.19,0,0,1,.1-.25c.2-.08.4-.18.6-.28s.4-.21.58-.32a.18.18,0,0,1,.26.06.17.17,0,0,1-.06.25c-.2.12-.4.24-.61.35l-.63.29Z"/><path class="cls-6" d="M18.05,36.35H18c-.26-.09-.53-.17-.79-.24s-.53-.12-.77-.17a.18.18,0,0,1-.16-.21.2.2,0,0,1,.22-.16c.25,0,.52.1.8.17s.55.16.82.25a.19.19,0,0,1-.06.37Z"/><path class="cls-6" d="M17,34.2h0c-.27-.07-.53-.13-.8-.18s-.51-.09-.77-.12a.19.19,0,0,1-.17-.2.2.2,0,0,1,.21-.17c.27,0,.54.07.8.12a8.27,8.27,0,0,1,.83.19.19.19,0,0,1,.13.23A.19.19,0,0,1,17,34.2Z"/><path class="cls-6" d="M17,65a.21.21,0,0,1-.16-.08.18.18,0,0,1,.05-.26c.19-.13.37-.27.54-.41l.52-.46a.19.19,0,1,1,.26.27c-.17.16-.35.32-.54.47l-.56.44Z"/><path class="cls-6" d="M15.37,63.41a.19.19,0,0,1-.16-.09.18.18,0,0,1,.06-.25l.55-.37c.17-.13.35-.26.52-.41a.2.2,0,0,1,.26,0,.19.19,0,0,1,0,.27L16,63a6.27,6.27,0,0,1-.57.38A.19.19,0,0,1,15.37,63.41Z"/><path class="cls-6" d="M18.05,36.35H18c-.26-.09-.53-.17-.79-.24s-.53-.12-.77-.17a.18.18,0,0,1-.16-.21.2.2,0,0,1,.22-.16c.25,0,.52.1.8.17s.55.16.82.25a.19.19,0,0,1-.06.37Z"/><path class="cls-6" d="M19,38.5h-.07c-.26-.11-.53-.21-.79-.3L17.37,38a.18.18,0,0,1-.14-.22.19.19,0,0,1,.23-.14c.26.06.53.13.8.22s.55.19.83.3a.19.19,0,0,1,.1.24A.18.18,0,0,1,19,38.5Z"/><path class="cls-6" d="M18.55,63.56a.21.21,0,0,1-.13-.05.19.19,0,0,1,0-.27c.16-.17.31-.35.46-.53a.18.18,0,0,1,.26,0,.19.19,0,0,1,0,.26c-.15.19-.31.38-.47.56A.2.2,0,0,1,18.55,63.56Z"/><path class="cls-6" d="M16.46,62.62a.18.18,0,0,1-.12-.33,6.39,6.39,0,0,0,.48-.44c.16-.15.31-.31.46-.48a.18.18,0,0,1,.26,0,.19.19,0,0,1,0,.27l-.48.5c-.16.16-.33.32-.5.46A.19.19,0,0,1,16.46,62.62Z"/><path class="cls-6" d="M19.85,40.65h-.09c-.26-.13-.53-.25-.79-.35s-.52-.19-.77-.26a.19.19,0,0,1-.13-.23.18.18,0,0,1,.23-.13,6.85,6.85,0,0,1,.8.27,7.44,7.44,0,0,1,.83.36.18.18,0,0,1,.08.25A.17.17,0,0,1,19.85,40.65Z"/><path class="cls-6" d="M19,38.5h-.07c-.26-.11-.53-.21-.79-.3L17.37,38a.18.18,0,0,1-.14-.22.19.19,0,0,1,.23-.14c.26.06.53.13.8.22s.55.19.83.3a.19.19,0,0,1,.1.24A.18.18,0,0,1,19,38.5Z"/><path class="cls-6" d="M19,63a.15.15,0,0,1-.11,0,.18.18,0,0,1,0-.26l.42-.57c.14-.2.27-.4.39-.61a.2.2,0,0,1,.26-.06.19.19,0,0,1,.07.26c-.13.21-.27.42-.41.62s-.29.4-.44.59A.18.18,0,0,1,19,63Z"/><path class="cls-6" d="M17.42,61.68a.21.21,0,0,1-.13,0,.18.18,0,0,1,0-.26l.42-.52c.13-.17.27-.36.39-.55a.19.19,0,1,1,.31.21c-.13.2-.26.39-.4.57l-.44.54A.2.2,0,0,1,17.42,61.68Z"/><path class="cls-6" d="M19.85,61.82a.17.17,0,0,1-.1,0,.19.19,0,0,1-.07-.26c.13-.2.25-.42.37-.63s.21-.42.31-.64a.24.24,0,0,1,.05-.1.18.18,0,0,1,.22,0l.07,0,.05.15,0,.07c-.11.23-.22.47-.34.69s-.24.45-.37.66A.19.19,0,0,1,19.85,61.82Z"/><path class="cls-6" d="M18.25,60.59a.23.23,0,0,1-.11,0,.19.19,0,0,1-.05-.26c.13-.19.25-.38.36-.58a.19.19,0,1,1,.33.19c-.12.2-.25.4-.38.6A.18.18,0,0,1,18.25,60.59Z"/><path class="cls-6" d="M19.85,40.65h-.09c-.26-.13-.53-.25-.79-.35s-.52-.19-.77-.26a.19.19,0,0,1-.13-.23.18.18,0,0,1,.23-.13,6.85,6.85,0,0,1,.8.27,7.44,7.44,0,0,1,.83.36.18.18,0,0,1,.08.25A.17.17,0,0,1,19.85,40.65Z"/><path class="cls-6" d="M20.55,42.8a.19.19,0,0,1-.1,0h0c-.27-.16-.53-.29-.78-.41a6.77,6.77,0,0,0-.77-.3.19.19,0,0,1-.12-.24A.19.19,0,0,1,19,41.7c.26.09.53.2.8.32s.55.27.82.42l.05,0a.19.19,0,0,1,0,.26A.18.18,0,0,1,20.55,42.8Z"/><path class="cls-6" d="M20.55,42.8a.19.19,0,0,1-.1,0h0c-.27-.16-.53-.29-.78-.41a6.77,6.77,0,0,0-.77-.3.19.19,0,0,1-.12-.24A.19.19,0,0,1,19,41.7c.26.09.53.2.8.32s.55.27.82.42l.05,0a.19.19,0,0,1,0,.26A.18.18,0,0,1,20.55,42.8Z"/><path class="cls-6" d="M21.12,44.93a.19.19,0,0,1-.1,0l-.29-.19-.28-.17-.5-.27-.49-.21a.18.18,0,0,1-.11-.24.19.19,0,0,1,.24-.11c.17.07.35.14.52.23a5.48,5.48,0,0,1,.53.28l.3.17.29.2a.18.18,0,0,1,.05.26A.21.21,0,0,1,21.12,44.93Z"/><path class="cls-6" d="M20.52,60.81l-.14-.42a.18.18,0,0,1,0-.21c.1-.22.19-.44.28-.67l.27-.74a.18.18,0,0,1,.23-.12.19.19,0,0,1,.12.24c-.08.26-.18.51-.27.76s-.2.49-.31.73Z"/><path class="cls-6" d="M21.12,59h-.05a.18.18,0,0,1-.12-.24c.08-.25.16-.51.23-.78s.14-.54.21-.81a.19.19,0,0,1,.22-.15.2.2,0,0,1,.14.23c-.06.28-.13.56-.21.83s-.15.54-.24.8A.18.18,0,0,1,21.12,59Z"/><path class="cls-6" d="M19.53,58h-.07a.2.2,0,0,1-.11-.24l.24-.7c.07-.24.14-.49.2-.74a.19.19,0,0,1,.37.09l-.21.76c-.08.24-.16.48-.25.72A.18.18,0,0,1,19.53,58Z"/><path class="cls-6" d="M21.12,44.93a.19.19,0,0,1-.1,0l-.29-.19-.28-.17-.5-.27-.49-.21a.18.18,0,0,1-.11-.24.19.19,0,0,1,.24-.11c.17.07.35.14.52.23a5.48,5.48,0,0,1,.53.28l.3.17.29.2a.18.18,0,0,1,.05.26A.21.21,0,0,1,21.12,44.93Z"/><path class="cls-6" d="M21.57,47.06a.18.18,0,0,1-.12-.05L21,46.63l-.51-.32a1.91,1.91,0,0,0-.28-.15L19.9,46a.19.19,0,0,1-.1-.25.18.18,0,0,1,.25-.09l.29.13.3.16a6.06,6.06,0,0,1,.53.35,6.54,6.54,0,0,1,.52.4.18.18,0,0,1,0,.26A.16.16,0,0,1,21.57,47.06Z"/><path class="cls-6" d="M21.89,49.23a.2.2,0,0,1-.15-.06,5.19,5.19,0,0,0-.62-.62,4.79,4.79,0,0,0-.67-.47L20.33,48,20.21,48a.19.19,0,0,1,.16-.34l.13.07.14.07a5.48,5.48,0,0,1,.73.52,6.71,6.71,0,0,1,.66.65.18.18,0,0,1-.14.31Z"/><path class="cls-6" d="M21.57,47.06a.18.18,0,0,1-.12-.05L21,46.63l-.51-.32a1.91,1.91,0,0,0-.28-.15L19.9,46a.19.19,0,0,1-.1-.25.18.18,0,0,1,.25-.09l.29.13.3.16a6.06,6.06,0,0,1,.53.35,6.54,6.54,0,0,1,.52.4.18.18,0,0,1,0,.26A.16.16,0,0,1,21.57,47.06Z"/><path class="cls-6" d="M21.57,57.4h0a.18.18,0,0,1-.14-.22c.06-.29.12-.58.17-.88a.19.19,0,0,1,.22-.15.18.18,0,0,1,.15.21q-.08.47-.18.9A.18.18,0,0,1,21.57,57.4Z"/><path class="cls-6" d="M20,56.58h0a.2.2,0,0,1-.14-.23c.06-.24.12-.5.17-.75s.1-.52.15-.79a.18.18,0,0,1,.21-.15.19.19,0,0,1,.16.21l-.15.8c0,.26-.11.52-.17.77A.2.2,0,0,1,20,56.58Z"/><path class="cls-6" d="M22,54.1h0a.18.18,0,0,1-.18-.2c0-.51.05-1,.05-1.56a.18.18,0,0,1,.19-.19.18.18,0,0,1,.18.19c0,.53,0,1.06,0,1.59A.19.19,0,0,1,22,54.1Z"/><path class="cls-6" d="M22.08,52.52a.18.18,0,0,1-.19-.18,2.87,2.87,0,0,0-.43-1.42,2.91,2.91,0,0,0-1-1.07l-.05,0a.2.2,0,0,1-.08-.26.19.19,0,0,1,.25-.08h0l-.07.18.11-.16a3.28,3.28,0,0,1,1.17,1.22,3.37,3.37,0,0,1,.47,1.61A.18.18,0,0,1,22.08,52.52Z"/><path class="cls-6" d="M21.89,49.23a.2.2,0,0,1-.15-.06,5.19,5.19,0,0,0-.62-.62,4.79,4.79,0,0,0-.67-.47L20.33,48,20.21,48a.19.19,0,0,1,.16-.34l.13.07.14.07a5.48,5.48,0,0,1,.73.52,6.71,6.71,0,0,1,.66.65.18.18,0,0,1-.14.31Z"/><path class="cls-6" d="M12.82,64.47a.17.17,0,0,1-.18-.14.19.19,0,0,1,.13-.23,6.55,6.55,0,0,0,.67-.19c.22-.07.44-.15.65-.24a.19.19,0,0,1,.14.35c-.22.09-.44.18-.67.25l-.7.2Z"/><path class="cls-6" d="M11.35,62.64a.17.17,0,0,1-.18-.15.19.19,0,0,1,.15-.22c.22,0,.45-.09.67-.15a5.17,5.17,0,0,0,.64-.19.19.19,0,0,1,.24.12.2.2,0,0,1-.12.24l-.67.2-.69.15Z"/><path class="cls-6" d="M11.35,30a.17.17,0,0,1-.18-.15.19.19,0,0,1,.15-.22l.74-.1a.19.19,0,0,1,.2.17.19.19,0,0,1-.17.21c-.24,0-.48.05-.7.09Z"/><path class="cls-6" d="M12.69,31.92a.19.19,0,0,1,0-.38c.25,0,.5,0,.74-.05a6.48,6.48,0,0,1,.76,0,.19.19,0,1,1,0,.37h-.73l-.71.06Z"/><path class="cls-6" d="M14.16,64a.18.18,0,0,1-.17-.11.19.19,0,0,1,.1-.25c.2-.08.4-.18.6-.28s.4-.21.58-.32a.18.18,0,0,1,.26.06.17.17,0,0,1-.06.25c-.2.12-.4.24-.61.35l-.63.29Z"/><path class="cls-6" d="M12.69,62.3a.19.19,0,0,1-.06-.37,6.25,6.25,0,0,0,.6-.24,6.19,6.19,0,0,0,.58-.28.19.19,0,0,1,.26.07.2.2,0,0,1-.08.26q-.3.16-.6.3l-.64.25Z"/><path class="cls-6" d="M15.37,33.89h0l-.73,0h-.7a.19.19,0,0,1,0-.37,6.06,6.06,0,0,1,.74,0,6.47,6.47,0,0,1,.76.05.19.19,0,0,1,.17.21A.19.19,0,0,1,15.37,33.89Z"/><path class="cls-6" d="M12.69,31.92a.19.19,0,0,1,0-.38c.25,0,.5,0,.74-.05a6.48,6.48,0,0,1,.76,0,.19.19,0,1,1,0,.37h-.73l-.71.06Z"/><path class="cls-6" d="M16.46,35.94h0c-.24,0-.49-.07-.73-.09a5.67,5.67,0,0,0-.71,0h0a.2.2,0,0,1-.19-.19.19.19,0,0,1,.19-.19l.74,0c.25,0,.51.05.76.09a.19.19,0,0,1,.15.22A.18.18,0,0,1,16.46,35.94Z"/><path class="cls-6" d="M15.37,33.89h0l-.73,0h-.7a.19.19,0,0,1,0-.37,6.06,6.06,0,0,1,.74,0,6.47,6.47,0,0,1,.76.05.19.19,0,0,1,.17.21A.19.19,0,0,1,15.37,33.89Z"/><path class="cls-6" d="M15.37,63.41a.19.19,0,0,1-.16-.09.18.18,0,0,1,.06-.25l.55-.37c.17-.13.35-.26.52-.41a.2.2,0,0,1,.26,0,.19.19,0,0,1,0,.27L16,63a6.27,6.27,0,0,1-.57.38A.19.19,0,0,1,15.37,63.41Z"/><path class="cls-6" d="M13.9,61.76a.19.19,0,0,1-.16-.1.18.18,0,0,1,.07-.25,6.16,6.16,0,0,0,.55-.33,6,6,0,0,0,.51-.37.19.19,0,0,1,.27,0,.18.18,0,0,1,0,.26,5.3,5.3,0,0,1-.54.39c-.18.12-.38.23-.57.34Z"/><path class="cls-6" d="M16.46,35.94h0c-.24,0-.49-.07-.73-.09a5.67,5.67,0,0,0-.71,0h0a.2.2,0,0,1-.19-.19.19.19,0,0,1,.19-.19l.74,0c.25,0,.51.05.76.09a.19.19,0,0,1,.15.22A.18.18,0,0,1,16.46,35.94Z"/><path class="cls-6" d="M17.42,38h-.05c-.24,0-.48-.1-.72-.13a5.78,5.78,0,0,0-.71-.05.2.2,0,0,1-.18-.2.2.2,0,0,1,.19-.18c.25,0,.49,0,.74.06a6.92,6.92,0,0,1,.77.14.18.18,0,0,1,.14.22A.19.19,0,0,1,17.42,38Z"/><path class="cls-6" d="M16.46,62.62a.18.18,0,0,1-.12-.33,6.39,6.39,0,0,0,.48-.44c.16-.15.31-.31.46-.48a.18.18,0,0,1,.26,0,.19.19,0,0,1,0,.27l-.48.5c-.16.16-.33.32-.5.46A.19.19,0,0,1,16.46,62.62Z"/><path class="cls-6" d="M15,61.05a.21.21,0,0,1-.15-.07.2.2,0,0,1,0-.27,6.12,6.12,0,0,0,.49-.4.18.18,0,0,1,.25.27,5.27,5.27,0,0,1-.51.43A.15.15,0,0,1,15,61.05Z"/><path class="cls-6" d="M18.25,40H18.2a7,7,0,0,0-.73-.17c-.24,0-.47-.06-.7-.08a.18.18,0,0,1-.18-.2.18.18,0,0,1,.2-.17,6,6,0,0,1,.74.08l.77.18a.19.19,0,0,1,.13.23A.2.2,0,0,1,18.25,40Z"/><path class="cls-6" d="M17.42,38h-.05c-.24,0-.48-.1-.72-.13a5.78,5.78,0,0,0-.71-.05.2.2,0,0,1-.18-.2.2.2,0,0,1,.19-.18c.25,0,.49,0,.74.06a6.92,6.92,0,0,1,.77.14.18.18,0,0,1,.14.22A.19.19,0,0,1,17.42,38Z"/><path class="cls-6" d="M17.42,61.68a.21.21,0,0,1-.13,0,.18.18,0,0,1,0-.26l.42-.52c.13-.17.27-.36.39-.55a.19.19,0,1,1,.31.21c-.13.2-.26.39-.4.57l-.44.54A.2.2,0,0,1,17.42,61.68Z"/><path class="cls-6" d="M16.38,59.68a.17.17,0,0,1-.12,0,.19.19,0,0,1,0-.26c.14-.17.27-.35.39-.52a.19.19,0,0,1,.27,0,.19.19,0,0,1,0,.26,5.47,5.47,0,0,1-.41.54A.16.16,0,0,1,16.38,59.68Z"/><path class="cls-6" d="M18.25,60.59a.23.23,0,0,1-.11,0,.19.19,0,0,1-.05-.26c.13-.19.25-.38.36-.58a.19.19,0,1,1,.33.19c-.12.2-.25.4-.38.6A.18.18,0,0,1,18.25,60.59Z"/><path class="cls-6" d="M16.78,59.15a.18.18,0,0,1-.15-.3c.12-.17.24-.36.36-.55l.33-.59a.17.17,0,0,1,.25-.08.18.18,0,0,1,.08.25c-.11.21-.22.42-.34.61s-.25.4-.38.58A.18.18,0,0,1,16.78,59.15Z"/><path class="cls-6" d="M18.25,40H18.2a7,7,0,0,0-.73-.17c-.24,0-.47-.06-.7-.08a.18.18,0,0,1-.18-.2.18.18,0,0,1,.2-.17,6,6,0,0,1,.74.08l.77.18a.19.19,0,0,1,.13.23A.2.2,0,0,1,18.25,40Z"/><path class="cls-6" d="M19,42.07h-.06a7.27,7.27,0,0,0-.73-.2,5.74,5.74,0,0,0-.69-.1.19.19,0,1,1,0-.37,6.55,6.55,0,0,1,.74.1l.77.21a.19.19,0,0,1,.12.24A.19.19,0,0,1,19,42.07Z"/><path class="cls-6" d="M17.48,58l-.08,0a.18.18,0,0,1-.08-.25c.1-.2.2-.41.29-.63a6.5,6.5,0,0,0,.27-.66.18.18,0,0,1,.24-.11.18.18,0,0,1,.11.24c-.08.23-.17.46-.27.68s-.2.44-.31.65A.19.19,0,0,1,17.48,58Z"/><path class="cls-6" d="M19,42.07h-.06a7.27,7.27,0,0,0-.73-.2,5.74,5.74,0,0,0-.69-.1.19.19,0,1,1,0-.37,6.55,6.55,0,0,1,.74.1l.77.21a.19.19,0,0,1,.12.24A.19.19,0,0,1,19,42.07Z"/><path class="cls-6" d="M19.53,44.08l-.07,0a5.07,5.07,0,0,0-.73-.22,3.29,3.29,0,0,0-.68-.1.19.19,0,0,1-.18-.2.2.2,0,0,1,.2-.18,5.23,5.23,0,0,1,.75.11,6.16,6.16,0,0,1,.77.24.18.18,0,0,1,.11.24A.19.19,0,0,1,19.53,44.08Z"/><path class="cls-6" d="M19.53,44.08l-.07,0a5.07,5.07,0,0,0-.73-.22,3.29,3.29,0,0,0-.68-.1.19.19,0,0,1-.18-.2.2.2,0,0,1,.2-.18,5.23,5.23,0,0,1,.75.11,6.16,6.16,0,0,1,.77.24.18.18,0,0,1,.11.24A.19.19,0,0,1,19.53,44.08Z"/><path class="cls-6" d="M20,46.05l-.07,0a3.66,3.66,0,0,0-.73-.24,2.61,2.61,0,0,0-.67-.08.19.19,0,0,1-.18-.19.18.18,0,0,1,.18-.19h0a3.2,3.2,0,0,1,.75.09,4.44,4.44,0,0,1,.8.27.19.19,0,0,1,.1.24A.21.21,0,0,1,20,46.05Z"/><path class="cls-6" d="M19.53,58h-.07a.2.2,0,0,1-.11-.24l.24-.7c.07-.24.14-.49.2-.74a.19.19,0,0,1,.37.09l-.21.76c-.08.24-.16.48-.25.72A.18.18,0,0,1,19.53,58Z"/><path class="cls-6" d="M18.06,56.67H18a.2.2,0,0,1-.11-.24c.09-.23.16-.46.24-.7s.14-.48.2-.73a.18.18,0,0,1,.23-.14.19.19,0,0,1,.14.23c-.07.25-.14.51-.21.75s-.16.49-.25.72A.17.17,0,0,1,18.06,56.67Z"/><path class="cls-6" d="M20,56.58h0a.2.2,0,0,1-.14-.23c.06-.24.12-.5.17-.75s.1-.52.15-.79a.18.18,0,0,1,.21-.15.19.19,0,0,1,.16.21l-.15.8c0,.26-.11.52-.17.77A.2.2,0,0,1,20,56.58Z"/><path class="cls-6" d="M18.5,55.22h0a.19.19,0,0,1-.14-.23c.07-.25.13-.52.18-.79s.1-.55.14-.83a.18.18,0,0,1,.21-.16.19.19,0,0,1,.16.21c0,.29-.09.57-.14.85l-.18.82A.2.2,0,0,1,18.5,55.22Z"/><path class="cls-6" d="M20.29,48l-.08,0a2.83,2.83,0,0,0-.73-.24,1.61,1.61,0,0,0-.62,0,.19.19,0,0,1-.22-.15.18.18,0,0,1,.14-.22,2.15,2.15,0,0,1,.76,0,3.09,3.09,0,0,1,.83.27.19.19,0,0,1,.09.25A.18.18,0,0,1,20.29,48Z"/><path class="cls-6" d="M20,46.05l-.07,0a3.66,3.66,0,0,0-.73-.24,2.61,2.61,0,0,0-.67-.08.19.19,0,0,1-.18-.19.18.18,0,0,1,.18-.19h0a3.2,3.2,0,0,1,.75.09,4.44,4.44,0,0,1,.8.27.19.19,0,0,1,.1.24A.21.21,0,0,1,20,46.05Z"/><path class="cls-6" d="M18.82,53.57h0a.18.18,0,0,1-.16-.21c.06-.43.11-.89.14-1.35s0-1,0-1.44a.19.19,0,0,1,.19-.19h0a.18.18,0,0,1,.19.19c0,.48,0,1-.05,1.46s-.08.94-.14,1.38A.2.2,0,0,1,18.82,53.57Z"/><path class="cls-6" d="M19,50.76h0a.2.2,0,0,1-.19-.19,1.28,1.28,0,0,1,.52-1.14,1.21,1.21,0,0,1,1.23,0,.19.19,0,1,1-.18.33.85.85,0,0,0-.85-.06.9.9,0,0,0-.34.82A.19.19,0,0,1,19,50.76Z"/><path class="cls-6" d="M20.29,48l-.08,0a2.83,2.83,0,0,0-.73-.24,1.61,1.61,0,0,0-.62,0,.19.19,0,0,1-.22-.15.18.18,0,0,1,.14-.22,2.15,2.15,0,0,1,.76,0,3.09,3.09,0,0,1,.83.27.19.19,0,0,1,.09.25A.18.18,0,0,1,20.29,48Z"/><path class="cls-6" d="M11.35,62.64a.17.17,0,0,1-.18-.15.19.19,0,0,1,.15-.22c.22,0,.45-.09.67-.15a5.17,5.17,0,0,0,.64-.19.19.19,0,0,1,.24.12.2.2,0,0,1-.12.24l-.67.2-.69.15Z"/><path class="cls-6" d="M10,60.75a.18.18,0,0,1-.18-.17.18.18,0,0,1,.16-.2l.67-.11c.21,0,.43-.09.64-.15a.18.18,0,0,1,.23.12.2.2,0,0,1-.12.24c-.23.06-.45.12-.68.16s-.46.08-.69.11Z"/><path class="cls-6" d="M10,30.37a.18.18,0,0,1-.17-.13A.17.17,0,0,1,10,30c.22-.08.44-.15.67-.21s.47-.11.7-.15a.19.19,0,0,1,.07.37c-.23,0-.45.09-.67.15a6,6,0,0,0-.64.19Z"/><path class="cls-6" d="M11.35,32.18a.19.19,0,0,1-.18-.13.18.18,0,0,1,.13-.23c.22-.07.44-.12.67-.17l.7-.11a.19.19,0,0,1,.21.17.2.2,0,0,1-.17.21,6.53,6.53,0,0,0-.66.1,4.28,4.28,0,0,0-.64.16Z"/><path class="cls-6" d="M12.56,34.05a.19.19,0,0,1-.18-.14.19.19,0,0,1,.14-.23c.22,0,.45-.1.67-.13s.47-.06.7-.07a.18.18,0,0,1,.2.17.18.18,0,0,1-.18.2l-.66.07c-.22,0-.43.07-.64.12Z"/><path class="cls-6" d="M11.35,32.18a.19.19,0,0,1-.18-.13.18.18,0,0,1,.13-.23c.22-.07.44-.12.67-.17l.7-.11a.19.19,0,0,1,.21.17.2.2,0,0,1-.17.21,6.53,6.53,0,0,0-.66.1,4.28,4.28,0,0,0-.64.16Z"/><path class="cls-6" d="M12.69,62.3a.19.19,0,0,1-.06-.37,6.25,6.25,0,0,0,.6-.24,6.19,6.19,0,0,0,.58-.28.19.19,0,0,1,.26.07.2.2,0,0,1-.08.26q-.3.16-.6.3l-.64.25Z"/><path class="cls-6" d="M11.35,60.48a.19.19,0,0,1-.18-.13.18.18,0,0,1,.13-.23,5.29,5.29,0,0,0,.6-.21,6,6,0,0,0,.58-.25.18.18,0,0,1,.25.09.19.19,0,0,1-.08.25l-.61.26-.63.22Z"/><path class="cls-6" d="M13.9,61.76a.19.19,0,0,1-.16-.1.18.18,0,0,1,.07-.25,6.16,6.16,0,0,0,.55-.33,6,6,0,0,0,.51-.37.19.19,0,0,1,.27,0,.18.18,0,0,1,0,.26,5.3,5.3,0,0,1-.54.39c-.18.12-.38.23-.57.34Z"/><path class="cls-6" d="M12.57,60a.19.19,0,0,1-.09-.36,4.68,4.68,0,0,0,.54-.3,5.8,5.8,0,0,0,.52-.34.19.19,0,1,1,.22.3,6.33,6.33,0,0,1-.54.36,6.38,6.38,0,0,1-.57.32Z"/><path class="cls-6" d="M12.56,34.05a.19.19,0,0,1-.18-.14.19.19,0,0,1,.14-.23c.22,0,.45-.1.67-.13s.47-.06.7-.07a.18.18,0,0,1,.2.17.18.18,0,0,1-.18.2l-.66.07c-.22,0-.43.07-.64.12Z"/><path class="cls-6" d="M13.65,36a.17.17,0,0,1-.18-.15.18.18,0,0,1,.14-.22c.22-.05.45-.08.68-.11s.46,0,.7,0h0a.19.19,0,0,1,.19.19.2.2,0,0,1-.19.19,4.78,4.78,0,0,0-.66,0,4.49,4.49,0,0,0-.64.1Z"/><path class="cls-6" d="M13.65,36a.17.17,0,0,1-.18-.15.18.18,0,0,1,.14-.22c.22-.05.45-.08.68-.11s.46,0,.7,0h0a.19.19,0,0,1,.19.19.2.2,0,0,1-.19.19,4.78,4.78,0,0,0-.66,0,4.49,4.49,0,0,0-.64.1Z"/><path class="cls-6" d="M14.61,37.9a.19.19,0,0,1,0-.37c.23,0,.45-.07.68-.09s.46,0,.7,0a.19.19,0,0,1,.19.19.21.21,0,0,1-.2.19c-.22,0-.45,0-.66,0s-.43,0-.64.09Z"/><path class="cls-6" d="M15,61.05a.21.21,0,0,1-.15-.07.2.2,0,0,1,0-.27,6.12,6.12,0,0,0,.49-.4.18.18,0,0,1,.25.27,5.27,5.27,0,0,1-.51.43A.15.15,0,0,1,15,61.05Z"/><path class="cls-6" d="M13.65,59.36a.18.18,0,0,1-.15-.08.19.19,0,0,1,0-.26l.48-.38c.15-.14.31-.28.45-.43a.19.19,0,1,1,.27.26c-.15.16-.31.31-.47.45s-.34.28-.51.4A.15.15,0,0,1,13.65,59.36Z"/><path class="cls-6" d="M14.61,37.9a.19.19,0,0,1,0-.37c.23,0,.45-.07.68-.09s.46,0,.7,0a.19.19,0,0,1,.19.19.21.21,0,0,1-.2.19c-.22,0-.45,0-.66,0s-.43,0-.64.09Z"/><path class="cls-6" d="M15.44,39.87a.18.18,0,0,1-.18-.15.19.19,0,0,1,.14-.23,5.05,5.05,0,0,1,.68-.08,4.21,4.21,0,0,1,.71,0,.19.19,0,0,1,.18.2.2.2,0,0,1-.2.17H16.1a6.17,6.17,0,0,0-.62.08Z"/><path class="cls-6" d="M16.38,59.68a.17.17,0,0,1-.12,0,.19.19,0,0,1,0-.26c.14-.17.27-.35.39-.52a.19.19,0,0,1,.27,0,.19.19,0,0,1,0,.26,5.47,5.47,0,0,1-.41.54A.16.16,0,0,1,16.38,59.68Z"/><path class="cls-6" d="M14.61,58.53a.16.16,0,0,1-.13-.06.18.18,0,0,1,0-.26l.42-.47c.14-.17.27-.34.4-.52a.19.19,0,1,1,.3.22c-.13.18-.26.36-.41.54a6.48,6.48,0,0,1-.44.49A.16.16,0,0,1,14.61,58.53Z"/><path class="cls-6" d="M15.44,39.87a.18.18,0,0,1-.18-.15.19.19,0,0,1,.14-.23,5.05,5.05,0,0,1,.68-.08,4.21,4.21,0,0,1,.71,0,.19.19,0,0,1,.18.2.2.2,0,0,1-.2.17H16.1a6.17,6.17,0,0,0-.62.08Z"/><path class="cls-6" d="M16.14,41.86a.19.19,0,0,1-.18-.14.19.19,0,0,1,.14-.23,3.85,3.85,0,0,1,.68-.1,4.33,4.33,0,0,1,.72,0,.19.19,0,1,1,0,.37h-.66a3.83,3.83,0,0,0-.62.1Z"/><path class="cls-6" d="M16.78,59.15a.18.18,0,0,1-.15-.3c.12-.17.24-.36.36-.55l.33-.59a.17.17,0,0,1,.25-.08.18.18,0,0,1,.08.25c-.11.21-.22.42-.34.61s-.25.4-.38.58A.18.18,0,0,1,16.78,59.15Z"/><path class="cls-6" d="M15.44,57.52a.15.15,0,0,1-.11,0,.19.19,0,0,1,0-.26l.36-.55c.11-.19.22-.39.32-.6a.2.2,0,0,1,.26-.09.19.19,0,0,1,.08.25c-.11.22-.22.43-.34.63s-.25.39-.38.58A.18.18,0,0,1,15.44,57.52Z"/><path class="cls-6" d="M17.48,58l-.08,0a.18.18,0,0,1-.08-.25c.1-.2.2-.41.29-.63a6.5,6.5,0,0,0,.27-.66.18.18,0,0,1,.24-.11.18.18,0,0,1,.11.24c-.08.23-.17.46-.27.68s-.2.44-.31.65A.19.19,0,0,1,17.48,58Z"/><path class="cls-6" d="M16.14,56.34l-.08,0a.2.2,0,0,1-.09-.25c.11-.22.21-.44.31-.66s.18-.46.26-.7a.19.19,0,0,1,.36.12c-.09.25-.18.49-.28.72s-.2.46-.31.68A.18.18,0,0,1,16.14,56.34Z"/><path class="cls-6" d="M16.14,41.86a.19.19,0,0,1-.18-.14.19.19,0,0,1,.14-.23,3.85,3.85,0,0,1,.68-.1,4.33,4.33,0,0,1,.72,0,.19.19,0,1,1,0,.37h-.66a3.83,3.83,0,0,0-.62.1Z"/><path class="cls-6" d="M17.36,43.76a.2.2,0,0,1-.19-.17.19.19,0,0,1,.17-.21,4.39,4.39,0,0,1,.73,0,.19.19,0,0,1,0,.38,3.74,3.74,0,0,0-.67,0Z"/><path class="cls-6" d="M17.36,43.76a.2.2,0,0,1-.19-.17.19.19,0,0,1,.17-.21,4.39,4.39,0,0,1,.73,0,.19.19,0,0,1,0,.38,3.74,3.74,0,0,0-.67,0Z"/><path class="cls-6" d="M17.16,46.09A.18.18,0,0,1,17,46a.18.18,0,0,1,0-.26,2.15,2.15,0,0,1,.67-.31,2.45,2.45,0,0,1,.78-.11.19.19,0,0,1,0,.38h0a2.27,2.27,0,0,0-.65.09,1.73,1.73,0,0,0-.57.26A.2.2,0,0,1,17.16,46.09Z"/><path class="cls-6" d="M18.06,56.67H18a.2.2,0,0,1-.11-.24c.09-.23.16-.46.24-.7s.14-.48.2-.73a.18.18,0,0,1,.23-.14.19.19,0,0,1,.14.23c-.07.25-.14.51-.21.75s-.16.49-.25.72A.17.17,0,0,1,18.06,56.67Z"/><path class="cls-6" d="M16.72,55h-.06a.19.19,0,0,1-.12-.24c.09-.27.17-.54.24-.8s.14-.56.2-.85a.19.19,0,1,1,.37.07q-.09.45-.21.87c-.07.28-.15.56-.24.83A.19.19,0,0,1,16.72,55Z"/><path class="cls-6" d="M18.5,55.22h0a.19.19,0,0,1-.14-.23c.07-.25.13-.52.18-.79s.1-.55.14-.83a.18.18,0,0,1,.21-.16.19.19,0,0,1,.16.21c0,.29-.09.57-.14.85l-.18.82A.2.2,0,0,1,18.5,55.22Z"/><path class="cls-6" d="M17.16,53.28h0a.19.19,0,0,1-.15-.22c.1-.52.18-1.07.23-1.62a16.64,16.64,0,0,0,.08-1.76.19.19,0,0,1,.38,0c0,.62,0,1.22-.08,1.8s-.14,1.12-.24,1.65A.19.19,0,0,1,17.16,53.28Z"/><path class="cls-6" d="M17.48,49.87a.19.19,0,0,1-.19-.19,2.93,2.93,0,0,1,.4-1.57.19.19,0,0,1,.32.21,2.43,2.43,0,0,0-.34,1.36A.19.19,0,0,1,17.48,49.87Z"/><path class="cls-6" d="M17.16,46.09A.18.18,0,0,1,17,46a.18.18,0,0,1,0-.26,2.15,2.15,0,0,1,.67-.31,2.45,2.45,0,0,1,.78-.11.19.19,0,0,1,0,.38h0a2.27,2.27,0,0,0-.65.09,1.73,1.73,0,0,0-.57.26A.2.2,0,0,1,17.16,46.09Z"/><path class="cls-6" d="M18.82,53.57h0a.18.18,0,0,1-.16-.21c.06-.43.11-.89.14-1.35s0-1,0-1.44a.19.19,0,0,1,.19-.19h0a.18.18,0,0,1,.19.19c0,.48,0,1-.05,1.46s-.08.94-.14,1.38A.2.2,0,0,1,18.82,53.57Z"/><path class="cls-6" d="M17.48,49.87a.19.19,0,0,1-.19-.19,2.93,2.93,0,0,1,.4-1.57.19.19,0,0,1,.32.21,2.43,2.43,0,0,0-.34,1.36A.19.19,0,0,1,17.48,49.87Z"/><path class="cls-6" d="M8.8,58.81a.19.19,0,0,1-.19-.17.2.2,0,0,1,.18-.2c.23,0,.46,0,.67-.07s.43-.07.64-.12a.17.17,0,0,1,.22.13.18.18,0,0,1-.13.23c-.22,0-.45.1-.68.13a5.19,5.19,0,0,1-.7.07Z"/><path class="cls-6" d="M10,60.75a.18.18,0,0,1-.18-.17.18.18,0,0,1,.16-.2l.67-.11c.21,0,.43-.09.64-.15a.18.18,0,0,1,.23.12.2.2,0,0,1-.12.24c-.23.06-.45.12-.68.16s-.46.08-.69.11Z"/><path class="cls-6" d="M8.8,30.91a.19.19,0,0,1-.16-.1.19.19,0,0,1,.07-.26l.61-.29A5.5,5.5,0,0,1,10,30a.18.18,0,0,1,.24.11.19.19,0,0,1-.11.24c-.2.07-.41.15-.61.24l-.58.28A.16.16,0,0,1,8.8,30.91Z"/><path class="cls-6" d="M10.14,32.65a.21.21,0,0,1-.17-.1.19.19,0,0,1,.09-.25,5.63,5.63,0,0,1,.61-.27c.2-.08.41-.15.63-.22a.19.19,0,0,1,.23.13.2.2,0,0,1-.12.24,6.21,6.21,0,0,0-.61.2l-.58.25Z"/><path class="cls-6" d="M10.14,32.65a.21.21,0,0,1-.17-.1.19.19,0,0,1,.09-.25,5.63,5.63,0,0,1,.61-.27c.2-.08.41-.15.63-.22a.19.19,0,0,1,.23.13.2.2,0,0,1-.12.24,6.21,6.21,0,0,0-.61.2l-.58.25Z"/><path class="cls-6" d="M11.35,34.47a.18.18,0,0,1-.17-.11.19.19,0,0,1,.1-.25l.6-.24a5.17,5.17,0,0,1,.64-.19.2.2,0,0,1,.23.14.18.18,0,0,1-.14.22l-.6.18c-.19.07-.39.14-.58.23Z"/><path class="cls-6" d="M10.14,58.62a.19.19,0,0,1-.18-.15.18.18,0,0,1,.14-.22,5.94,5.94,0,0,0,.6-.18l.58-.23a.18.18,0,0,1,.24.09.18.18,0,0,1-.09.25,6.44,6.44,0,0,1-.61.24,6.55,6.55,0,0,1-.63.19Z"/><path class="cls-6" d="M11.35,60.48a.19.19,0,0,1-.18-.13.18.18,0,0,1,.13-.23,5.29,5.29,0,0,0,.6-.21,6,6,0,0,0,.58-.25.18.18,0,0,1,.25.09.19.19,0,0,1-.08.25l-.61.26-.63.22Z"/><path class="cls-6" d="M11.35,34.47a.18.18,0,0,1-.17-.11.19.19,0,0,1,.1-.25l.6-.24a5.17,5.17,0,0,1,.64-.19.2.2,0,0,1,.23.14.18.18,0,0,1-.14.22l-.6.18c-.19.07-.39.14-.58.23Z"/><path class="cls-6" d="M12.44,36.35a.19.19,0,0,1-.08-.36,4.49,4.49,0,0,1,.61-.23,4.64,4.64,0,0,1,.64-.17.18.18,0,0,1,.22.14.19.19,0,0,1-.14.23,5.26,5.26,0,0,0-.6.15l-.58.22Z"/><path class="cls-6" d="M11.35,58.2a.18.18,0,0,1-.17-.11.19.19,0,0,1,.1-.25c.18-.09.37-.18.54-.28s.34-.21.51-.33a.18.18,0,0,1,.26.05.19.19,0,0,1,0,.26c-.18.12-.36.24-.55.35s-.37.2-.57.29Z"/><path class="cls-6" d="M12.57,60a.19.19,0,0,1-.09-.36,4.68,4.68,0,0,0,.54-.3,5.8,5.8,0,0,0,.52-.34.19.19,0,1,1,.22.3,6.33,6.33,0,0,1-.54.36,6.38,6.38,0,0,1-.57.32Z"/><path class="cls-6" d="M12.44,36.35a.19.19,0,0,1-.08-.36,4.49,4.49,0,0,1,.61-.23,4.64,4.64,0,0,1,.64-.17.18.18,0,0,1,.22.14.19.19,0,0,1-.14.23,5.26,5.26,0,0,0-.6.15l-.58.22Z"/><path class="cls-6" d="M13.4,38.28a.2.2,0,0,1-.18-.11.18.18,0,0,1,.1-.24,4.54,4.54,0,0,1,.61-.24,5,5,0,0,1,.64-.16.18.18,0,0,1,.22.15.18.18,0,0,1-.15.22l-.6.15a4.45,4.45,0,0,0-.57.22Z"/><path class="cls-6" d="M13.65,59.36a.18.18,0,0,1-.15-.08.19.19,0,0,1,0-.26l.48-.38c.15-.14.31-.28.45-.43a.19.19,0,1,1,.27.26c-.15.16-.31.31-.47.45s-.34.28-.51.4A.15.15,0,0,1,13.65,59.36Z"/><path class="cls-6" d="M12.44,57.57a.18.18,0,0,1-.15-.08.18.18,0,0,1,0-.26,5.71,5.71,0,0,0,.48-.38,6,6,0,0,0,.45-.43.2.2,0,0,1,.27,0,.19.19,0,0,1,0,.26,5.07,5.07,0,0,1-.47.46l-.51.4A.23.23,0,0,1,12.44,57.57Z"/><path class="cls-6" d="M13.4,38.28a.2.2,0,0,1-.18-.11.18.18,0,0,1,.1-.24,4.54,4.54,0,0,1,.61-.24,5,5,0,0,1,.64-.16.18.18,0,0,1,.22.15.18.18,0,0,1-.15.22l-.6.15a4.45,4.45,0,0,0-.57.22Z"/><path class="cls-6" d="M14.23,40.28a.18.18,0,0,1-.17-.1.19.19,0,0,1,.08-.25,4.66,4.66,0,0,1,.61-.26c.21-.07.43-.13.65-.18a.19.19,0,0,1,.08.37,6.06,6.06,0,0,0-.61.16,5.55,5.55,0,0,0-.56.24A.11.11,0,0,1,14.23,40.28Z"/><path class="cls-6" d="M14.61,58.53a.16.16,0,0,1-.13-.06.18.18,0,0,1,0-.26l.42-.47c.14-.17.27-.34.4-.52a.19.19,0,1,1,.3.22c-.13.18-.26.36-.41.54a6.48,6.48,0,0,1-.44.49A.16.16,0,0,1,14.61,58.53Z"/><path class="cls-6" d="M13.4,56.74a.19.19,0,0,1-.14-.32,4.81,4.81,0,0,0,.42-.48.19.19,0,1,1,.3.24c-.14.17-.29.34-.45.5A.18.18,0,0,1,13.4,56.74Z"/><path class="cls-6" d="M15.44,57.52a.15.15,0,0,1-.11,0,.19.19,0,0,1,0-.26l.36-.55c.11-.19.22-.39.32-.6a.2.2,0,0,1,.26-.09.19.19,0,0,1,.08.25c-.11.22-.22.43-.34.63s-.25.39-.38.58A.18.18,0,0,1,15.44,57.52Z"/><path class="cls-6" d="M14.6,55.08a.15.15,0,0,1-.09,0,.19.19,0,0,1-.08-.25,6.77,6.77,0,0,0,.33-.66.2.2,0,0,1,.25-.1.2.2,0,0,1,.09.25,7.37,7.37,0,0,1-.34.69A.17.17,0,0,1,14.6,55.08Z"/><path class="cls-6" d="M14.23,40.28a.18.18,0,0,1-.17-.1.19.19,0,0,1,.08-.25,4.66,4.66,0,0,1,.61-.26c.21-.07.43-.13.65-.18a.19.19,0,0,1,.08.37,6.06,6.06,0,0,0-.61.16,5.55,5.55,0,0,0-.56.24A.11.11,0,0,1,14.23,40.28Z"/><path class="cls-6" d="M14.93,42.38a.21.21,0,0,1-.16-.08.19.19,0,0,1,.06-.26,3.51,3.51,0,0,1,.6-.33,4,4,0,0,1,.67-.22.19.19,0,1,1,.09.37,3.31,3.31,0,0,0-.61.19,5.86,5.86,0,0,0-.55.3A.17.17,0,0,1,14.93,42.38Z"/><path class="cls-6" d="M16.14,56.34l-.08,0a.2.2,0,0,1-.09-.25c.11-.22.21-.44.31-.66s.18-.46.26-.7a.19.19,0,0,1,.36.12c-.09.25-.18.49-.28.72s-.2.46-.31.68A.18.18,0,0,1,16.14,56.34Z"/><path class="cls-6" d="M14.93,54.41h-.08a.2.2,0,0,1-.09-.25c.11-.25.21-.51.31-.78s.18-.56.25-.85a.19.19,0,0,1,.37.09c-.08.3-.17.6-.27.88a8.54,8.54,0,0,1-.32.81A.18.18,0,0,1,14.93,54.41Z"/><path class="cls-6" d="M14.93,42.38a.21.21,0,0,1-.16-.08.19.19,0,0,1,.06-.26,3.51,3.51,0,0,1,.6-.33,4,4,0,0,1,.67-.22.19.19,0,1,1,.09.37,3.31,3.31,0,0,0-.61.19,5.86,5.86,0,0,0-.55.3A.17.17,0,0,1,14.93,42.38Z"/><path class="cls-6" d="M15.5,44.71a.18.18,0,0,1-.12-.05.19.19,0,0,1,0-.27,4.07,4.07,0,0,1,.59-.51,3.49,3.49,0,0,1,.7-.34.18.18,0,0,1,.23.12.17.17,0,0,1-.11.23,2.69,2.69,0,0,0-.61.31,2.48,2.48,0,0,0-.53.45A.18.18,0,0,1,15.5,44.71Z"/><path class="cls-6" d="M16.72,55h-.06a.19.19,0,0,1-.12-.24c.09-.27.17-.54.24-.8s.14-.56.2-.85a.19.19,0,1,1,.37.07q-.09.45-.21.87c-.07.28-.15.56-.24.83A.19.19,0,0,1,16.72,55Z"/><path class="cls-6" d="M15.5,52.75h0a.2.2,0,0,1-.14-.23,11.93,11.93,0,0,0,.33-1.76,17.82,17.82,0,0,0,.11-2,.19.19,0,0,1,.19-.19.2.2,0,0,1,.19.19,16.45,16.45,0,0,1-.12,2,14,14,0,0,1-.33,1.8A.19.19,0,0,1,15.5,52.75Z"/><path class="cls-6" d="M15.5,44.71a.18.18,0,0,1-.12-.05.19.19,0,0,1,0-.27,4.07,4.07,0,0,1,.59-.51,3.49,3.49,0,0,1,.7-.34.18.18,0,0,1,.23.12.17.17,0,0,1-.11.23,2.69,2.69,0,0,0-.61.31,2.48,2.48,0,0,0-.53.45A.18.18,0,0,1,15.5,44.71Z"/><path class="cls-6" d="M16,49a.19.19,0,0,1-.19-.19A4.77,4.77,0,0,1,16.1,47a2.69,2.69,0,0,1,1-1.2.19.19,0,0,1,.21.31,2.33,2.33,0,0,0-.82,1,4.2,4.2,0,0,0-.31,1.7A.2.2,0,0,1,16,49Z"/><path class="cls-6" d="M17.16,53.28h0a.19.19,0,0,1-.15-.22c.1-.52.18-1.07.23-1.62a16.64,16.64,0,0,0,.08-1.76.19.19,0,0,1,.38,0c0,.62,0,1.22-.08,1.8s-.14,1.12-.24,1.65A.19.19,0,0,1,17.16,53.28Z"/><path class="cls-6" d="M16,49a.19.19,0,0,1-.19-.19A4.77,4.77,0,0,1,16.1,47a2.69,2.69,0,0,1,1-1.2.19.19,0,0,1,.21.31,2.33,2.33,0,0,0-.82,1,4.2,4.2,0,0,0-.31,1.7A.2.2,0,0,1,16,49Z"/><path class="cls-6" d="M8.8,58.81a.19.19,0,0,1-.19-.17.2.2,0,0,1,.18-.2c.23,0,.46,0,.67-.07s.43-.07.64-.12a.17.17,0,0,1,.22.13.18.18,0,0,1-.13.23c-.22,0-.45.1-.68.13a5.19,5.19,0,0,1-.7.07Z"/><path class="cls-6" d="M7.72,56.85a.18.18,0,0,1-.19-.19.19.19,0,0,1,.18-.19c.23,0,.45,0,.67,0l.64-.1a.18.18,0,0,1,.22.14.18.18,0,0,1-.15.22,6.69,6.69,0,0,1-.67.11c-.23,0-.47,0-.7,0Z"/><path class="cls-6" d="M7.72,31.62a.19.19,0,0,1-.15-.08.18.18,0,0,1,0-.26l.54-.38.57-.35a.21.21,0,0,1,.26.08.18.18,0,0,1-.08.25l-.54.33a6.15,6.15,0,0,0-.52.37A.21.21,0,0,1,7.72,31.62Z"/><path class="cls-6" d="M9.06,33.31a.21.21,0,0,1-.16-.08A.18.18,0,0,1,9,33a5.07,5.07,0,0,1,.54-.36c.18-.11.37-.22.57-.32a.2.2,0,0,1,.25.09.18.18,0,0,1-.09.25,5.7,5.7,0,0,0-.54.3,4.52,4.52,0,0,0-.51.34A.19.19,0,0,1,9.06,33.31Z"/><path class="cls-6" d="M10.14,58.62a.19.19,0,0,1-.18-.15.18.18,0,0,1,.14-.22,5.94,5.94,0,0,0,.6-.18l.58-.23a.18.18,0,0,1,.24.09.18.18,0,0,1-.09.25,6.44,6.44,0,0,1-.61.24,6.55,6.55,0,0,1-.63.19Z"/><path class="cls-6" d="M9.06,56.71a.19.19,0,0,1,0-.37l.6-.16c.2-.07.39-.14.57-.22a.19.19,0,0,1,.25.1.18.18,0,0,1-.1.24,4,4,0,0,1-.61.23,4,4,0,0,1-.64.17Z"/><path class="cls-6" d="M9.06,33.31a.21.21,0,0,1-.16-.08A.18.18,0,0,1,9,33a5.07,5.07,0,0,1,.54-.36c.18-.11.37-.22.57-.32a.2.2,0,0,1,.25.09.18.18,0,0,1-.09.25,5.7,5.7,0,0,0-.54.3,4.52,4.52,0,0,0-.51.34A.19.19,0,0,1,9.06,33.31Z"/><path class="cls-6" d="M11.35,58.2a.18.18,0,0,1-.17-.11.19.19,0,0,1,.1-.25c.18-.09.37-.18.54-.28s.34-.21.51-.33a.18.18,0,0,1,.26.05.19.19,0,0,1,0,.26c-.18.12-.36.24-.55.35s-.37.2-.57.29Z"/><path class="cls-6" d="M10.27,56.32a.19.19,0,0,1-.08-.36c.19-.09.37-.18.54-.28a3.16,3.16,0,0,0,.51-.33.19.19,0,0,1,.26,0,.18.18,0,0,1,0,.27,4.51,4.51,0,0,1-.54.35,4.48,4.48,0,0,1-.58.29Z"/><path class="cls-6" d="M11.35,37a.19.19,0,0,1-.15-.07.19.19,0,0,1,0-.26,6.33,6.33,0,0,1,.54-.36c.19-.1.38-.2.58-.29a.19.19,0,0,1,.25.09.19.19,0,0,1-.1.25c-.18.09-.37.18-.54.28a5.54,5.54,0,0,0-.51.33A.2.2,0,0,1,11.35,37Z"/><path class="cls-6" d="M11.35,37a.19.19,0,0,1-.15-.07.19.19,0,0,1,0-.26,6.33,6.33,0,0,1,.54-.36c.19-.1.38-.2.58-.29a.19.19,0,0,1,.25.09.19.19,0,0,1-.1.25c-.18.09-.37.18-.54.28a5.54,5.54,0,0,0-.51.33A.2.2,0,0,1,11.35,37Z"/><path class="cls-6" d="M12.31,39a.19.19,0,0,1-.15-.07.19.19,0,0,1,0-.26,4.8,4.8,0,0,1,.54-.38,4.14,4.14,0,0,1,.59-.31.18.18,0,0,1,.25.09.19.19,0,0,1-.1.25,3.5,3.5,0,0,0-.54.29,5.62,5.62,0,0,0-.5.35A.19.19,0,0,1,12.31,39Z"/><path class="cls-6" d="M12.44,57.57a.18.18,0,0,1-.15-.08.18.18,0,0,1,0-.26,5.71,5.71,0,0,0,.48-.38,6,6,0,0,0,.45-.43.2.2,0,0,1,.27,0,.19.19,0,0,1,0,.26,5.07,5.07,0,0,1-.47.46l-.51.4A.23.23,0,0,1,12.44,57.57Z"/><path class="cls-6" d="M11.35,55.69a.19.19,0,0,1-.15-.07.2.2,0,0,1,0-.27,6,6,0,0,0,.49-.39,6.25,6.25,0,0,0,.44-.45.19.19,0,0,1,.27,0,.2.2,0,0,1,0,.27c-.15.16-.31.33-.47.48s-.34.29-.52.42A.2.2,0,0,1,11.35,55.69Z"/><path class="cls-6" d="M13.4,56.74a.19.19,0,0,1-.14-.32,4.81,4.81,0,0,0,.42-.48.19.19,0,1,1,.3.24c-.14.17-.29.34-.45.5A.18.18,0,0,1,13.4,56.74Z"/><path class="cls-6" d="M12.31,54.82a.18.18,0,0,1-.12,0,.18.18,0,0,1,0-.26A6,6,0,0,0,12.6,54a6.66,6.66,0,0,0,.38-.59.19.19,0,0,1,.26-.07.17.17,0,0,1,.06.25,6.73,6.73,0,0,1-.4.63c-.15.21-.3.39-.45.57A.2.2,0,0,1,12.31,54.82Z"/><path class="cls-6" d="M12.31,39a.19.19,0,0,1-.15-.07.19.19,0,0,1,0-.26,4.8,4.8,0,0,1,.54-.38,4.14,4.14,0,0,1,.59-.31.18.18,0,0,1,.25.09.19.19,0,0,1-.1.25,3.5,3.5,0,0,0-.54.29,5.62,5.62,0,0,0-.5.35A.19.19,0,0,1,12.31,39Z"/><path class="cls-6" d="M13.14,41.07A.15.15,0,0,1,13,41a.2.2,0,0,1,0-.27,4.6,4.6,0,0,1,.54-.45,3.92,3.92,0,0,1,.59-.37.18.18,0,0,1,.25.08.17.17,0,0,1-.08.25,3.77,3.77,0,0,0-.54.34,4.84,4.84,0,0,0-.5.42A.15.15,0,0,1,13.14,41.07Z"/><path class="cls-6" d="M13.14,53.66l-.09,0a.18.18,0,0,1-.07-.25c.13-.24.26-.49.37-.75a8.75,8.75,0,0,0,.32-.82.18.18,0,0,1,.23-.12.19.19,0,0,1,.12.24,7.85,7.85,0,0,1-.72,1.63A.18.18,0,0,1,13.14,53.66Z"/><path class="cls-6" d="M14.6,55.08a.15.15,0,0,1-.09,0,.19.19,0,0,1-.08-.25,6.77,6.77,0,0,0,.33-.66.2.2,0,0,1,.25-.1.2.2,0,0,1,.09.25,7.37,7.37,0,0,1-.34.69A.17.17,0,0,1,14.6,55.08Z"/><path class="cls-6" d="M13.14,41.07A.15.15,0,0,1,13,41a.2.2,0,0,1,0-.27,4.6,4.6,0,0,1,.54-.45,3.92,3.92,0,0,1,.59-.37.18.18,0,0,1,.25.08.17.17,0,0,1-.08.25,3.77,3.77,0,0,0-.54.34,4.84,4.84,0,0,0-.5.42A.15.15,0,0,1,13.14,41.07Z"/><path class="cls-6" d="M13.84,43.48a.19.19,0,0,1-.1,0,.18.18,0,0,1-.05-.26,4,4,0,0,1,.52-.64,3.83,3.83,0,0,1,.62-.51.18.18,0,1,1,.2.31,4.06,4.06,0,0,0-.55.46,3.87,3.87,0,0,0-.48.59A.18.18,0,0,1,13.84,43.48Z"/><path class="cls-6" d="M13.84,43.48a.19.19,0,0,1-.1,0,.18.18,0,0,1-.05-.26,4,4,0,0,1,.52-.64,3.83,3.83,0,0,1,.62-.51.18.18,0,1,1,.2.31,4.06,4.06,0,0,0-.55.46,3.87,3.87,0,0,0-.48.59A.18.18,0,0,1,13.84,43.48Z"/><path class="cls-6" d="M14.42,48.1a.18.18,0,0,1-.19-.19,6.72,6.72,0,0,1,.29-2,4.1,4.1,0,0,1,.85-1.49.18.18,0,0,1,.26,0,.19.19,0,0,1,0,.27A3.64,3.64,0,0,0,14.88,46a6.35,6.35,0,0,0-.28,1.92A.18.18,0,0,1,14.42,48.1Z"/><path class="cls-6" d="M13.84,52.06h-.05a.18.18,0,0,1-.12-.24A10.9,10.9,0,0,0,14.08,50a14,14,0,0,0,.15-2.09.18.18,0,0,1,.19-.18.18.18,0,0,1,.18.18,14.57,14.57,0,0,1-.15,2.14A10.56,10.56,0,0,1,14,51.93.18.18,0,0,1,13.84,52.06Z"/><path class="cls-6" d="M14.93,54.41h-.08a.2.2,0,0,1-.09-.25c.11-.25.21-.51.31-.78s.18-.56.25-.85a.19.19,0,0,1,.37.09c-.08.3-.17.6-.27.88a8.54,8.54,0,0,1-.32.81A.18.18,0,0,1,14.93,54.41Z"/><path class="cls-6" d="M14.42,48.1a.18.18,0,0,1-.19-.19,6.72,6.72,0,0,1,.29-2,4.1,4.1,0,0,1,.85-1.49.18.18,0,0,1,.26,0,.19.19,0,0,1,0,.27A3.64,3.64,0,0,0,14.88,46a6.35,6.35,0,0,0-.28,1.92A.18.18,0,0,1,14.42,48.1Z"/><path class="cls-6" d="M15.5,52.75h0a.2.2,0,0,1-.14-.23,11.93,11.93,0,0,0,.33-1.76,17.82,17.82,0,0,0,.11-2,.19.19,0,0,1,.19-.19.2.2,0,0,1,.19.19,16.45,16.45,0,0,1-.12,2,14,14,0,0,1-.33,1.8A.19.19,0,0,1,15.5,52.75Z"/><path class="cls-6" d="M7,54.87H6.75a.19.19,0,0,1-.18-.2.19.19,0,0,1,.19-.18,5,5,0,0,0,.67,0,6,6,0,0,0,.63-.09.19.19,0,0,1,.22.15.18.18,0,0,1-.15.22,4.71,4.71,0,0,1-.67.09A4.26,4.26,0,0,1,7,54.87Z"/><path class="cls-6" d="M7.72,56.85a.18.18,0,0,1-.19-.19.19.19,0,0,1,.18-.19c.23,0,.45,0,.67,0l.64-.1a.18.18,0,0,1,.22.14.18.18,0,0,1-.15.22,6.69,6.69,0,0,1-.67.11c-.23,0-.47,0-.7,0Z"/><path class="cls-6" d="M6.76,32.49a.21.21,0,0,1-.13-.05.18.18,0,0,1,0-.26,5.32,5.32,0,0,1,.48-.47c.16-.15.33-.29.5-.43a.19.19,0,0,1,.26,0,.19.19,0,0,1,0,.27l-.48.4-.46.45A.16.16,0,0,1,6.76,32.49Z"/><path class="cls-6" d="M8.1,34.14A.19.19,0,0,1,8,33.82l.48-.45A5.93,5.93,0,0,1,9,33a.19.19,0,1,1,.22.3c-.16.12-.32.24-.49.39l-.45.42A.16.16,0,0,1,8.1,34.14Z"/><path class="cls-6" d="M8.1,34.14A.19.19,0,0,1,8,33.82l.48-.45A5.93,5.93,0,0,1,9,33a.19.19,0,1,1,.22.3c-.16.12-.32.24-.49.39l-.45.42A.16.16,0,0,1,8.1,34.14Z"/><path class="cls-6" d="M9.31,35.92a.17.17,0,0,1-.13-.05.19.19,0,0,1,0-.26c.16-.17.32-.32.48-.46s.33-.27.51-.4a.18.18,0,0,1,.26,0,.19.19,0,0,1,0,.26c-.17.12-.33.25-.48.38a3.64,3.64,0,0,0-.45.43A.24.24,0,0,1,9.31,35.92Z"/><path class="cls-6" d="M8.1,54.77a.2.2,0,0,1-.19-.16.19.19,0,0,1,.15-.22,3.76,3.76,0,0,0,.6-.15A3.54,3.54,0,0,0,9.23,54a.19.19,0,0,1,.25.1.2.2,0,0,1-.09.25,5.05,5.05,0,0,1-.61.23,4.74,4.74,0,0,1-.65.16Z"/><path class="cls-6" d="M9.06,56.71a.19.19,0,0,1,0-.37l.6-.16c.2-.07.39-.14.57-.22a.19.19,0,0,1,.25.1.18.18,0,0,1-.1.24,4,4,0,0,1-.61.23,4,4,0,0,1-.64.17Z"/><path class="cls-6" d="M10.27,56.32a.19.19,0,0,1-.08-.36c.19-.09.37-.18.54-.28a3.16,3.16,0,0,0,.51-.33.19.19,0,0,1,.26,0,.18.18,0,0,1,0,.27,4.51,4.51,0,0,1-.54.35,4.48,4.48,0,0,1-.58.29Z"/><path class="cls-6" d="M9.31,35.92a.17.17,0,0,1-.13-.05.19.19,0,0,1,0-.26c.16-.17.32-.32.48-.46s.33-.27.51-.4a.18.18,0,0,1,.26,0,.19.19,0,0,1,0,.26c-.17.12-.33.25-.48.38a3.64,3.64,0,0,0-.45.43A.24.24,0,0,1,9.31,35.92Z"/><path class="cls-6" d="M10.39,37.85a.21.21,0,0,1-.12-.05.2.2,0,0,1,0-.27c.15-.16.31-.32.48-.47a4.06,4.06,0,0,1,.51-.42.19.19,0,0,1,.22.3,5.84,5.84,0,0,0-.48.39q-.24.22-.45.45A.15.15,0,0,1,10.39,37.85Z"/><path class="cls-6" d="M10.39,37.85a.21.21,0,0,1-.12-.05.2.2,0,0,1,0-.27c.15-.16.31-.32.48-.47a4.06,4.06,0,0,1,.51-.42.19.19,0,0,1,.22.3,5.84,5.84,0,0,0-.48.39q-.24.22-.45.45A.15.15,0,0,1,10.39,37.85Z"/><path class="cls-6" d="M11.35,40a.18.18,0,0,1-.15-.3c.15-.19.31-.38.47-.55a5.91,5.91,0,0,1,.52-.48.2.2,0,0,1,.27,0,.19.19,0,0,1,0,.26,5.23,5.23,0,0,0-.49.45,5.73,5.73,0,0,0-.44.52A.17.17,0,0,1,11.35,40Z"/><path class="cls-6" d="M10.39,53.71a.17.17,0,0,1-.14-.07.18.18,0,0,1,0-.26,5.11,5.11,0,0,0,.48-.45,4.47,4.47,0,0,0,.44-.52.19.19,0,0,1,.27,0,.18.18,0,0,1,0,.26,5,5,0,0,1-.47.55,4.77,4.77,0,0,1-.52.48A.16.16,0,0,1,10.39,53.71Z"/><path class="cls-6" d="M11.35,55.69a.19.19,0,0,1-.15-.07.2.2,0,0,1,0-.27,6,6,0,0,0,.49-.39,6.25,6.25,0,0,0,.44-.45.19.19,0,0,1,.27,0,.2.2,0,0,1,0,.27c-.15.16-.31.33-.47.48s-.34.29-.52.42A.2.2,0,0,1,11.35,55.69Z"/><path class="cls-6" d="M12.18,42.4l-.08,0a.19.19,0,0,1-.08-.25,4.17,4.17,0,0,1,.45-.74,5.54,5.54,0,0,1,.54-.64.19.19,0,0,1,.27,0,.18.18,0,0,1,0,.26,4.85,4.85,0,0,0-.5.59,5.75,5.75,0,0,0-.42.69A.19.19,0,0,1,12.18,42.4Z"/><path class="cls-6" d="M11.35,40a.18.18,0,0,1-.15-.3c.15-.19.31-.38.47-.55a5.91,5.91,0,0,1,.52-.48.2.2,0,0,1,.27,0,.19.19,0,0,1,0,.26,5.23,5.23,0,0,0-.49.45,5.73,5.73,0,0,0-.44.52A.17.17,0,0,1,11.35,40Z"/><path class="cls-6" d="M12.31,54.82a.18.18,0,0,1-.12,0,.18.18,0,0,1,0-.26A6,6,0,0,0,12.6,54a6.66,6.66,0,0,0,.38-.59.19.19,0,0,1,.26-.07.17.17,0,0,1,.06.25,6.73,6.73,0,0,1-.4.63c-.15.21-.3.39-.45.57A.2.2,0,0,1,12.31,54.82Z"/><path class="cls-6" d="M11.35,52.71a.18.18,0,0,1-.15-.3,6,6,0,0,0,.44-.67A6.08,6.08,0,0,0,12,51a.19.19,0,1,1,.35.14q-.18.42-.39.81a6.84,6.84,0,0,1-.47.72A.17.17,0,0,1,11.35,52.71Z"/><path class="cls-6" d="M12.18,51.23l-.07,0A.19.19,0,0,1,12,51a9.47,9.47,0,0,0,.51-1.8.19.19,0,0,1,.22-.15.18.18,0,0,1,.15.21,9.39,9.39,0,0,1-.53,1.88A.2.2,0,0,1,12.18,51.23Z"/><path class="cls-6" d="M13.14,53.66l-.09,0a.18.18,0,0,1-.07-.25c.13-.24.26-.49.37-.75a8.75,8.75,0,0,0,.32-.82.18.18,0,0,1,.23-.12.19.19,0,0,1,.12.24,7.85,7.85,0,0,1-.72,1.63A.18.18,0,0,1,13.14,53.66Z"/><path class="cls-6" d="M12.18,42.4l-.08,0a.19.19,0,0,1-.08-.25,4.17,4.17,0,0,1,.45-.74,5.54,5.54,0,0,1,.54-.64.19.19,0,0,1,.27,0,.18.18,0,0,1,0,.26,4.85,4.85,0,0,0-.5.59,5.75,5.75,0,0,0-.42.69A.19.19,0,0,1,12.18,42.4Z"/><path class="cls-6" d="M12.88,47.22A.19.19,0,0,1,12.7,47,8.52,8.52,0,0,1,13,44.88a5.77,5.77,0,0,1,.74-1.69.19.19,0,0,1,.26,0,.19.19,0,0,1,.05.26A5.08,5.08,0,0,0,13.32,45,7.86,7.86,0,0,0,13.07,47,.19.19,0,0,1,12.88,47.22Z"/><path class="cls-6" d="M13.84,52.06h-.05a.18.18,0,0,1-.12-.24A10.9,10.9,0,0,0,14.08,50a14,14,0,0,0,.15-2.09.18.18,0,0,1,.19-.18.18.18,0,0,1,.18.18,14.57,14.57,0,0,1-.15,2.14A10.56,10.56,0,0,1,14,51.93.18.18,0,0,1,13.84,52.06Z"/><path class="cls-6" d="M12.88,47.22A.19.19,0,0,1,12.7,47,8.52,8.52,0,0,1,13,44.88a5.77,5.77,0,0,1,.74-1.69.19.19,0,0,1,.26,0,.19.19,0,0,1,.05.26A5.08,5.08,0,0,0,13.32,45,7.86,7.86,0,0,0,13.07,47,.19.19,0,0,1,12.88,47.22Z"/><path class="cls-6" d="M6.27,52.89H5.92a.18.18,0,0,1-.18-.19.18.18,0,0,1,.2-.18c.22,0,.45,0,.66,0a4.52,4.52,0,0,0,.63-.08.19.19,0,1,1,.07.37,5.1,5.1,0,0,1-.67.08Z"/><path class="cls-6" d="M7,54.87H6.75a.19.19,0,0,1-.18-.2.19.19,0,0,1,.19-.18,5,5,0,0,0,.67,0,6,6,0,0,0,.63-.09.19.19,0,0,1,.22.15.18.18,0,0,1-.15.22,4.71,4.71,0,0,1-.67.09A4.26,4.26,0,0,1,7,54.87Z"/><path class="cls-6" d="M5.93,33.52a.21.21,0,0,1-.11,0,.18.18,0,0,1-.05-.26c.13-.19.27-.37.41-.54s.29-.34.44-.5a.19.19,0,0,1,.27,0,.18.18,0,0,1,0,.26l-.42.48-.39.53A.19.19,0,0,1,5.93,33.52Z"/><path class="cls-6" d="M7.67,34.62a.16.16,0,0,1-.12,0,.19.19,0,0,1,0-.26c.14-.18.29-.34.44-.5a.2.2,0,0,1,.27,0,.19.19,0,0,1,0,.26l-.42.47A.17.17,0,0,1,7.67,34.62Z"/><path class="cls-6" d="M7.27,52.8a.19.19,0,0,1,0-.37,5.87,5.87,0,0,0,.6-.16A4.1,4.1,0,0,0,8.39,52a.2.2,0,0,1,.26.08.19.19,0,0,1-.08.25,4.26,4.26,0,0,1-.62.26c-.21.07-.43.13-.65.18Z"/><path class="cls-6" d="M8.1,54.77a.2.2,0,0,1-.19-.16.19.19,0,0,1,.15-.22,3.76,3.76,0,0,0,.6-.15A3.54,3.54,0,0,0,9.23,54a.19.19,0,0,1,.25.1.2.2,0,0,1-.09.25,5.05,5.05,0,0,1-.61.23,4.74,4.74,0,0,1-.65.16Z"/><path class="cls-6" d="M7.67,34.62a.16.16,0,0,1-.12,0,.19.19,0,0,1,0-.26c.14-.18.29-.34.44-.5a.2.2,0,0,1,.27,0,.19.19,0,0,1,0,.26l-.42.47A.17.17,0,0,1,7.67,34.62Z"/><path class="cls-6" d="M8.48,37a.13.13,0,0,1-.1,0,.19.19,0,0,1-.06-.26c.13-.19.27-.38.41-.55s.29-.35.44-.51a.19.19,0,0,1,.27,0,.2.2,0,0,1,0,.27c-.15.15-.29.31-.43.48s-.26.34-.38.53A.19.19,0,0,1,8.48,37Z"/><path class="cls-6" d="M8.48,37a.13.13,0,0,1-.1,0,.19.19,0,0,1-.06-.26c.13-.19.27-.38.41-.55s.29-.35.44-.51a.19.19,0,0,1,.27,0,.2.2,0,0,1,0,.27c-.15.15-.29.31-.43.48s-.26.34-.38.53A.19.19,0,0,1,8.48,37Z"/><path class="cls-6" d="M9.56,39l-.09,0a.2.2,0,0,1-.07-.26c.13-.22.26-.43.4-.63s.3-.39.45-.57a.2.2,0,0,1,.27,0,.19.19,0,0,1,0,.26,5.66,5.66,0,0,0-.43.54,6.1,6.1,0,0,0-.38.6A.2.2,0,0,1,9.56,39Z"/><path class="cls-6" d="M8.48,52.38a.21.21,0,0,1-.17-.1A.18.18,0,0,1,8.39,52a4.17,4.17,0,0,0,1-.76.19.19,0,0,1,.27.27,5,5,0,0,1-1.14.82A.11.11,0,0,1,8.48,52.38Z"/><path class="cls-6" d="M9.56,39l-.09,0a.2.2,0,0,1-.07-.26c.13-.22.26-.43.4-.63s.3-.39.45-.57a.2.2,0,0,1,.27,0,.19.19,0,0,1,0,.26,5.66,5.66,0,0,0-.43.54,6.1,6.1,0,0,0-.38.6A.2.2,0,0,1,9.56,39Z"/><path class="cls-6" d="M10.52,41.44h-.07a.2.2,0,0,1-.1-.25,6,6,0,0,1,.39-.81,7.38,7.38,0,0,1,.46-.72.2.2,0,0,1,.27,0,.19.19,0,0,1,0,.27,5.64,5.64,0,0,0-.43.68,5.33,5.33,0,0,0-.37.76A.18.18,0,0,1,10.52,41.44Z"/><path class="cls-6" d="M9.56,51.59a.24.24,0,0,1-.13-.05.2.2,0,0,1,0-.27,4.63,4.63,0,0,0,.5-.58,5.46,5.46,0,0,0,.43-.7.19.19,0,0,1,.25-.08.19.19,0,0,1,.08.26,7.66,7.66,0,0,1-.45.74,6.62,6.62,0,0,1-.54.63A.24.24,0,0,1,9.56,51.59Z"/><path class="cls-6" d="M10.39,53.71a.17.17,0,0,1-.14-.07.18.18,0,0,1,0-.26,5.11,5.11,0,0,0,.48-.45,4.47,4.47,0,0,0,.44-.52.19.19,0,0,1,.27,0,.18.18,0,0,1,0,.26,5,5,0,0,1-.47.55,4.77,4.77,0,0,1-.52.48A.16.16,0,0,1,10.39,53.71Z"/><path class="cls-6" d="M10.52,41.44h-.07a.2.2,0,0,1-.1-.25,6,6,0,0,1,.39-.81,7.38,7.38,0,0,1,.46-.72.2.2,0,0,1,.27,0,.19.19,0,0,1,0,.27,5.64,5.64,0,0,0-.43.68,5.33,5.33,0,0,0-.37.76A.18.18,0,0,1,10.52,41.44Z"/><path class="cls-6" d="M10.52,50.27l-.08,0a.19.19,0,0,1-.08-.26A6.76,6.76,0,0,0,11,48.28a10.24,10.24,0,0,0,.22-2.13.18.18,0,0,1,.18-.19.18.18,0,0,1,.19.19,10.19,10.19,0,0,1-.22,2.2,7.1,7.1,0,0,1-.63,1.82A.19.19,0,0,1,10.52,50.27Z"/><path class="cls-6" d="M11.35,52.71a.18.18,0,0,1-.15-.3,6,6,0,0,0,.44-.67A6.08,6.08,0,0,0,12,51a.19.19,0,1,1,.35.14q-.18.42-.39.81a6.84,6.84,0,0,1-.47.72A.17.17,0,0,1,11.35,52.71Z"/><path class="cls-6" d="M12.18,51.23l-.07,0A.19.19,0,0,1,12,51a9.47,9.47,0,0,0,.51-1.8.19.19,0,0,1,.22-.15.18.18,0,0,1,.15.21,9.39,9.39,0,0,1-.53,1.88A.2.2,0,0,1,12.18,51.23Z"/><path class="cls-6" d="M5.22,34.69l-.08,0a.2.2,0,0,1-.08-.26c.1-.21.22-.41.34-.61s.24-.39.37-.58a.19.19,0,1,1,.31.22c-.12.17-.24.36-.36.55s-.23.39-.33.59A.18.18,0,0,1,5.22,34.69Z"/><path class="cls-6" d="M6.56,36.33l-.08,0a.19.19,0,0,1-.08-.25c.1-.22.22-.42.34-.63A.18.18,0,0,1,7,35.37a.19.19,0,0,1,.07.26,5.76,5.76,0,0,0-.33.6A.19.19,0,0,1,6.56,36.33Z"/><path class="cls-6" d="M5.58,50.92l-.37,0a.19.19,0,0,1,0-.37H5.9a6.17,6.17,0,0,0,.62-.09.19.19,0,0,1,.23.14.18.18,0,0,1-.14.22,3.85,3.85,0,0,1-.68.1Z"/><path class="cls-6" d="M6.27,52.89H5.92a.18.18,0,0,1-.18-.19.18.18,0,0,1,.2-.18c.22,0,.45,0,.66,0a4.52,4.52,0,0,0,.63-.08.19.19,0,1,1,.07.37,5.1,5.1,0,0,1-.67.08Z"/><path class="cls-6" d="M6.56,36.33l-.08,0a.19.19,0,0,1-.08-.25c.1-.22.22-.42.34-.63A.18.18,0,0,1,7,35.37a.19.19,0,0,1,.07.26,5.76,5.76,0,0,0-.33.6A.19.19,0,0,1,6.56,36.33Z"/><path class="cls-6" d="M7.78,38.25H7.7A.19.19,0,0,1,7.6,38c.11-.24.22-.47.34-.68s.25-.43.38-.64a.19.19,0,0,1,.26-.05.19.19,0,0,1,.06.26c-.13.2-.26.4-.37.61s-.22.42-.32.65A.18.18,0,0,1,7.78,38.25Z"/><path class="cls-6" d="M6.56,50.81a.19.19,0,0,1-.18-.15.18.18,0,0,1,.14-.22,3.84,3.84,0,0,0,.6-.2,4.83,4.83,0,0,0,.55-.3.19.19,0,0,1,.26.05.18.18,0,0,1,0,.26,3.6,3.6,0,0,1-.61.33,3.65,3.65,0,0,1-.66.22Z"/><path class="cls-6" d="M7.27,52.8a.19.19,0,0,1,0-.37,5.87,5.87,0,0,0,.6-.16A4.1,4.1,0,0,0,8.39,52a.2.2,0,0,1,.26.08.19.19,0,0,1-.08.25,4.26,4.26,0,0,1-.62.26c-.21.07-.43.13-.65.18Z"/><path class="cls-6" d="M7.78,50.28a.21.21,0,0,1-.16-.08.19.19,0,0,1,0-.26,3.51,3.51,0,0,0,.56-.46,4.74,4.74,0,0,0,.48-.59.18.18,0,0,1,.26,0,.19.19,0,0,1,0,.26,4.68,4.68,0,0,1-.52.64,3.74,3.74,0,0,1-.62.51A.19.19,0,0,1,7.78,50.28Z"/><path class="cls-6" d="M8.48,52.38a.21.21,0,0,1-.17-.1A.18.18,0,0,1,8.39,52a4.17,4.17,0,0,0,1-.76.19.19,0,0,1,.27.27,5,5,0,0,1-1.14.82A.11.11,0,0,1,8.48,52.38Z"/><path class="cls-6" d="M8.86,40.61H8.8a.19.19,0,0,1-.12-.24A8.37,8.37,0,0,1,9,39.51q.18-.4.39-.78a.19.19,0,1,1,.33.19,7.33,7.33,0,0,0-.38.74c-.11.25-.21.53-.31.82A.19.19,0,0,1,8.86,40.61Z"/><path class="cls-6" d="M7.78,38.25H7.7A.19.19,0,0,1,7.6,38c.11-.24.22-.47.34-.68s.25-.43.38-.64a.19.19,0,0,1,.26-.05.19.19,0,0,1,.06.26c-.13.2-.26.4-.37.61s-.22.42-.32.65A.18.18,0,0,1,7.78,38.25Z"/><path class="cls-6" d="M8.86,49.18a.19.19,0,0,1-.1,0,.18.18,0,0,1,0-.26,5.6,5.6,0,0,0,.68-1.57,8.26,8.26,0,0,0,.24-2.06.19.19,0,0,1,.38,0,8.45,8.45,0,0,1-.26,2.15A5.4,5.4,0,0,1,9,49.1.21.21,0,0,1,8.86,49.18Z"/><path class="cls-6" d="M9.56,51.59a.24.24,0,0,1-.13-.05.2.2,0,0,1,0-.27,4.63,4.63,0,0,0,.5-.58,5.46,5.46,0,0,0,.43-.7.19.19,0,0,1,.25-.08.19.19,0,0,1,.08.26,7.66,7.66,0,0,1-.45.74,6.62,6.62,0,0,1-.54.63A.24.24,0,0,1,9.56,51.59Z"/><path class="cls-6" d="M8.86,40.61H8.8a.19.19,0,0,1-.12-.24A8.37,8.37,0,0,1,9,39.51q.18-.4.39-.78a.19.19,0,1,1,.33.19,7.33,7.33,0,0,0-.38.74c-.11.25-.21.53-.31.82A.19.19,0,0,1,8.86,40.61Z"/><path class="cls-6" d="M9.82,45.45a.2.2,0,0,1-.19-.19,12.87,12.87,0,0,1,.19-2.2,9.58,9.58,0,0,1,.53-1.88.19.19,0,0,1,.24-.1.18.18,0,0,1,.11.24,8.36,8.36,0,0,0-.51,1.8A12.19,12.19,0,0,0,10,45.26.2.2,0,0,1,9.82,45.45Z"/><path class="cls-6" d="M9.82,45.45a.2.2,0,0,1-.19-.19,12.87,12.87,0,0,1,.19-2.2,9.58,9.58,0,0,1,.53-1.88.19.19,0,0,1,.24-.1.18.18,0,0,1,.11.24,8.36,8.36,0,0,0-.51,1.8A12.19,12.19,0,0,0,10,45.26.2.2,0,0,1,9.82,45.45Z"/><path class="cls-6" d="M10.52,50.27l-.08,0a.19.19,0,0,1-.08-.26A6.76,6.76,0,0,0,11,48.28a10.24,10.24,0,0,0,.22-2.13.18.18,0,0,1,.18-.19.18.18,0,0,1,.19.19,10.19,10.19,0,0,1-.22,2.2,7.1,7.1,0,0,1-.63,1.82A.19.19,0,0,1,10.52,50.27Z"/><path class="cls-6" d="M4.9,48.94H4.64a.19.19,0,0,1-.18-.2.2.2,0,0,1,.2-.18,3.61,3.61,0,0,0,.66,0,3.88,3.88,0,0,0,.61-.14.18.18,0,0,1,.24.11.19.19,0,0,1-.12.24,3.06,3.06,0,0,1-.68.16A3.59,3.59,0,0,1,4.9,48.94Z"/><path class="cls-6" d="M5.58,50.92l-.37,0a.19.19,0,0,1,0-.37H5.9a6.17,6.17,0,0,0,.62-.09.19.19,0,0,1,.23.14.18.18,0,0,1-.14.22,3.85,3.85,0,0,1-.68.1Z"/><path class="cls-6" d="M4.65,36H4.58a.19.19,0,0,1-.11-.24c.09-.23.18-.46.28-.68s.2-.44.31-.65a.18.18,0,0,1,.25-.08.19.19,0,0,1,.08.25c-.11.21-.2.41-.3.63l-.27.66A.17.17,0,0,1,4.65,36Z"/><path class="cls-6" d="M6,37.71H5.93a.19.19,0,0,1-.12-.24c.08-.24.18-.49.27-.72s.21-.47.32-.68A.19.19,0,0,1,6.65,36a.19.19,0,0,1,.08.26c-.1.2-.2.42-.3.65s-.18.46-.26.7A.19.19,0,0,1,6,37.71Z"/><path class="cls-6" d="M6,37.71H5.93a.19.19,0,0,1-.12-.24c.08-.24.18-.49.27-.72s.21-.47.32-.68A.19.19,0,0,1,6.65,36a.19.19,0,0,1,.08.26c-.1.2-.2.42-.3.65s-.18.46-.26.7A.19.19,0,0,1,6,37.71Z"/><path class="cls-6" d="M7.2,39.91h0A.19.19,0,0,1,7,39.68c.08-.3.17-.6.26-.88a.19.19,0,0,1,.36.13c-.1.27-.18.55-.26.84A.17.17,0,0,1,7.2,39.91Z"/><path class="cls-6" d="M6,48.76a.2.2,0,0,1-.18-.12.19.19,0,0,1,.12-.24,3.45,3.45,0,0,0,.61-.3,2.8,2.8,0,0,0,.52-.45.19.19,0,0,1,.27,0,.2.2,0,0,1,0,.27,3.54,3.54,0,0,1-.59.51,3.23,3.23,0,0,1-.7.34Z"/><path class="cls-6" d="M6.56,50.81a.19.19,0,0,1-.18-.15.18.18,0,0,1,.14-.22,3.84,3.84,0,0,0,.6-.2,4.83,4.83,0,0,0,.55-.3.19.19,0,0,1,.26.05.18.18,0,0,1,0,.26,3.6,3.6,0,0,1-.61.33,3.65,3.65,0,0,1-.66.22Z"/><path class="cls-6" d="M7.2,48a.24.24,0,0,1-.13-.05.19.19,0,0,1,0-.26,3.63,3.63,0,0,0,.76-1.35,6,6,0,0,0,.28-1.92.19.19,0,0,1,.38,0,6.37,6.37,0,0,1-.3,2,3.94,3.94,0,0,1-.84,1.49A.2.2,0,0,1,7.2,48Z"/><path class="cls-6" d="M7.78,50.28a.21.21,0,0,1-.16-.08.19.19,0,0,1,0-.26,3.51,3.51,0,0,0,.56-.46,4.74,4.74,0,0,0,.48-.59.18.18,0,0,1,.26,0,.19.19,0,0,1,0,.26,4.68,4.68,0,0,1-.52.64,3.74,3.74,0,0,1-.62.51A.19.19,0,0,1,7.78,50.28Z"/><path class="cls-6" d="M7.2,39.91h0A.19.19,0,0,1,7,39.68c.08-.3.17-.6.26-.88a.19.19,0,0,1,.36.13c-.1.27-.18.55-.26.84A.17.17,0,0,1,7.2,39.91Z"/><path class="cls-6" d="M8.29,44.56a.19.19,0,0,1-.19-.18,14.57,14.57,0,0,1,.15-2.14,12,12,0,0,1,.43-1.88.19.19,0,0,1,.24-.12.19.19,0,0,1,.12.24,12,12,0,0,0-.42,1.81,15.49,15.49,0,0,0-.14,2.09A.19.19,0,0,1,8.29,44.56Z"/><path class="cls-6" d="M8.29,44.56a.19.19,0,0,1-.19-.18,14.57,14.57,0,0,1,.15-2.14,12,12,0,0,1,.43-1.88.19.19,0,0,1,.24-.12.19.19,0,0,1,.12.24,12,12,0,0,0-.42,1.81,15.49,15.49,0,0,0-.14,2.09A.19.19,0,0,1,8.29,44.56Z"/><path class="cls-6" d="M8.86,49.18a.19.19,0,0,1-.1,0,.18.18,0,0,1,0-.26,5.6,5.6,0,0,0,.68-1.57,8.26,8.26,0,0,0,.24-2.06.19.19,0,0,1,.38,0,8.45,8.45,0,0,1-.26,2.15A5.4,5.4,0,0,1,9,49.1.21.21,0,0,1,8.86,49.18Z"/><path class="cls-6" d="M4.21,47a.2.2,0,0,1-.2-.19.19.19,0,0,1,.19-.18h0a2.39,2.39,0,0,0,.66-.09,2.12,2.12,0,0,0,.57-.27.18.18,0,0,1,.26.05.19.19,0,0,1,0,.26,2.49,2.49,0,0,1-.68.32A2.68,2.68,0,0,1,4.21,47Z"/><path class="cls-6" d="M4.9,48.94H4.64a.19.19,0,0,1-.18-.2.2.2,0,0,1,.2-.18,3.61,3.61,0,0,0,.66,0,3.88,3.88,0,0,0,.61-.14.18.18,0,0,1,.24.11.19.19,0,0,1-.12.24,3.06,3.06,0,0,1-.68.16A3.59,3.59,0,0,1,4.9,48.94Z"/><path class="cls-6" d="M4.2,37.45h0A.18.18,0,0,1,4,37.22c.06-.26.13-.51.21-.76s.15-.49.24-.72a.18.18,0,0,1,.24-.11.18.18,0,0,1,.11.24c-.08.23-.16.46-.23.7s-.14.48-.21.74A.18.18,0,0,1,4.2,37.45Z"/><path class="cls-6" d="M5.54,39.38h0a.18.18,0,0,1-.15-.22c.06-.29.12-.58.2-.87s.16-.57.25-.83a.18.18,0,0,1,.24-.11.18.18,0,0,1,.12.23c-.09.26-.17.53-.25.8s-.14.57-.19.85A.19.19,0,0,1,5.54,39.38Z"/><path class="cls-6" d="M5.54,39.38h0a.18.18,0,0,1-.15-.22c.06-.29.12-.58.2-.87s.16-.57.25-.83a.18.18,0,0,1,.24-.11.18.18,0,0,1,.12.23c-.09.26-.17.53-.25.8s-.14.57-.19.85A.19.19,0,0,1,5.54,39.38Z"/><path class="cls-6" d="M6.76,43.68a.18.18,0,0,1-.19-.19,16.33,16.33,0,0,1,.12-2A12.48,12.48,0,0,1,7,39.68a.2.2,0,0,1,.23-.14.19.19,0,0,1,.13.23,13.11,13.11,0,0,0-.32,1.76,15.44,15.44,0,0,0-.11,2A.19.19,0,0,1,6.76,43.68Z"/><path class="cls-6" d="M5.54,46.57a.18.18,0,0,1-.15-.08.18.18,0,0,1,.05-.26,2.33,2.33,0,0,0,.82-1,4.2,4.2,0,0,0,.31-1.7.19.19,0,0,1,.19-.19.2.2,0,0,1,.19.19,4.77,4.77,0,0,1-.34,1.85,2.76,2.76,0,0,1-1,1.2A.2.2,0,0,1,5.54,46.57Z"/><path class="cls-6" d="M6,48.76a.2.2,0,0,1-.18-.12.19.19,0,0,1,.12-.24,3.45,3.45,0,0,0,.61-.3,2.8,2.8,0,0,0,.52-.45.19.19,0,0,1,.27,0,.2.2,0,0,1,0,.27,3.54,3.54,0,0,1-.59.51,3.23,3.23,0,0,1-.7.34Z"/><path class="cls-6" d="M6.76,43.68a.18.18,0,0,1-.19-.19,16.33,16.33,0,0,1,.12-2A12.48,12.48,0,0,1,7,39.68a.2.2,0,0,1,.23-.14.19.19,0,0,1,.13.23,13.11,13.11,0,0,0-.32,1.76,15.44,15.44,0,0,0-.11,2A.19.19,0,0,1,6.76,43.68Z"/><path class="cls-6" d="M7.2,48a.24.24,0,0,1-.13-.05.19.19,0,0,1,0-.26,3.63,3.63,0,0,0,.76-1.35,6,6,0,0,0,.28-1.92.19.19,0,0,1,.38,0,6.37,6.37,0,0,1-.3,2,3.94,3.94,0,0,1-.84,1.49A.2.2,0,0,1,7.2,48Z"/><path class="cls-6" d="M3.88,45a.19.19,0,0,1-.18-.15.18.18,0,0,1,.14-.22A1.33,1.33,0,0,0,4.7,44,2.57,2.57,0,0,0,5,42.61a.18.18,0,0,1,.19-.19.18.18,0,0,1,.18.19A2.9,2.9,0,0,1,5,44.18a1.69,1.69,0,0,1-1.1.76Z"/><path class="cls-6" d="M4.21,47a.2.2,0,0,1-.2-.19.19.19,0,0,1,.19-.18h0a2.39,2.39,0,0,0,.66-.09,2.12,2.12,0,0,0,.57-.27.18.18,0,0,1,.26.05.19.19,0,0,1,0,.26,2.49,2.49,0,0,1-.68.32A2.68,2.68,0,0,1,4.21,47Z"/><path class="cls-6" d="M3.88,39.09h0a.18.18,0,0,1-.16-.21c0-.29.09-.57.14-.85s.11-.55.18-.82a.19.19,0,1,1,.36.1c-.06.26-.12.52-.17.79s-.1.55-.14.83A.18.18,0,0,1,3.88,39.09Z"/><path class="cls-6" d="M5.23,42.8A.19.19,0,0,1,5,42.61c0-.61,0-1.21.08-1.8a13.93,13.93,0,0,1,.24-1.65.19.19,0,1,1,.37.07,16.17,16.17,0,0,0-.24,1.62c0,.57-.08,1.16-.08,1.76A.19.19,0,0,1,5.23,42.8Z"/><path class="cls-6" d="M5.23,42.8A.19.19,0,0,1,5,42.61c0-.61,0-1.21.08-1.8a13.93,13.93,0,0,1,.24-1.65.19.19,0,1,1,.37.07,16.17,16.17,0,0,0-.24,1.62c0,.57-.08,1.16-.08,1.76A.19.19,0,0,1,5.23,42.8Z"/><path class="cls-6" d="M5.54,46.57a.18.18,0,0,1-.15-.08.18.18,0,0,1,.05-.26,2.33,2.33,0,0,0,.82-1,4.2,4.2,0,0,0,.31-1.7.19.19,0,0,1,.19-.19.2.2,0,0,1,.19.19,4.77,4.77,0,0,1-.34,1.85,2.76,2.76,0,0,1-1,1.2A.2.2,0,0,1,5.54,46.57Z"/><path class="cls-6" d="M3.88,45a.19.19,0,0,1-.18-.15.18.18,0,0,1,.14-.22A1.33,1.33,0,0,0,4.7,44,2.57,2.57,0,0,0,5,42.61a.18.18,0,0,1,.19-.19.18.18,0,0,1,.18.19A2.9,2.9,0,0,1,5,44.18a1.69,1.69,0,0,1-1.1.76Z"/><path class="cls-6" d="M19,50.76h0a.2.2,0,0,1-.19-.19,1.28,1.28,0,0,1,.52-1.14,1.21,1.21,0,0,1,1.23,0,.19.19,0,1,1-.18.33.85.85,0,0,0-.85-.06.9.9,0,0,0-.34.82A.19.19,0,0,1,19,50.76Z"/><path class="cls-6" d="M20.48,53.37h0a.2.2,0,0,1-.18-.2c0-.28,0-.56.05-.85s0-.57,0-.87a.19.19,0,0,1,.18-.19h0a.19.19,0,0,1,.19.19c0,.3,0,.6,0,.89s0,.57,0,.86A.19.19,0,0,1,20.48,53.37Z"/></g></g></svg>