<svg xmlns="http://www.w3.org/2000/svg" width="224.19" height="51.93" viewBox="0 0 224.19 51.93"><defs><style>.cls-1{fill:#fff;}</style></defs><g id="Слой_2" data-name="Слой 2"><g id="Слой_1-2" data-name="Слой 1"><path class="cls-1" d="M41.47,13.76a4.51,4.51,0,0,0-3.64-1.86H29.55a4.53,4.53,0,0,0-3.65,1.86L23.84,16.6A4.49,4.49,0,0,0,23,19.25v11a4.51,4.51,0,0,0,.86,2.65l2.06,2.84a4.54,4.54,0,0,0,3.65,1.86h8.28a4.51,4.51,0,0,0,3.64-1.86l2.07-2.84a4.5,4.5,0,0,0,.85-2.65v-11a4.44,4.44,0,0,0-.86-2.65Zm-2,16.33-1.86,2.56H29.76l-1.87-2.56V19.38l1.87-2.57h7.86l1.86,2.57Z"/><path class="cls-1" d="M103.77,13.76a4.51,4.51,0,0,0-3.64-1.86H91.85a4.54,4.54,0,0,0-3.65,1.86L86.14,16.6a4.49,4.49,0,0,0-.86,2.65V49.48a2.46,2.46,0,0,0,4.92,0V37.57h9.93a4.51,4.51,0,0,0,3.64-1.86l2.07-2.84a4.5,4.5,0,0,0,.85-2.65v-11a4.48,4.48,0,0,0-.85-2.65Zm-2,16.33-1.86,2.56H90.2V19.38l1.86-2.57h7.86l1.86,2.57Z"/><path class="cls-1" d="M154.93,13.76a4.51,4.51,0,0,0-3.64-1.86H143a4.53,4.53,0,0,0-3.65,1.86L137.3,16.6a4.51,4.51,0,0,0-.86,2.65v11a4.51,4.51,0,0,0,.86,2.65l2.06,2.84A4.53,4.53,0,0,0,143,37.57H155.4a2.46,2.46,0,0,0,0-4.92H143.21l-1.86-2.56v-2.9h12a4.51,4.51,0,0,0,4.5-4.5V19.25A4.42,4.42,0,0,0,157,16.6Zm-2,8.52H141.35v-2.9l1.87-2.57h7.86l1.86,2.57Z"/><path class="cls-1" d="M130.71,32.63h-6.94V4.5a4.51,4.51,0,0,0-4.5-4.5h-4.9a2.46,2.46,0,0,0,0,4.91h4.49V32.63h-6.94a2.46,2.46,0,0,0,0,4.92h18.79a2.46,2.46,0,0,0,0-4.92Z"/><path class="cls-1" d="M193.67,11.9a2.46,2.46,0,0,0-2.45,2.46V35.09a2.46,2.46,0,1,0,4.91,0V14.36A2.46,2.46,0,0,0,193.67,11.9Z"/><path class="cls-1" d="M75.55,13.76a4.51,4.51,0,0,0-3.64-1.86h-3.1a4.51,4.51,0,0,0-3.64,1.86l-.47.64-.46-.64a4.53,4.53,0,0,0-3.65-1.86H57.5a4.53,4.53,0,0,0-3.65,1.86L51.79,16.6a4.49,4.49,0,0,0-.86,2.65V35.59a2.46,2.46,0,1,0,4.91,0V19.38l1.87-2.57h2.67l1.87,2.57V35.59a2.46,2.46,0,1,0,4.91,0V19.38L69,16.81H71.7l1.86,2.57V35.59a2.46,2.46,0,1,0,4.91,0V19.25a4.48,4.48,0,0,0-.85-2.65Z"/><path class="cls-1" d="M184.17,12.47a2.46,2.46,0,0,0-3.46.31L174,20.89l-6.75-8.11a2.46,2.46,0,0,0-3.78,3.15l7.34,8.79-7.34,8.8a2.46,2.46,0,1,0,3.78,3.14l6.75-8.1,6.76,8.1a2.45,2.45,0,0,0,3.46.32,2.46,2.46,0,0,0,.31-3.46l-7.33-8.8,7.33-8.79A2.46,2.46,0,0,0,184.17,12.47Z"/><path class="cls-1" d="M208.49,16.81H217a.85.85,0,0,1,.67.34L219.74,20a2.46,2.46,0,0,0,4-2.89l-2.08-2.87A5.78,5.78,0,0,0,217,11.9h-8.5a5.27,5.27,0,0,0-3.36,9.33L218.18,32a.32.32,0,0,1,.11.39.32.32,0,0,1-.34.23h-8.5a.83.83,0,0,1-.67-.33l-2-2.44A2.46,2.46,0,0,0,203,33l1.86,2.28a5.76,5.76,0,0,0,4.6,2.3H218a5.27,5.27,0,0,0,3.36-9.33l-13-10.8a.3.3,0,0,1-.11-.39A.31.31,0,0,1,208.49,16.81Z"/><path class="cls-1" d="M16.15,16.81a2.46,2.46,0,1,0,0-4.91H10.54a3.8,3.8,0,0,0-3.12,1.65L.94,22a4.56,4.56,0,0,0,0,5.54l6.48,8.42a3.8,3.8,0,0,0,3.12,1.65h5.61a2.46,2.46,0,0,0,0-4.92h-5L5,24.73l6.1-7.92Z"/><path class="cls-1" d="M193.67,0a3.54,3.54,0,1,0,3.54,3.54A3.53,3.53,0,0,0,193.67,0Z"/></g></g></svg>