<svg xmlns="http://www.w3.org/2000/svg" xmlns:xlink="http://www.w3.org/1999/xlink" width="289.69" height="75.9" viewBox="0 0 289.69 75.9"><defs><style>.cls-1{isolation:isolate;}.cls-2{fill:#3855cb;}.cls-3{fill:#40444c;}.cls-4{fill:url(#linear-gradient);}.cls-5{fill:url(#linear-gradient-2);}.cls-6{fill:url(#linear-gradient-3);}.cls-7{fill:#adb4ce;}.cls-8{fill:url(#linear-gradient-4);}.cls-9{fill:url(#linear-gradient-5);}.cls-10{fill:#1b2a69;}.cls-11{mix-blend-mode:screen;opacity:0.3;fill:url(#linear-gradient-6);}</style><linearGradient id="linear-gradient" x1="0.01" y1="3.4" x2="27.59" y2="3.4" gradientUnits="userSpaceOnUse"><stop offset="0" stop-color="#f1f3fb"/><stop offset="0.16" stop-color="#edf0fa"/><stop offset="0.31" stop-color="#e2e8f5"/><stop offset="0.46" stop-color="#cfd9ee"/><stop offset="0.61" stop-color="#b4c5e4"/><stop offset="0.75" stop-color="#91abd7"/><stop offset="0.89" stop-color="#678cc7"/><stop offset="1" stop-color="#4270b9"/></linearGradient><linearGradient id="linear-gradient-2" x1="46.04" y1="73.72" x2="46.04" y2="26.31" gradientUnits="userSpaceOnUse"><stop offset="0" stop-color="#4270b9"/><stop offset="0.11" stop-color="#678cc7"/><stop offset="0.25" stop-color="#91abd7"/><stop offset="0.39" stop-color="#b4c5e4"/><stop offset="0.54" stop-color="#cfd9ee"/><stop offset="0.69" stop-color="#e2e8f5"/><stop offset="0.84" stop-color="#edf0fa"/><stop offset="1" stop-color="#f1f3fb"/></linearGradient><linearGradient id="linear-gradient-3" x1="24.76" y1="16.78" x2="52.97" y2="16.78" xlink:href="#linear-gradient"/><linearGradient id="linear-gradient-4" x1="6.15" y1="6.85" x2="40.48" y2="66.49" gradientUnits="userSpaceOnUse"><stop offset="0" stop-color="#7db9d3"/><stop offset="0.21" stop-color="#6495b8"/><stop offset="0.58" stop-color="#3d5b8e"/><stop offset="0.85" stop-color="#243873"/><stop offset="1" stop-color="#1b2a69"/></linearGradient><linearGradient id="linear-gradient-5" x1="26.55" y1="11.52" x2="37.16" y2="69.62" gradientUnits="userSpaceOnUse"><stop offset="0" stop-color="#5894b4"/><stop offset="0.46" stop-color="#375b8c"/><stop offset="0.81" stop-color="#233873"/><stop offset="1" stop-color="#1b2a69"/></linearGradient><linearGradient id="linear-gradient-6" x1="14.82" y1="61.24" x2="48.64" y2="39.21" gradientUnits="userSpaceOnUse"><stop offset="0"/><stop offset="1" stop-color="#fff"/></linearGradient></defs><g class="cls-1"><g id="Слой_2" data-name="Слой 2"><g id="Слой_1-2" data-name="Слой 1"><path class="cls-2" d="M140.38,23.46a3.69,3.69,0,0,0-3-1.52h-6.76a3.69,3.69,0,0,0-3,1.52L126,25.78a3.64,3.64,0,0,0-.7,2.16v9a3.64,3.64,0,0,0,.7,2.16l1.69,2.32a3.69,3.69,0,0,0,3,1.52h6.76a3.69,3.69,0,0,0,3-1.52l1.69-2.32a3.64,3.64,0,0,0,.7-2.16v-9a3.64,3.64,0,0,0-.7-2.16ZM138.75,36.8l-1.52,2.1h-6.42l-1.52-2.1V28.05l1.52-2.1h6.42l1.52,2.1Z"/><path class="cls-2" d="M191.3,23.46a3.68,3.68,0,0,0-3-1.52h-6.77a3.66,3.66,0,0,0-3,1.52l-1.68,2.32a3.65,3.65,0,0,0-.71,2.16v24.7a2,2,0,0,0,4,0V42.91h8.12a3.69,3.69,0,0,0,3-1.52L193,39.07a3.64,3.64,0,0,0,.7-2.16v-9a3.64,3.64,0,0,0-.7-2.16ZM189.67,36.8l-1.52,2.1h-8V28.05l1.52-2.1h6.42l1.53,2.1Z"/><path class="cls-2" d="M233.1,23.46a3.66,3.66,0,0,0-3-1.52h-6.76a3.68,3.68,0,0,0-3,1.52l-1.69,2.32a3.64,3.64,0,0,0-.7,2.16v9a3.64,3.64,0,0,0,.7,2.16l1.69,2.32a3.69,3.69,0,0,0,3,1.52h10.12a2,2,0,1,0,0-4h-9.95L222,36.8V34.43h9.81a3.68,3.68,0,0,0,3.68-3.68V27.94a3.71,3.71,0,0,0-.7-2.16Zm-1.63,7H222V28.05l1.53-2.1H230l1.52,2.1Z"/><path class="cls-2" d="M213.31,38.88h-5.67v-23A3.68,3.68,0,0,0,204,12.21h-4a2,2,0,0,0,0,4h3.66V38.88H198a2,2,0,1,0,0,4h15.36a2,2,0,1,0,0-4Z"/><path class="cls-2" d="M264.76,21.94a2,2,0,0,0-2,2v17a2,2,0,0,0,4,0V23.94A2,2,0,0,0,264.76,21.94Z"/><path class="cls-2" d="M168.23,23.46a3.69,3.69,0,0,0-3-1.52h-2.53a3.64,3.64,0,0,0-3,1.52l-.38.52-.38-.52a3.7,3.7,0,0,0-3-1.52h-2.53a3.66,3.66,0,0,0-3,1.52l-1.69,2.32a3.64,3.64,0,0,0-.7,2.16V41.3a2,2,0,0,0,4,0V28.05l1.52-2.1h2.19l1.52,2.1V41.3a2,2,0,0,0,4,0V28.05L162.9,26h2.18l1.53,2.1V41.3a2,2,0,0,0,4,0V27.94a3.64,3.64,0,0,0-.7-2.16Z"/><path class="cls-2" d="M257,22.4a2,2,0,0,0-2.82.26l-5.52,6.62-5.53-6.62A2,2,0,1,0,240,25.23l6,7.18-6,7.19a2,2,0,0,0,1.54,3.29,2,2,0,0,0,1.54-.72l5.53-6.62,5.52,6.62a2,2,0,0,0,1.54.72,2,2,0,0,0,1.54-3.29l-6-7.19,6-7.18A2,2,0,0,0,257,22.4Z"/><path class="cls-2" d="M276.87,26h6.95a.69.69,0,0,1,.54.28l1.7,2.35a2,2,0,0,0,3.25-2.36l-1.7-2.35a4.7,4.7,0,0,0-3.79-1.93h-6.95a4.31,4.31,0,0,0-2.75,7.62l10.66,8.82a.25.25,0,0,1,.09.32.25.25,0,0,1-.27.2h-7a.66.66,0,0,1-.54-.28l-1.64-2a2,2,0,1,0-3.1,2.54L273.9,41a4.69,4.69,0,0,0,3.75,1.88h7a4.31,4.31,0,0,0,2.75-7.62l-10.67-8.83a.29.29,0,0,1,.19-.51Z"/><path class="cls-2" d="M119.69,26a2,2,0,1,0,0-4H115.1a3.09,3.09,0,0,0-2.54,1.35l-5.3,6.87a3.74,3.74,0,0,0,0,4.53l5.3,6.87a3.09,3.09,0,0,0,2.54,1.35h4.59a2,2,0,1,0,0-4h-4.12l-5-6.48,5-6.47Z"/><path class="cls-2" d="M264.76,12.23a2.89,2.89,0,1,0,2.89,2.89A2.89,2.89,0,0,0,264.76,12.23Z"/><path class="cls-3" d="M235,62.29a2.18,2.18,0,0,0-.56-1.6,5.84,5.84,0,0,0-2-1.08,8.61,8.61,0,0,1-2.26-1.11,3.83,3.83,0,0,1-1.17-1.32,3.58,3.58,0,0,1-.39-1.7,3.65,3.65,0,0,1,1.11-2.73,4,4,0,0,1,2.9-1.07,4.28,4.28,0,0,1,2.18.55,3.7,3.7,0,0,1,1.48,1.53,4.54,4.54,0,0,1,.51,2.14H235a3,3,0,0,0-.62-2,2.27,2.27,0,0,0-1.79-.71,2.23,2.23,0,0,0-1.65.59,2.3,2.3,0,0,0-.59,1.67,2,2,0,0,0,.64,1.48,5.63,5.63,0,0,0,2,1.06,6.66,6.66,0,0,1,2.95,1.68,3.76,3.76,0,0,1,.88,2.6,3.51,3.51,0,0,1-1.1,2.72,4.23,4.23,0,0,1-3,1,4.84,4.84,0,0,1-2.24-.53,4,4,0,0,1-1.62-1.5,4.06,4.06,0,0,1-.59-2.21h1.76a2.73,2.73,0,0,0,.72,2,2.68,2.68,0,0,0,2,.72,2.33,2.33,0,0,0,1.75-.6A2.19,2.19,0,0,0,235,62.29Z"/><path class="cls-3" d="M242.5,66a3.75,3.75,0,0,1-3-1.16,4.93,4.93,0,0,1-1.05-3.38V60.21a5.8,5.8,0,0,1,1-3.63,3.34,3.34,0,0,1,2.82-1.32A3.24,3.24,0,0,1,245,56.42,5.94,5.94,0,0,1,246,60v1.11h-5.79v.24a3.8,3.8,0,0,0,.63,2.43,2.23,2.23,0,0,0,1.81.75,2.87,2.87,0,0,0,1.31-.28,3.28,3.28,0,0,0,1.07-.9l.88,1.08A3.84,3.84,0,0,1,242.5,66Zm-.19-9.29a1.78,1.78,0,0,0-1.56.72,4.32,4.32,0,0,0-.58,2.25h4.08v-.23a3.91,3.91,0,0,0-.53-2.11A1.64,1.64,0,0,0,242.31,56.72Z"/><path class="cls-3" d="M251.58,64.56a1.76,1.76,0,0,0,1.35-.52,2.2,2.2,0,0,0,.56-1.49h1.6A3.53,3.53,0,0,1,254,65a3.38,3.38,0,0,1-2.45,1,3.59,3.59,0,0,1-2.93-1.21,5.49,5.49,0,0,1-1-3.61V60.05a5.52,5.52,0,0,1,1-3.57,3.59,3.59,0,0,1,2.93-1.22,3.26,3.26,0,0,1,2.53,1,4.1,4.1,0,0,1,1,2.75h-1.6a2.82,2.82,0,0,0-.55-1.73,1.71,1.71,0,0,0-1.37-.57,1.92,1.92,0,0,0-1.67.74,4.21,4.21,0,0,0-.57,2.44v1.32a4.64,4.64,0,0,0,.54,2.59A2,2,0,0,0,251.58,64.56Z"/><path class="cls-3" d="M262.33,64.91a2.91,2.91,0,0,1-2.46,1.1,2.48,2.48,0,0,1-2.13-1,4.71,4.71,0,0,1-.72-2.83V55.45h1.68v6.63c0,1.62.49,2.43,1.46,2.43a2.13,2.13,0,0,0,2.13-1.38V55.45H264V65.82h-1.61Z"/><path class="cls-3" d="M270.81,57a4.51,4.51,0,0,0-.76-.06,1.85,1.85,0,0,0-1.82,1.42v7.42h-1.7V55.45h1.65l0,1.06a2.09,2.09,0,0,1,1.92-1.25,1.48,1.48,0,0,1,.67.13Z"/><path class="cls-3" d="M274.46,52.7a1.08,1.08,0,0,1-.24.72.9.9,0,0,1-.73.29.87.87,0,0,1-.71-.29,1.08,1.08,0,0,1-.24-.72,1.14,1.14,0,0,1,.24-.73.87.87,0,0,1,.71-.29.9.9,0,0,1,.73.3A1.12,1.12,0,0,1,274.46,52.7Zm-.13,13.12h-1.7V55.45h1.7Z"/><path class="cls-3" d="M279.21,52.94v2.51h1.57v1.37h-1.57v6.43a1.68,1.68,0,0,0,.21.93.74.74,0,0,0,.68.32,2.09,2.09,0,0,0,.69-.12l0,1.44a3.69,3.69,0,0,1-1.18.19,1.81,1.81,0,0,1-1.54-.72,3.41,3.41,0,0,1-.52-2V56.82H276V55.45h1.58V52.94Z"/><path class="cls-3" d="M285.62,63l1.89-7.55h1.8l-3.39,11.83a4.69,4.69,0,0,1-1.08,2,2.23,2.23,0,0,1-1.59.7,3.44,3.44,0,0,1-.88-.16V68.41l.37,0a1.68,1.68,0,0,0,1.15-.35,2.41,2.41,0,0,0,.68-1.21l.33-1.16-3-10.28h1.85Z"/><path class="cls-4" d="M27.59,3.47l-.18.1L25.47,4.7l-.18.1-1.23.72c-2,1.15-8.47,3.35-24-3.47L3.53,0C19.12,6.82,25.6,4.62,27.59,3.47Z"/><path class="cls-5" d="M42.64,72l-3.53,2,.27-.16c9.69-6.16,10-15.84,10.06-43.28L53,28.54C52.89,56,52.6,65.66,42.9,71.82A2.26,2.26,0,0,1,42.64,72Z"/><path class="cls-6" d="M24.76,5l3.53-2c.28.6,5.71,12,24.68,25.57l-3.53,2.05C30.48,17,25.05,5.62,24.76,5Z"/><path class="cls-7" d="M24.76,5c.29.6,5.72,12,24.68,25.57C49.37,58,49.07,67.71,39.38,73.87c-4.73,3-14.32,1.81-14.82,1.75C24.06,75.1,14.49,65.23,9.8,56.8.17,39.48-.07,29.49,0,2.05,19,10.35,24.47,5.29,24.76,5Z"/><path class="cls-8" d="M23.56,11.33c-.24.22-4.92,4.54-21.1-2.54-.07,23.4.14,31.92,8.35,46.68,4,7.2,12.15,15.61,12.58,16.06.43,0,8.61,1.06,12.63-1.5,8.27-5.24,8.53-13.5,8.59-36.9C28.44,21.53,23.8,11.84,23.56,11.33Z"/><path class="cls-9" d="M23.56,11.33c.24.51,4.88,10.2,21.05,21.8C44.55,56.53,44.29,64.79,36,70c-4,2.56-12.2,1.55-12.63,1.5C23.56,40.9,23.5,30.34,23.56,11.33Z"/><path class="cls-10" d="M23.5,11.44l-.54.31c-1.69,1-7.22,2.86-20.5-3L3,8.48C16.29,14.29,21.81,12.42,23.5,11.44Z"/><path class="cls-10" d="M36.34,69.86l-.54.31L36,70c8.27-5.24,8.53-13.5,8.59-36.9l.54-.31c-.06,23.39-.32,31.65-8.58,36.9Z"/><path class="cls-10" d="M23.56,11.33,24.1,11c.25.51,4.88,10.2,21,21.81l-.54.31C28.44,21.53,23.8,11.84,23.56,11.33Z"/><path class="cls-11" d="M36.11,26.34a100.93,100.93,0,0,0,8.5,6.79C44.55,56.53,44.29,64.79,36,70c-4,2.56-12.2,1.55-12.63,1.5-.43-.45-8.58-8.86-12.58-16.06C11.4,43.15,23.52,33,23.52,33S31.41,27.71,36.11,26.34Z"/></g></g></g></svg>