<svg width="310" height="324" viewBox="0 0 310 324" fill="none" xmlns="http://www.w3.org/2000/svg">
<g clip-path="url(#clip0_29_1080)">
<path style="mix-blend-mode:color-dodge" opacity="0.35" d="M283.19 226.31C226 263.11 124 317.38 124 317.38L168 173.15L309 90.49C309 90.49 308.36 210.11 283.19 226.31Z" fill="url(#paint0_linear_29_1080)"/>
<g style="mix-blend-mode:color-dodge" opacity="0.35">
<path d="M309 90.49L168 173.15C168 173.15 150.76 168.71 118 137C92.7199 112.66 89.6799 92.07 89.6799 92.07L230.76 9.42004C238.594 27.7782 249.183 44.8343 262.16 60C281.84 82.66 309 90.49 309 90.49Z" fill="url(#paint1_linear_29_1080)"/>
</g>
<path style="mix-blend-mode:color-dodge" opacity="0.35" d="M89.68 92.07C89.68 92.07 82.39 101.94 59.28 99.85C24.84 96.73 11.21 82.66 11.21 82.66L152.28 0L230.76 9.42L89.68 92.07Z" fill="url(#paint2_linear_29_1080)"/>
<path d="M87.46 93.66L86.9 94L80.75 97.57L80.19 97.89L76.28 100.17C70 103.81 49.44 110.77 0 89.15L11.18 82.66C60.62 104.27 81.17 97.31 87.46 93.66Z" fill="url(#paint3_linear_29_1080)"/>
<path d="M135.18 310.88L124 317.38L124.83 316.87C155.57 297.35 156.51 266.64 156.76 179.65L167.94 173.15C167.69 260.15 166.75 290.85 136.01 310.37C135.75 310.55 135.473 310.72 135.18 310.88Z" fill="url(#paint4_linear_29_1080)"/>
<path d="M78.51 98.5699L89.68 92.0699C90.59 93.9699 107.82 130.07 167.95 173.15L156.77 179.65C96.63 136.51 79.41 100.47 78.51 98.5699Z" fill="url(#paint5_linear_29_1080)"/>
<path d="M78.51 98.57C79.41 100.47 96.63 136.51 156.77 179.65C156.52 266.65 155.58 297.35 124.84 316.87C109.84 326.37 79.47 322.62 77.84 322.42C76.24 320.77 45.92 289.47 31.04 262.73C0.549999 207.84 -0.220001 176.15 -1.39698e-06 89.15C60.21 115.48 77.59 99.42 78.51 98.57Z" fill="#ADB4CE"/>
<path d="M74.7099 118.56C73.9199 119.28 59.1099 132.98 7.78992 110.56C7.57992 184.74 8.22992 211.76 34.2699 258.56C46.9999 281.34 72.7999 308 74.1599 309.44C75.5299 309.61 101.45 312.81 114.22 304.7C140.43 288.06 141.22 261.89 141.44 187.7C90.1699 150.92 75.4799 120.18 74.7099 118.56Z" fill="url(#paint6_linear_29_1080)"/>
<path d="M74.7099 118.56C75.4799 120.18 90.1699 150.92 141.44 187.7C141.24 261.89 140.44 288.06 114.22 304.7C101.45 312.81 75.5299 309.61 74.1599 309.44C74.7099 212.35 74.5199 178.84 74.7099 118.56Z" fill="url(#paint7_linear_29_1080)"/>
<path d="M74.5201 118.92L72.8101 119.92C67.4501 123.03 49.9201 128.92 7.81006 110.54L9.53006 109.54C51.6401 128 69.1601 122 74.5201 118.92Z" fill="#1B2A69"/>
<path d="M115.22 304.14L113.5 305.14C113.75 305 113.98 304.85 114.22 304.7C140.43 288.06 141.22 261.89 141.44 187.7L143.16 186.7C142.95 260.89 142.16 287.07 115.94 303.7L115.22 304.14Z" fill="#1B2A69"/>
<path d="M74.71 118.56L76.42 117.56C77.19 119.18 91.89 149.92 143.16 186.7L141.44 187.7C90.17 150.92 75.48 120.18 74.71 118.56Z" fill="#1B2A69"/>
<path style="mix-blend-mode:screen" opacity="0.3" d="M114.48 166.17C123.085 173.828 132.098 181.016 141.48 187.7C141.28 261.89 140.48 288.06 114.26 304.7C101.49 312.81 75.57 309.61 74.2 309.44C72.8 308 47 281.34 34.27 258.54C36.16 219.46 74.59 187.16 74.59 187.16C74.59 187.16 99.58 170.52 114.48 166.17Z" fill="url(#paint8_linear_29_1080)"/>
</g>
<defs>
<linearGradient id="paint0_linear_29_1080" x1="129.9" y1="203.93" x2="318.14" y2="203.93" gradientUnits="userSpaceOnUse">
<stop stop-color="#5894B4"/>
<stop offset="1" stop-opacity="0"/>
</linearGradient>
<linearGradient id="paint1_linear_29_1080" x1="154" y1="121.5" x2="278.5" y2="-30" gradientUnits="userSpaceOnUse">
<stop offset="0.0273025" stop-color="#5894B4"/>
<stop offset="0.61511" stop-opacity="0"/>
</linearGradient>
<linearGradient id="paint2_linear_29_1080" x1="108.7" y1="105.71" x2="134.85" y2="-21.33" gradientUnits="userSpaceOnUse">
<stop offset="0.1" stop-color="#5894B4"/>
<stop offset="0.85" stop-opacity="0"/>
</linearGradient>
<linearGradient id="paint3_linear_29_1080" x1="0.03" y1="93.43" x2="87.46" y2="93.43" gradientUnits="userSpaceOnUse">
<stop stop-color="#F1F3FB"/>
<stop offset="0.16" stop-color="#EDF0FA"/>
<stop offset="0.31" stop-color="#E2E8F5"/>
<stop offset="0.46" stop-color="#CFD9EE"/>
<stop offset="0.61" stop-color="#B4C5E4"/>
<stop offset="0.75" stop-color="#91ABD7"/>
<stop offset="0.89" stop-color="#678CC7"/>
<stop offset="1" stop-color="#4270B9"/>
</linearGradient>
<linearGradient id="paint4_linear_29_1080" x1="145.98" y1="316.4" x2="145.98" y2="166.07" gradientUnits="userSpaceOnUse">
<stop stop-color="#4270B9"/>
<stop offset="0.11" stop-color="#678CC7"/>
<stop offset="0.25" stop-color="#91ABD7"/>
<stop offset="0.39" stop-color="#B4C5E4"/>
<stop offset="0.54" stop-color="#CFD9EE"/>
<stop offset="0.69" stop-color="#E2E8F5"/>
<stop offset="0.84" stop-color="#EDF0FA"/>
<stop offset="1" stop-color="#F1F3FB"/>
</linearGradient>
<linearGradient id="paint5_linear_29_1080" x1="7100.44" y1="11990.7" x2="15100" y2="11990.7" gradientUnits="userSpaceOnUse">
<stop stop-color="#F1F3FB"/>
<stop offset="0.16" stop-color="#EDF0FA"/>
<stop offset="0.31" stop-color="#E2E8F5"/>
<stop offset="0.46" stop-color="#CFD9EE"/>
<stop offset="0.61" stop-color="#B4C5E4"/>
<stop offset="0.75" stop-color="#91ABD7"/>
<stop offset="0.89" stop-color="#678CC7"/>
<stop offset="1" stop-color="#4270B9"/>
</linearGradient>
<linearGradient id="paint6_linear_29_1080" x1="19.4899" y1="104.37" x2="128.35" y2="293.48" gradientUnits="userSpaceOnUse">
<stop stop-color="#7DB9D3"/>
<stop offset="0.21" stop-color="#6495B8"/>
<stop offset="0.58" stop-color="#3D5B8E"/>
<stop offset="0.85" stop-color="#243873"/>
<stop offset="1" stop-color="#1B2A69"/>
</linearGradient>
<linearGradient id="paint7_linear_29_1080" x1="84.1899" y1="119.18" x2="117.81" y2="303.41" gradientUnits="userSpaceOnUse">
<stop stop-color="#5894B4"/>
<stop offset="0.46" stop-color="#375B8C"/>
<stop offset="0.81" stop-color="#233873"/>
<stop offset="1" stop-color="#1B2A69"/>
</linearGradient>
<linearGradient id="paint8_linear_29_1080" x1="46.98" y1="276.83" x2="154.21" y2="206.96" gradientUnits="userSpaceOnUse">
<stop/>
<stop offset="1" stop-color="white"/>
</linearGradient>
<clipPath id="clip0_29_1080">
<rect width="309.03" height="323.31" fill="white"/>
</clipPath>
</defs>
</svg>
