<svg xmlns="http://www.w3.org/2000/svg" xmlns:xlink="http://www.w3.org/1999/xlink" width="290.62" height="93.28" viewBox="0 0 290.62 93.28"><defs><style>.cls-1{fill:none;}.cls-2{fill:#2580d3;}.cls-3{isolation:isolate;}.cls-4{fill:#3855cb;}.cls-5{fill:#ac9dff;}.cls-6{fill:#9d9d9d;}.cls-7{fill:#95c4de;}.cls-8{fill:url(#Unnamed_Pattern_2);}.cls-9{fill:#d3dbde;}.cls-10{fill:#adb4ce;mix-blend-mode:screen;}</style><pattern id="Unnamed_Pattern_2" data-name="Unnamed Pattern 2" width="184" height="174" patternTransform="matrix(-0.19, 0, 0, 0.19, 118.88, 162.25)" patternUnits="userSpaceOnUse" viewBox="0 0 184 174"><rect class="cls-1" width="184" height="174"/><rect class="cls-2" width="184" height="174"/></pattern></defs><g class="cls-3"><g id="Слой_2" data-name="Слой 2"><g id="Слой_1-2" data-name="Слой 1"><path class="cls-4" d="M141.31,37.22a3.69,3.69,0,0,0-3-1.52h-6.77a3.7,3.7,0,0,0-3,1.52l-1.68,2.32a3.64,3.64,0,0,0-.7,2.16v9a3.64,3.64,0,0,0,.7,2.16l1.68,2.33a3.69,3.69,0,0,0,3,1.51h6.77a3.69,3.69,0,0,0,3-1.51L143,52.83a3.65,3.65,0,0,0,.71-2.16v-9a3.65,3.65,0,0,0-.71-2.16Zm-1.63,13.34-1.52,2.1h-6.43l-1.52-2.1V41.81l1.52-2.1h6.43l1.52,2.1Z"/><path class="cls-4" d="M192.22,37.22a3.69,3.69,0,0,0-3-1.52h-6.77a3.7,3.7,0,0,0-3,1.52l-1.68,2.32a3.64,3.64,0,0,0-.7,2.16V66.4a2,2,0,1,0,4,0V56.67h8.12a3.68,3.68,0,0,0,3-1.51l1.69-2.33a3.71,3.71,0,0,0,.7-2.16v-9a3.65,3.65,0,0,0-.71-2.16Zm-1.63,13.34-1.52,2.1h-7.95V41.81l1.52-2.1h6.43l1.52,2.1Z"/><path class="cls-4" d="M234,37.22a3.7,3.7,0,0,0-3-1.52h-6.77a3.69,3.69,0,0,0-3,1.52l-1.68,2.32a3.65,3.65,0,0,0-.71,2.16v9a3.65,3.65,0,0,0,.71,2.16l1.68,2.33a3.68,3.68,0,0,0,3,1.51H234.4a2,2,0,1,0,0-4h-10l-1.52-2.1V48.19h9.8a3.68,3.68,0,0,0,3.68-3.68V41.7a3.64,3.64,0,0,0-.7-2.16Zm-1.63,7h-9.47V41.81l1.52-2.1h6.43l1.52,2.1Z"/><path class="cls-4" d="M214.24,52.64h-5.68v-23A3.69,3.69,0,0,0,204.88,26h-4a2,2,0,1,0,0,4h3.67V52.64h-5.68a2,2,0,0,0,0,4h15.37a2,2,0,0,0,0-4Z"/><path class="cls-4" d="M265.69,35.7a2,2,0,0,0-2,2V54.65a2,2,0,1,0,4,0V37.71A2,2,0,0,0,265.69,35.7Z"/><path class="cls-4" d="M169.16,37.22a3.69,3.69,0,0,0-3-1.52h-2.53a3.69,3.69,0,0,0-3,1.52l-.38.52-.38-.52a3.69,3.69,0,0,0-3-1.52H154.4a3.7,3.7,0,0,0-3,1.52l-1.68,2.32a3.64,3.64,0,0,0-.7,2.16V55.06a2,2,0,1,0,4,0V41.81l1.52-2.1h2.19l1.52,2.1V55.06a2,2,0,0,0,4,0V41.81l1.52-2.1H166l1.52,2.1V55.06a2,2,0,0,0,4,0V41.7a3.65,3.65,0,0,0-.71-2.16Z"/><path class="cls-4" d="M257.92,36.16a2,2,0,0,0-2.83.26L249.57,43l-5.52-6.62A2,2,0,1,0,241,39l6,7.19-6,7.18a2,2,0,1,0,3.08,2.57l5.52-6.62,5.52,6.62a2,2,0,0,0,1.54.73,2,2,0,0,0,1.55-3.3l-6-7.18,6-7.19A2,2,0,0,0,257.92,36.16Z"/><path class="cls-4" d="M277.79,39.71h6.95a.68.68,0,0,1,.54.28L287,42.34A2,2,0,0,0,290.24,40l-1.71-2.35a4.68,4.68,0,0,0-3.79-1.93h-6.95a4.3,4.3,0,0,0-2.74,7.62l10.66,8.83a.25.25,0,0,1,.09.32.26.26,0,0,1-.28.19h-6.95a.66.66,0,0,1-.54-.28l-1.63-2a2,2,0,1,0-3.1,2.55l1.52,1.86a4.71,4.71,0,0,0,3.75,1.87h6.95a4.31,4.31,0,0,0,2.75-7.62l-10.66-8.82a.29.29,0,0,1,.18-.52Z"/><path class="cls-4" d="M120.62,39.71a2,2,0,0,0,0-4H116a3.09,3.09,0,0,0-2.55,1.35l-5.29,6.87a3.71,3.71,0,0,0,0,4.53l5.29,6.87A3.09,3.09,0,0,0,116,56.67h4.59a2,2,0,0,0,0-4H116.5l-5-6.47,5-6.48Z"/><path class="cls-4" d="M265.69,26a2.89,2.89,0,1,0,2.89,2.89A2.89,2.89,0,0,0,265.69,26Z"/><path class="cls-5" d="M229.07,76.05a2.14,2.14,0,0,0-.56-1.6,5.84,5.84,0,0,0-2-1.08,8.61,8.61,0,0,1-2.26-1.11A3.83,3.83,0,0,1,223,70.94a3.58,3.58,0,0,1-.38-1.7,3.64,3.64,0,0,1,1.1-2.73,4,4,0,0,1,2.9-1.07,4.23,4.23,0,0,1,2.18.55,3.82,3.82,0,0,1,1.48,1.53,4.57,4.57,0,0,1,.52,2.14h-1.77a2.92,2.92,0,0,0-.62-2,2.25,2.25,0,0,0-1.79-.71,2.2,2.2,0,0,0-1.65.6,2.25,2.25,0,0,0-.58,1.66,2,2,0,0,0,.63,1.48A5.47,5.47,0,0,0,227,71.75a6.7,6.7,0,0,1,3,1.68,3.77,3.77,0,0,1,.89,2.61,3.53,3.53,0,0,1-1.1,2.71,4.26,4.26,0,0,1-3,1,4.88,4.88,0,0,1-2.25-.53,4,4,0,0,1-1.62-1.49,4.2,4.2,0,0,1-.59-2.21h1.76a2.72,2.72,0,0,0,.73,2,2.67,2.67,0,0,0,2,.72,2.33,2.33,0,0,0,1.74-.6A2.19,2.19,0,0,0,229.07,76.05Z"/><path class="cls-5" d="M232.55,73.92a5.43,5.43,0,0,1,1.1-3.58,3.58,3.58,0,0,1,2.9-1.32,3.63,3.63,0,0,1,2.9,1.29,5.31,5.31,0,0,1,1.12,3.49v1.09a5.4,5.4,0,0,1-1.09,3.57,3.9,3.9,0,0,1-5.8,0,5.29,5.29,0,0,1-1.13-3.45Zm1.7,1a4.39,4.39,0,0,0,.63,2.52,1.94,1.94,0,0,0,1.69.91c1.49,0,2.26-1.07,2.3-3.23V73.92a4.43,4.43,0,0,0-.63-2.52,2,2,0,0,0-1.69-.92,1.92,1.92,0,0,0-1.67.92,4.4,4.4,0,0,0-.63,2.51Z"/><path class="cls-5" d="M243.5,79.58v-9h-1.35V69.21h1.35V68a3.77,3.77,0,0,1,.8-2.47,2.75,2.75,0,0,1,2.18-.89,3.42,3.42,0,0,1,1,.17l-.09,1.43a3.81,3.81,0,0,0-.78-.08c-1,0-1.44.68-1.44,2.06v1H247v1.37H245.2v9Z"/><path class="cls-5" d="M251.19,66.7v2.51h1.56v1.37h-1.56V77a1.69,1.69,0,0,0,.2.93.75.75,0,0,0,.69.32,2.08,2.08,0,0,0,.68-.12l0,1.44a3.69,3.69,0,0,1-1.18.19,1.78,1.78,0,0,1-1.53-.72,3.38,3.38,0,0,1-.53-2V70.58h-1.58V69.21h1.58V66.7Z"/><path class="cls-5" d="M262.49,76.6l1.57-7.39h1.68L263.2,79.58h-1.35l-2-7.42-2,7.42h-1.36L254,69.21h1.67l1.61,7.21,1.93-7.21h1.34Z"/><path class="cls-5" d="M272.85,79.58a3.63,3.63,0,0,1-.22-1.13,2.7,2.7,0,0,1-2.3,1.32,3,3,0,0,1-2.2-.79,3,3,0,0,1-.79-2.23,3.17,3.17,0,0,1,1.07-2.51,4.41,4.41,0,0,1,2.94-.94h1.25V72.19a1.45,1.45,0,0,0-1.67-1.71,1.73,1.73,0,0,0-1.24.45,1.54,1.54,0,0,0-.48,1.16h-1.7a2.77,2.77,0,0,1,.47-1.52,3.34,3.34,0,0,1,1.27-1.14A3.85,3.85,0,0,1,271,69a3.42,3.42,0,0,1,2.42.79,3.11,3.11,0,0,1,.84,2.31v5.23a6.43,6.43,0,0,0,.33,2.08v.15Zm-2.26-1.35a2.22,2.22,0,0,0,1.18-.35,2.07,2.07,0,0,0,.83-.86V74.55h-1a3.21,3.21,0,0,0-1.91.54,1.74,1.74,0,0,0-.7,1.46,1.86,1.86,0,0,0,.36,1.28A1.52,1.52,0,0,0,270.59,78.23Z"/><path class="cls-5" d="M281.19,70.8a4.51,4.51,0,0,0-.76-.06,1.85,1.85,0,0,0-1.82,1.42v7.42h-1.7V69.21h1.65l0,1.06A2.1,2.1,0,0,1,280.51,69a1.48,1.48,0,0,1,.67.14Z"/><path class="cls-5" d="M286.4,79.77a3.78,3.78,0,0,1-3-1.15,5,5,0,0,1-1.05-3.39V74a5.86,5.86,0,0,1,1-3.63A3.35,3.35,0,0,1,286.21,69a3.23,3.23,0,0,1,2.72,1.16,5.94,5.94,0,0,1,.92,3.61V74.9h-5.78v.24a3.85,3.85,0,0,0,.62,2.43,2.23,2.23,0,0,0,1.81.75,2.91,2.91,0,0,0,1.32-.28,3.34,3.34,0,0,0,1.07-.89l.88,1.07A3.87,3.87,0,0,1,286.4,79.77Zm-.19-9.29a1.78,1.78,0,0,0-1.56.72,4.23,4.23,0,0,0-.57,2.25h4.08v-.23a4,4,0,0,0-.53-2.11A1.66,1.66,0,0,0,286.21,70.48Z"/><polygon class="cls-6" points="40.13 73.09 26.21 65 25.04 66.41 38.96 74.49 40.13 73.09"/><path class="cls-7" d="M28.88,74.3a2.68,2.68,0,0,0,.88-.91,1.16,1.16,0,0,0-.27-1.09l-2.88-4.44L40.52,76l2.89,4.43a1.21,1.21,0,0,1,.27,1.09,2.58,2.58,0,0,1-.89.91l-9.26,5.35L19.62,79.64Z"/><polygon class="cls-8" points="33.53 87.73 19.62 79.64 19.62 80.44 33.53 88.53 33.53 87.73"/><path class="cls-8" d="M41.69,74.54,40.52,76l2.89,4.43a1.21,1.21,0,0,1,.27,1.09,2.58,2.58,0,0,1-.89.91l-9.26,5.35v.8l12.2-7v-.79Z"/><path class="cls-7" d="M1.22.08h0a.37.37,0,0,1,.46,0l69.7,40.24a1.26,1.26,0,0,1,.57,1V91.77a.48.48,0,0,1-.09.31h0l0,0-1.06,1.06-.56-.34-68.53-41a1.28,1.28,0,0,1-.58-1L.47,2.46.11,1.18Z"/><path class="cls-9" d="M0,1.51c0-.37.26-.51.58-.33L70.27,41.42a1.28,1.28,0,0,1,.58,1V92.87c0,.37-.26.51-.58.33L.58,53A1.26,1.26,0,0,1,0,52Z"/><polygon class="cls-5" points="1.87 45.62 68.98 84.36 68.98 42.77 1.87 4.02 1.87 45.62"/><rect class="cls-10" x="30.34" y="19.08" width="0.74" height="7.68" transform="translate(-4.49 38.06) rotate(-60)"/><rect class="cls-10" x="24.99" y="18.79" width="0.74" height="2.09" transform="translate(-4.49 31.88) rotate(-60)"/><rect class="cls-10" x="21.73" y="16.53" width="0.74" height="2.83" transform="translate(-4.49 28.12) rotate(-60)"/><rect class="cls-4" x="9.36" y="8.37" width="0.74" height="4.88" transform="translate(-4.49 13.83) rotate(-60)"/><rect class="cls-10" x="32.42" y="25.35" width="0.74" height="2.87" transform="translate(-6.81 41.79) rotate(-60)"/><rect class="cls-10" x="25.73" y="17.94" width="0.74" height="9.98" transform="translate(-6.8 34.07) rotate(-60)"/><rect class="cls-10" x="19.51" y="18.44" width="0.74" height="1.79" transform="translate(-6.8 26.89) rotate(-60.02)"/><rect class="cls-4" x="10.13" y="10.59" width="0.74" height="6.65" transform="translate(-6.8 16.05) rotate(-60)"/><rect class="cls-10" x="30.49" y="24.69" width="0.74" height="7.32" transform="translate(-9.12 40.9) rotate(-60)"/><rect class="cls-10" x="23.97" y="22" width="0.74" height="5.16" transform="translate(-9.12 33.37) rotate(-60)"/><rect class="cls-10" x="19.01" y="19.87" width="0.74" height="3.7" transform="translate(-9.12 27.64) rotate(-60)"/><rect class="cls-4" x="8.9" y="13.97" width="0.74" height="3.82" transform="translate(-9.12 15.97) rotate(-60)"/><rect class="cls-10" x="32.7" y="31.18" width="0.74" height="2.22" transform="translate(-11.43 44.79) rotate(-60)"/><rect class="cls-10" x="28.25" y="27" width="0.74" height="5.45" transform="translate(-11.43 39.65) rotate(-60)"/><rect class="cls-10" x="21.26" y="21.63" width="0.74" height="8.11" transform="translate(-11.43 31.57) rotate(-60)"/><rect class="cls-4" x="10.4" y="15.78" width="0.74" height="7.28" transform="translate(-11.43 19.04) rotate(-60)"/><rect class="cls-10" x="32.14" y="32.88" width="0.74" height="3.52" transform="translate(-13.74 45.47) rotate(-60)"/><rect class="cls-10" x="27.52" y="29.7" width="0.74" height="4.55" transform="translate(-13.74 40.14) rotate(-60)"/><rect class="cls-10" x="21.58" y="25.25" width="0.74" height="6.57" transform="translate(-13.74 33.28) rotate(-60)"/><rect class="cls-4" x="9.77" y="18.81" width="0.74" height="5.83" transform="translate(-13.74 19.64) rotate(-60)"/><rect class="cls-10" x="32.7" y="36.52" width="0.74" height="2.22" transform="translate(-16.05 47.46) rotate(-60)"/><rect class="cls-10" x="26.66" y="29.58" width="0.74" height="9.13" transform="translate(-16.05 40.48) rotate(-60)"/><rect class="cls-10" x="19.66" y="27.89" width="0.74" height="4.43" transform="translate(-16.05 32.4) rotate(-60)"/><rect class="cls-4" x="8.69" y="22.1" width="0.74" height="3.33" transform="translate(-16.05 19.73) rotate(-60)"/><rect class="cls-10" x="30.44" y="35.28" width="0.74" height="7.44" transform="translate(-18.37 46.18) rotate(-60)"/><rect class="cls-10" x="23.35" y="31.74" width="0.74" height="6.34" transform="translate(-18.37 38) rotate(-60)"/><rect class="cls-4" x="8.9" y="24.65" width="0.74" height="3.82" transform="translate(-18.37 21.31) rotate(-60)"/><rect class="cls-10" x="30.34" y="37.77" width="0.74" height="7.67" transform="translate(-20.68 47.4) rotate(-60)"/><rect class="cls-10" x="23.86" y="35.51" width="0.74" height="4.7" transform="translate(-20.68 39.91) rotate(-60)"/><rect class="cls-10" x="19.71" y="34.34" width="0.74" height="2.26" transform="translate(-20.68 35.13) rotate(-60)"/><rect class="cls-4" x="9.92" y="26.73" width="0.74" height="6.18" transform="translate(-20.68 23.82) rotate(-60)"/><rect class="cls-10" x="32.61" y="44.37" width="0.74" height="2.44" transform="translate(-22.99 51.35) rotate(-60)"/><rect class="cls-10" x="28.08" y="40.26" width="0.74" height="5.42" transform="translate(-22.99 46.12) rotate(-60)"/><rect class="cls-10" x="21" y="34.73" width="0.74" height="8.31" transform="translate(-22.99 37.96) rotate(-60)"/><rect class="cls-4" x="9.77" y="29.49" width="0.74" height="5.83" transform="translate(-22.99 24.98) rotate(-60)"/><rect class="cls-10" x="32.42" y="46.71" width="0.74" height="2.87" transform="translate(-25.3 52.47) rotate(-60)"/><rect class="cls-10" x="25.93" y="39.65" width="0.74" height="9.51" transform="translate(-25.3 44.98) rotate(-60)"/><rect class="cls-10" x="19.71" y="39.68" width="0.74" height="2.26" transform="translate(-25.3 37.8) rotate(-60)"/><rect class="cls-4" x="8.9" y="32.66" width="0.74" height="3.82" transform="translate(-25.3 25.31) rotate(-60)"/><rect class="cls-10" x="33.04" y="50.46" width="0.74" height="1.44" transform="translate(-27.61 54.52) rotate(-60)"/><rect class="cls-10" x="27.28" y="43.22" width="0.74" height="9.27" transform="translate(-27.61 47.87) rotate(-60)"/><rect class="cls-10" x="20.44" y="41.93" width="0.74" height="3.94" transform="translate(-27.61 39.97) rotate(-60)"/><rect class="cls-4" x="10.04" y="34.67" width="0.74" height="6.45" transform="translate(-27.61 27.97) rotate(-60)"/><rect class="cls-10" x="32.42" y="52.05" width="0.74" height="2.87" transform="translate(-29.93 55.14) rotate(-60)"/><rect class="cls-10" x="26.1" y="45.27" width="0.74" height="9.13" transform="translate(-29.93 47.84) rotate(-60)"/><rect class="cls-10" x="19.88" y="44.93" width="0.74" height="2.64" transform="translate(-29.93 40.66) rotate(-60)"/><rect class="cls-4" x="9.77" y="37.5" width="0.74" height="5.83" transform="translate(-29.93 28.99) rotate(-60)"/><rect class="cls-10" x="31.55" y="53.22" width="0.74" height="4.88" transform="translate(-32.24 55.47) rotate(-60)"/><rect class="cls-10" x="26.2" y="50.13" width="0.74" height="4.88" transform="translate(-32.24 49.29) rotate(-60)"/><rect class="cls-10" x="19.94" y="45.47" width="0.74" height="6.97" transform="translate(-32.24 42.07) rotate(-60)"/><rect class="cls-4" x="8.98" y="40.62" width="0.74" height="4.01" transform="translate(-32.24 29.42) rotate(-60)"/><rect class="cls-10" x="32.14" y="56.91" width="0.74" height="3.52" transform="translate(-34.55 57.49) rotate(-60)"/><rect class="cls-10" x="25.81" y="50.77" width="0.74" height="8.48" transform="translate(-34.55 50.19) rotate(-60)"/><rect class="cls-10" x="18.97" y="48.7" width="0.74" height="4.72" transform="translate(-34.55 42.28) rotate(-60)"/><rect class="cls-4" x="10.16" y="42.61" width="0.74" height="6.73" transform="translate(-34.55 32.11) rotate(-60)"/><rect class="cls-10" x="30.44" y="56.64" width="0.74" height="7.44" transform="translate(-36.86 56.86) rotate(-60)"/><rect class="cls-10" x="23.84" y="53.94" width="0.74" height="5.22" transform="translate(-36.86 49.24) rotate(-60)"/><rect class="cls-4" x="9.77" y="45.51" width="0.74" height="5.83" transform="translate(-36.86 32.99) rotate(-60)"/><rect class="cls-10" x="60.49" y="37.06" width="0.74" height="6.53" transform="translate(-4.49 72.87) rotate(-60)"/><rect class="cls-10" x="53.8" y="33.3" width="0.74" height="6.32" transform="translate(-4.49 65.14) rotate(-60)"/><rect class="cls-10" x="49.16" y="32.89" width="0.74" height="1.79" transform="translate(-4.49 59.79) rotate(-60)"/><rect class="cls-4" x="40.01" y="24.91" width="0.74" height="7.18" transform="translate(-4.49 49.22) rotate(-60)"/><rect class="cls-10" x="61.56" y="41.59" width="0.74" height="4.05" transform="translate(-6.81 75.44) rotate(-60)"/><rect class="cls-10" x="54.59" y="34.87" width="0.74" height="9.45" transform="translate(-6.81 67.39) rotate(-60)"/><rect class="cls-10" x="48.88" y="35.72" width="0.74" height="1.14" transform="translate(-6.8 60.82) rotate(-60.02)"/><rect class="cls-4" x="39.49" y="27.88" width="0.74" height="5.97" transform="translate(-6.8 49.95) rotate(-60)"/><rect class="cls-10" x="62.18" y="45.34" width="0.74" height="2.62" transform="translate(-9.11 77.51) rotate(-60.01)"/><rect class="cls-10" x="56.83" y="39.98" width="0.74" height="7.14" transform="translate(-9.12 71.32) rotate(-60)"/><rect class="cls-4" x="40.19" y="30.15" width="0.74" height="7.6" transform="translate(-9.12 52.1) rotate(-60)"/><rect class="cls-10" x="62.02" y="47.73" width="0.74" height="2.99" transform="translate(-11.43 78.64) rotate(-60)"/><rect class="cls-10" x="58.35" y="45.65" width="0.74" height="2.89" transform="matrix(0.5, -0.87, 0.87, 0.5, -11.43, 74.4)"/><rect class="cls-10" x="52.96" y="40.5" width="0.74" height="6.97" transform="translate(-11.43 68.17) rotate(-60)"/><rect class="cls-4" x="38.3" y="33.91" width="0.74" height="3.24" transform="translate(-11.43 51.26) rotate(-60)"/><rect class="cls-10" x="60.36" y="47.51" width="0.74" height="6.84" transform="translate(-13.74 78.05) rotate(-60)"/><rect class="cls-10" x="54.15" y="44.9" width="0.74" height="4.89" transform="translate(-13.74 70.89) rotate(-60)"/><rect class="cls-10" x="49.65" y="43.29" width="0.74" height="2.91" transform="translate(-13.74 65.69) rotate(-60)"/><rect class="cls-4" x="38.74" y="36.33" width="0.74" height="4.24" transform="translate(-13.74 53.09) rotate(-60)"/><rect class="cls-10" x="61.2" y="51.65" width="0.74" height="4.88" transform="translate(-16.05 80.37) rotate(-60)"/><rect class="cls-10" x="52.38" y="42.54" width="0.74" height="12.91" transform="translate(-16.05 70.18) rotate(-60)"/><rect class="cls-4" x="39.01" y="38.84" width="0.74" height="4.88" transform="matrix(0.5, -0.87, 0.87, 0.5, -16.05, 54.75)"/><rect class="cls-10" x="61.2" y="54.32" width="0.74" height="4.88" transform="translate(-18.37 81.7) rotate(-60)"/><rect class="cls-10" x="54.61" y="49.07" width="0.74" height="7.75" transform="translate(-18.37 74.09) rotate(-60)"/><rect class="cls-10" x="48.01" y="46.7" width="0.74" height="4.88" transform="translate(-18.37 66.47) rotate(-60)"/><rect class="cls-4" x="39.49" y="41.23" width="0.74" height="5.97" transform="translate(-18.37 56.63) rotate(-60)"/><rect class="cls-10" x="58.81" y="52.84" width="0.74" height="10.41" transform="matrix(0.5, -0.87, 0.87, 0.5, -20.68, 80.27)"/><rect class="cls-10" x="52.12" y="52.96" width="0.74" height="2.44" transform="translate(-20.68 72.55) rotate(-60)"/><rect class="cls-10" x="48.57" y="50.55" width="0.74" height="3.17" transform="translate(-20.68 68.45) rotate(-60)"/><rect class="cls-4" x="38.39" y="44.53" width="0.74" height="3.45" transform="translate(-20.68 56.7) rotate(-60)"/><rect class="cls-10" x="62.54" y="61.97" width="0.74" height="1.79" transform="translate(-22.99 85.92) rotate(-60)"/><rect class="cls-10" x="55.78" y="53.35" width="0.74" height="11.24" transform="translate(-22.99 78.11) rotate(-60)"/><rect class="cls-10" x="48.08" y="52.55" width="0.74" height="3.94" transform="translate(-22.99 69.22) rotate(-60)"/><rect class="cls-4" x="38.55" y="47.12" width="0.74" height="3.8" transform="translate(-22.99 58.21) rotate(-60)"/><rect class="cls-10" x="61.2" y="62.33" width="0.74" height="4.88" transform="translate(-25.3 85.71) rotate(-60)"/><rect class="cls-10" x="54.89" y="57.57" width="0.74" height="7.1" transform="translate(-25.3 78.42) rotate(-60)"/><rect class="cls-4" x="39.36" y="49.32" width="0.74" height="5.68" transform="translate(-25.3 60.49) rotate(-60)"/><rect class="cls-10" x="62.3" y="66.9" width="0.74" height="2.34" transform="translate(-27.62 88.31) rotate(-60)"/><rect class="cls-10" x="55.43" y="58.63" width="0.74" height="10.94" transform="translate(-27.62 80.37) rotate(-60)"/><rect class="cls-10" x="48.5" y="58.87" width="0.74" height="2.46" transform="translate(-27.62 72.37) rotate(-60)"/><rect class="cls-4" x="38.3" y="52.6" width="0.74" height="3.24" transform="translate(-27.61 60.6) rotate(-60)"/><rect class="cls-10" x="62.18" y="69.37" width="0.74" height="2.62" transform="translate(-29.93 89.52) rotate(-60.01)"/><rect class="cls-10" x="55.87" y="62.34" width="0.74" height="9.37" transform="translate(-29.93 82.22) rotate(-60)"/><rect class="cls-10" x="49.54" y="62.04" width="0.74" height="2.66" transform="translate(-29.93 74.91) rotate(-60)"/><rect class="cls-4" x="39.44" y="54.61" width="0.74" height="5.87" transform="translate(-29.93 63.25) rotate(-60)"/><rect class="cls-10" x="62.95" y="73.36" width="0.74" height="0.85" transform="translate(-32.24 91.74) rotate(-60.01)"/><rect class="cls-10" x="58.95" y="68.57" width="0.74" height="5.81" transform="translate(-32.24 87.12) rotate(-60.01)"/><rect class="cls-10" x="51.85" y="63.38" width="0.74" height="7.99" transform="translate(-32.24 78.91) rotate(-60)"/><rect class="cls-4" x="39.82" y="57.06" width="0.74" height="6.73" transform="translate(-32.24 65.01) rotate(-60)"/><rect class="cls-10" x="62.26" y="74.84" width="0.74" height="2.44" transform="translate(-34.55 92.28) rotate(-60.01)"/><rect class="cls-10" x="55.67" y="67.15" width="0.74" height="10.19" transform="translate(-34.55 84.66) rotate(-60.01)"/><rect class="cls-10" x="48.46" y="66.16" width="0.74" height="3.86" transform="translate(-34.55 76.33) rotate(-60)"/><rect class="cls-4" x="38.45" y="60.52" width="0.74" height="3.58" transform="translate(-34.55 64.78) rotate(-60)"/><rect class="cls-10" x="62.02" y="77.1" width="0.74" height="2.99" transform="translate(-36.86 93.34) rotate(-60.01)"/><rect class="cls-10" x="55.71" y="70.45" width="0.75" height="8.99" transform="translate(-36.86 86.05) rotate(-60.01)"/><rect class="cls-4" x="39.49" y="62.59" width="0.74" height="5.97" transform="translate(-36.86 67.31) rotate(-60)"/></g></g></g></svg>