<svg xmlns="http://www.w3.org/2000/svg" width="29.76" height="16.84" viewBox="0 0 29.76 16.84"><defs><style>.cls-1{fill:#fff;}</style></defs><g id="Слой_2" data-name="Слой 2"><g id="Слой_1-2" data-name="Слой 1"><path class="cls-1" d="M25.61,10.71a40.36,40.36,0,0,1,2.92,2.93,8.27,8.27,0,0,1,1,1.51c.4.77,0,1.63-.66,1.68H24.58a3.31,3.31,0,0,1-2.76-1.12c-.6-.61-1.16-1.26-1.74-1.89a4,4,0,0,0-.78-.7.91.91,0,0,0-1.44.36,4.67,4.67,0,0,0-.46,2c0,1-.35,1.29-1.38,1.33a11,11,0,0,1-6.2-1.33,13.69,13.69,0,0,1-4.18-3.91A52.81,52.81,0,0,1,.15,1.79C-.2,1,.06.6.91.59c1.41,0,2.83,0,4.24,0a1.22,1.22,0,0,1,1.18.88A26.38,26.38,0,0,0,9.21,6.8,4.54,4.54,0,0,0,10.29,8a.66.66,0,0,0,1.13-.33,3.8,3.8,0,0,0,.25-1.12,17.05,17.05,0,0,0-.07-3.91,1.64,1.64,0,0,0-1.39-1.5c-.42-.08-.36-.23-.16-.47A1.56,1.56,0,0,1,11.38,0h4.9a1.14,1.14,0,0,1,1,1.27V6.72c0,.3.15,1.19.69,1.39s.72-.21,1-.48a16.86,16.86,0,0,0,2.75-4.24c.34-.67.62-1.37.9-2.06A1,1,0,0,1,23.77.57h4.71a3,3,0,0,1,.42,0c.79.13,1,.48.77,1.25A11.73,11.73,0,0,1,27.79,5.1C27,6.19,26.16,7.24,25.38,8.34s-.66,1.5.23,2.37Z"/></g></g></svg>