<svg xmlns="http://www.w3.org/2000/svg" width="21.14" height="21.14" viewBox="0 0 21.14 21.14"><defs><style>.cls-1{fill:#ac9dff;}</style></defs><g id="Слой_2" data-name="Слой 2"><g id="Слой_1-2" data-name="Слой 1"><path class="cls-1" d="M19.68,0H1.46A1.46,1.46,0,0,0,0,1.46V19.68a1.46,1.46,0,0,0,1.46,1.46H19.68a1.47,1.47,0,0,0,1.46-1.46V1.46A1.46,1.46,0,0,0,19.68,0Zm0,19.64H14.23V13h2.62l.39-3.17h-3v-2c0-.92.24-1.54,1.51-1.54h1.61V3.44A20.89,20.89,0,0,0,15,3.32c-2.33,0-3.92,1.47-3.92,4.19V9.84H8.45V13h2.63v6.63H1.5V1.5H19.64Z"/></g></g></svg>